<?xml version="1.0" standalone="no"?>
<!DOCTYPE svg PUBLIC "-//W3C//DTD SVG 1.1//EN" "http://www.w3.org/Graphics/SVG/1.1/DTD/svg11.dtd" >
<svg xmlns="http://www.w3.org/2000/svg" xmlns:xlink="http://www.w3.org/1999/xlink" version="1.1" viewBox="0 0 256 256">
  <g transform="matrix(1 0 0 -1 0 204)">
   <path fill="currentColor"
d="M166 212q9 -5 8 -11q-5 -8 -10 -19q1 0 5 1q4 0 6 1q6 1 11 6q1 5 9 2q2 -2 7 -3t8 -2q2 -2 1 -5q-1 -2 -4 -2q-4 0 -3 0q-15 2 -22 0q-4 -1 -10 -2q-8 -2 -12 -2q-10 -17 -29 -34q1 -1 3 -2q36 4 54 -3q11 -5 17 -13q2 -3 1 -4q-2 -2 -4 -1q-17 2 -37 -3q-6 -1 0 2
q8 2 18 5q3 1 7 2q4 0 4 2q-1 3 -6 6q-20 8 -53 3v-8q-2 -5 -6 -1q-3 2 -7 7l-6 -2q-4 -1 -17 -6q-5 -3 -16 -2q-3 0 -3 1t3 2q7 1 22 6q9 2 14 4q-2 1 -2 2t3 1q5 -1 -4 7l-1 1q-1 -2 -2 -3q-5 -3 -8 2q-4 4 -5 11l-1 3q-4 -2 -5 -2q-14 -4 -35 1q-3 0 -3 1t3 2q17 1 38 4
q-6 12 -14 21q-5 5 2 2q16 -14 22 -21q7 1 14 3q21 4 33 7q13 23 8 31q-1 3 0 3q1 1 4 -1zM95 43l-7 7q-2 3 -5 3t-2 3v3q1 5 2 8q2 2 4 3q10 12 31 23q3 3 0 2q-6 -1 -15 -3q-6 -3 -15 0q-5 1 -1 2q12 0 42 9q12 2 12 6q1 1 4 3q4 1 6 1q8 -2 14 -2q2 -1 1 -3q0 -3 -4 -2
q-9 -1 -22 -6q-38 -16 -52 -34q-2 -3 -1 -5q0 -1 1 -1q4 -8 11 -14q16 3 28 9l1 2q1 1 2 1h11q2 0 4 -2q-1 -3 -1 -2q-16 -4 -19 -7q-4 -4 -3 -1q-1 1 -2 1q-11 -4 -19 -3q4 -8 12 -13q15 5 30 8q2 0 4 -2q6 5 8 12l3 6q4 6 6 11q2 3 0 5q-1 2 -6 3q-28 -3 -42 -10
q-3 -3 -9 -2q-5 0 -9 -1q-4 1 -1 2q18 9 54 14q13 1 21 -6q3 -5 7 -6q2 -2 1 -3t-1 -2q0 -3 -1 -2q-6 0 -9 -6q-15 -19 -26 -25q-10 -6 -16 5q-2 -1 -4 -1q-5 -1 -6 -2q0 -2 -1 -3v-2q-2 -2 -4 0l-9 3q-3 1 -5 2q-1 -1 -2 2v4q2 5 -1 8zM196 10q-1 1 4 3q7 2 8 1q0 -1 1 -2
q12 -10 20 -12q8 -3 11 -8q1 0 -1 -3q-3 -2 -4 -2q-4 2 -10 7q-17 12 -34 12q-62 2 -137 -14q-4 -1 -10 -2q-8 -2 -10 -4h-5q-3 -1 -4 -1q-5 2 -9 3q-2 1 0 1q7 1 21 4q7 2 19 4q82 17 140 13zM118 149q0 -1 1 -1q6 -2 9 -4q11 11 22 29q-10 -3 -28 -7q-7 -2 -12 -3
q1 -3 3 -7q0 -2 1 -3q0 -2 1 -3v-1h3zM76 126q2 0 0 -3q-5 -4 -4 -8q-1 -9 5 -13q-1 -8 -4 -5q-8 9 -7 17q-1 4 10 12zM143 34q-1 0 -6 -1q-6 -1 -6 0q4 -5 12 1z" />
  </g>

</svg>
