<?xml version="1.0" standalone="no"?>
<!DOCTYPE svg PUBLIC "-//W3C//DTD SVG 1.1//EN" "http://www.w3.org/Graphics/SVG/1.1/DTD/svg11.dtd" >
<svg xmlns="http://www.w3.org/2000/svg" xmlns:xlink="http://www.w3.org/1999/xlink" version="1.1" viewBox="0 0 256 256">
  <g transform="matrix(1 0 0 -1 0 204)">
   <path fill="currentColor"
d="M173 166q8 4 12 -1q7 -8 14 -17q4 -5 -2 -7q-5 -2 -9 -9q7 2 21 4q4 1 8 6q3 4 7 1q1 -2 3 -3h2q4 -4 6 -5v-3q-1 -1 -3 0q-20 3 -47 -6q-3 -3 -10 -16q-5 -8 -6 -10q11 3 16 0q3 -5 -3 -6q-9 0 -19 -1q-9 -1 -24 -5q-28 -74 -53 -105q-3 -3 -4 -2q-1 0 1 3q24 31 48 103
q-28 -6 -35 -4q-4 0 1 2q20 3 36 7q0 1 2 12q1 9 2 11q-14 -3 -34 -10q-10 -5 -21 1q-2 1 -2 2t3 1q13 -1 25 3q28 8 30 9q3 14 0 19q-1 2 0 3q2 1 4 0q10 -11 5 -20q8 1 28 6q6 13 9 26q1 7 -7 8q-21 -10 -40 -13q-14 -3 -23 -1q-3 0 -3 1t3 2q45 5 59 14zM172 123
q-18 -4 -26 -6q-2 -3 -3 -12q-2 -8 -2 -10q6 0 19 4q2 3 7 13q3 8 5 11zM75 39q-1 -8 12 -23q2 -6 -2 -7q-8 0 -14 12q-3 6 -9 11q-4 4 0 7q7 4 8 13v24q2 33 2 51q-16 -23 -45 -53q-3 -3 -4 -3q-2 1 1 4q12 13 28 39q8 18 26 40q7 9 2 19q-2 3 -1 4q1 0 4 -2q1 -2 4 -5
q2 -4 4 -5q4 -8 -1 -13q-5 -6 -9 -15q-4 -19 -5 -43q-2 -24 -1 -55z" />
  </g>

</svg>
