<?xml version="1.0" encoding="UTF-8" standalone="no"?>
<!-- Created with Inkscape (http://www.inkscape.org/) -->

<svg
   xmlns:dc="http://purl.org/dc/elements/1.1/"
   xmlns:cc="http://creativecommons.org/ns#"
   xmlns:rdf="http://www.w3.org/1999/02/22-rdf-syntax-ns#"
   xmlns:svg="http://www.w3.org/2000/svg"
   xmlns="http://www.w3.org/2000/svg"
   xmlns:sodipodi="http://sodipodi.sourceforge.net/DTD/sodipodi-0.dtd"
   xmlns:inkscape="http://www.inkscape.org/namespaces/inkscape"
   version="1.1"
   id="svg3749"
   width="513"
   height="512"
   viewBox="0 0 513 512"
   sodipodi:docname="冬.svg"
   inkscape:version="0.92.4 (5da689c313, 2019-01-14)">
  <metadata
     id="metadata3755">
    <rdf:RDF>
      <cc:Work
         rdf:about="">
        <dc:format>image/svg+xml</dc:format>
        <dc:type
           rdf:resource="http://purl.org/dc/dcmitype/StillImage" />
        <dc:title></dc:title>
      </cc:Work>
    </rdf:RDF>
  </metadata>
  <defs
     id="defs3753" />
  <sodipodi:namedview
     pagecolor="#ffffff"
     bordercolor="#666666"
     borderopacity="1"
     objecttolerance="10"
     gridtolerance="10"
     guidetolerance="10"
     inkscape:pageopacity="0"
     inkscape:pageshadow="2"
     inkscape:window-width="1920"
     inkscape:window-height="1017"
     id="namedview3751"
     showgrid="false"
     inkscape:zoom="1.84375"
     inkscape:cx="230.23583"
     inkscape:cy="252.12254"
     inkscape:window-x="-8"
     inkscape:window-y="-8"
     inkscape:window-maximized="1"
     inkscape:current-layer="svg3749" />
  <path
     style="fill:none;stroke:#000000;stroke-width:1px;stroke-linecap:butt;stroke-linejoin:miter;stroke-opacity:1"
     d="M 168.13559,100.88136 179.52542,104.13559 174.64407,112.81356 170.84746,118.23729 162.71186,129.08475 155.11864,137.22034 144.81356,150.77966 138.84746,156.20339 133.42373,161.62712 126.91525,165.42373 118.77966,170.30508 111.72881,171.38983 103.59322,171.9322 98.711865,179.52542 96,188.74576 94.372881,197.42373 99.254237,206.10169 105.76271,209.35593 H 112.81356 L 118.23729,206.10169 124.74576,203.38983 128.54237,195.25424 131.25424,189.28814 137.76271,187.66102 143.18644,177.35593 171.38983,145.8983 175.72881,142.10169 V 138.30508 132.88136 L 179.52542,130.71186 181.69492,133.42373 188.74576,128 197.42373,119.86441 199.05085,106.84746 190.91525,97.084745 181.69492,88.406779 178.44068,87.322033 173.01695,88.949152 165.9661,98.169491 Z"
     id="path3759"
     inkscape:connector-curvature="0" />
  <path
     style="fill:none;stroke:#000000;stroke-width:1px;stroke-linecap:butt;stroke-linejoin:miter;stroke-opacity:1"
     d="M 214.77966,111.72881 223.45763,109.01695 H 237.55932 L 260.88136,107.9322 266.30509,106.84746 271.72881,107.38983 278.77966,110.10169 280.40678,117.15254 276.0678,124.74576 264.13559,135.05085 248.94915,148.0678 234.84746,166.50847 220.74576,186.57627 216.40678,194.16949 204.47458,205.55932 193.08475,224.54237 182.77966,237.01695 177.35593,242.98305 173.55932,247.32203 172.47458,254.37288 167.59322,259.25424 161.08475,265.76271 150.77966,276.61017 144.27119,285.28814 141.01695,288.54237 137.76271,292.88136 130.16949,300.47458 120.40678,309.15254 113.35593,316.74576 108.47458,321.08475 101.9661,325.9661 97.627119,326.50847 93.830509,332.47458 91.118644,337.8983 83.525424,339.52542 77.016949,344.40678 73.220339,350.37288 66.169492,354.16949 62.915254,354.71186 59.118644,365.01695 53.694915,372.61017 49.355932,379.11864 40.135593,391.05085 32,397.01695 22.237288,404.0678 11.932203,410.0339 4.8813559,412.74576 1.6271186,414.91525 0.54237288,393.76271 6.5084746,386.16949 8.6779661,379.66102 14.101695,373.15254 H 18.440678 L 16.813559,379.66102 24.40678,376.94915 36.881356,368.81356 43.932203,364.47458 53.694915,355.79661 61.830509,348.20339 66.169492,343.86441 94.372881,315.11864 110.1017,298.84746 123.11864,282.0339 123.66102,277.69492 132.88136,268.47458 138.84746,260.88136 154.57627,244.0678 165.9661,232.13559 184.40678,209.8983 192,200.67797 209.35593,181.15254 223.45763,164.33898 232.13559,152.40678 240.27119,137.22034 245.15254,128.54237 V 126.91525 L 239.18644,123.66102 232.13559,121.49153 226.16949,119.32203 222.37288,117.69491 219.11864,116.0678 Z"
     id="path3761"
     inkscape:connector-curvature="0" />
  <path
     style="fill:none;stroke:#000000;stroke-width:1px;stroke-linecap:butt;stroke-linejoin:miter;stroke-opacity:1"
     d="M 164.33898,173.55932 V 183.32203 L 180.0678,188.20339 193.08475,201.22034 208.27119,212.61017 214.77966,219.11864 224,228.88136 233.22034,237.55932 239.72881,240.27119 247.32203,245.69491 259.25424,256.54237 263.59322,263.05085 276.61017,270.64407 285.28814,276.0678 292.33898,281.49153 298.30509,285.83051 310.77966,293.42373 328.13559,306.98305 335.18644,314.57627 343.86441,321.62712 354.16949,327.59322 370.44068,332.47458 388.88136,340.0678 398.1017,342.77966 413.28814,335.18644 434.98305,330.84746 449.62712,325.42373 470.77966,320 487.05085,315.66102 H 496.27119 L 503.86441,317.83051 500.0678,311.32203 481.62712,305.35593 466.44068,300.47458 448,296.13559 433.35593,291.25424 419.79661,284.74576 409.49153,281.49153 397.55932,280.94915 H 388.88136 L 374.77966,278.23729 352,270.64407 334.64407,264.67797 318.91525,258.16949 299.9322,251.11864 289.08475,247.86441 277.69492,239.72881 265.76271,232.67797 257.08475,227.25424 243.52542,219.11864 232.13559,210.44068 219.66102,198.50847 202.84746,182.77966 192,175.18644 184.40678,171.38983 174.64407,174.10169 Z"
     id="path3763"
     inkscape:connector-curvature="0" />
  <path
     style="fill:none;stroke:#000000;stroke-width:1px;stroke-linecap:butt;stroke-linejoin:miter;stroke-opacity:1"
     d="M 187.66102,263.05085 196.33898,269.55932 201.76271,276.61017 207.18644,284.74576 214.77966,288 222.37288,290.16949 232.67797,295.59322 239.18644,297.76271 244.61017,300.47458 251.66102,309.15254 254.37288,315.11864 249.49153,317.83051 242.98305,321.08475 233.76271,321.62712 H 226.16949 216.40678 L 208.81356,322.71186 199.05085,324.33898 194.16949,324.88136 190.91525,320.54237 195.25424,313.49153 186.57627,305.8983 180.61017,296.13559 176.81356,286.91525 Z"
     id="path3765"
     inkscape:connector-curvature="0" />
  <path
     style="fill:none;stroke:#000000;stroke-width:1px;stroke-linecap:butt;stroke-linejoin:miter;stroke-opacity:1"
     d="M 174.88309,365.11355 166.82926,365.49706 164.91168,370.86628 168.74684,375.85198 173.73254,378.15308 175.2666,380.83768 175.65012,386.2069 173.34903,390.42557 177.18418,393.4937 178.33473,399.24643 181.01934,404.61565 185.23801,409.21783 192.5248,409.60135 195.20941,406.14971 H 201.34566 206.71488 L 214.7687,408.4508 223.20605,410.36838 233.56097,413.05299 244.2994,414.20354 H 255.03784 L 262.70815,409.98487 266.92682,407.68377 266.15979,403.08159 264.62572,400.01346 260.79057,397.32885 255.42135,394.26073 248.90159,388.89151 243.14885,385.43987 240.08073,381.2212 231.64339,379.30362 224.35659,378.92011 217.45331,378.15308 211.31706,375.85198 207.48191,378.15308 202.11269,375.85198 194.44238,373.55089 185.23801,369.33222 182.16988,368.9487 179.10176,367.03112 176.41715,365.49706 Z"
     id="path3767"
     inkscape:connector-curvature="0" />
</svg>
