<?xml version="1.0" encoding="UTF-8" standalone="no"?>
<!-- Created with Inkscape (http://www.inkscape.org/) -->

<svg
   xmlns:dc="http://purl.org/dc/elements/1.1/"
   xmlns:cc="http://creativecommons.org/ns#"
   xmlns:rdf="http://www.w3.org/1999/02/22-rdf-syntax-ns#"
   xmlns:svg="http://www.w3.org/2000/svg"
   xmlns="http://www.w3.org/2000/svg"
   xmlns:sodipodi="http://sodipodi.sourceforge.net/DTD/sodipodi-0.dtd"
   xmlns:inkscape="http://www.inkscape.org/namespaces/inkscape"
   version="1.1"
   id="svg3897"
   width="513"
   height="512"
   viewBox="0 0 513 512"
   sodipodi:docname="秋.svg"
   inkscape:version="0.92.4 (5da689c313, 2019-01-14)">
  <metadata
     id="metadata3903">
    <rdf:RDF>
      <cc:Work
         rdf:about="">
        <dc:format>image/svg+xml</dc:format>
        <dc:type
           rdf:resource="http://purl.org/dc/dcmitype/StillImage" />
        <dc:title></dc:title>
      </cc:Work>
    </rdf:RDF>
  </metadata>
  <defs
     id="defs3901" />
  <sodipodi:namedview
     pagecolor="#ffffff"
     bordercolor="#666666"
     borderopacity="1"
     objecttolerance="10"
     gridtolerance="10"
     guidetolerance="10"
     inkscape:pageopacity="0"
     inkscape:pageshadow="2"
     inkscape:window-width="1920"
     inkscape:window-height="1017"
     id="namedview3899"
     showgrid="false"
     inkscape:zoom="1.3037281"
     inkscape:cx="381.62907"
     inkscape:cy="297.38654"
     inkscape:window-x="-8"
     inkscape:window-y="-8"
     inkscape:window-maximized="1"
     inkscape:current-layer="svg3897" />
  <path
     style="fill:none;stroke:#000000;stroke-width:1px;stroke-linecap:butt;stroke-linejoin:miter;stroke-opacity:1"
     d="M 160,75.118643 158.37288,79.728813 158.64407,82.169491 160.54237,85.423728 163.25424,86.508474 167.86441,89.762711 170.57627,92.474576 171.9322,94.372881 172.47458,96.542372 173.55932,100.0678 V 102.77966 L 169.49153,103.59322 165.9661,105.76271 160.27119,106.57627 156.74576,109.01695 152.13559,113.62712 147.52542,117.42373 141.01695,121.22034 133.15254,125.01695 125.28814,127.72881 122.30508,128.54237 123.9322,133.15254 126.37288,136.13559 130.16949,135.59322 137.76271,133.9661 147.52542,133.15254 156.20339,132.0678 H 164.88136 173.83051 L 180.88136,133.69491 191.18644,132.0678 199.32203,129.62712 203.9322,123.9322 204.47458,120.94915 H 208 L 211.25424,116.88136 213.69492,109.28813 211.52542,103.59322 209.08475,96.813559 205.83051,88.949152 203.11864,85.152542 198.77966,84.067796 188.20339,79.457626 176.27119,74.847457 167.86441,73.491525 162.98305,74.305084 Z"
     id="path3907"
     inkscape:connector-curvature="0" />
  <path
     style="fill:none;stroke:#000000;stroke-width:1px;stroke-linecap:butt;stroke-linejoin:miter;stroke-opacity:1"
     d="M 121.22034,165.69491 122.30508,172.20339 123.66102,175.72881 126.91525,180.33898 128.27119,184.94915 128,188.47458 V 192 L 127.45763,196.88136 123.66102,198.50847 116.0678,200.67797 104.40678,204.47458 90.033898,208.54237 72.40678,214.23729 51.254237,221.83051 0.81355932,239.18644 0.54237288,289.8983 8.4067797,283.66102 13.288136,279.59322 16.271186,274.44068 18.983051,270.91525 21.423729,269.55932 43.661017,256 109.83051,218.84746 115.52542,215.05085 121.22034,213.15254 126.37288,211.79661 131.25424,211.52542 V 216.40678 L 128.54237,226.98305 125.83051,237.01695 117.69492,245.15254 109.28814,254.91525 97.084746,269.55932 89.762712,278.77966 80,286.91525 74.576271,293.15254 69.423729,302.10169 56.135593,314.30508 50.711864,322.16949 50.169492,325.69491 H 45.288136 L 37.423729,330.84746 29.559322,335.72881 22.237288,340.61017 16.271186,343.32203 11.661017,343.86441 8.9491526,348.47458 7.0508475,350.91525 14.101695,352.81356 21.152542,351.45763 32.271186,350.37288 47.457627,343.86441 60.474576,336.54237 72.949153,328.67797 83.254237,315.9322 93.288136,304.54237 109.28814,290.16949 119.86441,279.05085 125.28814,272.27119 127.72881,268.20339 130.71186,267.9322 128.54237,278.23729 127.72881,333.28814 128.81356,341.42373 128.54237,349.83051 129.89831,361.76271 129.08475,367.18644 128.27119,372.61017 126.37288,376.94915 126.1017,380.74576 124.20339,375.32203 118.77966,380.20339 118.23729,383.72881 119.86441,390.50847 121.22034,395.66102 125.55932,400.81356 132.33898,402.16949 135.32203,394.30508 132.88136,389.69492 129.89831,385.8983 132.88136,382.37288 136.13559,381.55932 137.76271,383.18644 V 392.94915 L 135.59322,402.98305 133.42373,409.22034 132.33898,411.9322 130.16949,409.76271 125.28814,409.49153 C 125.28814,409.49153 124.74576,411.11864 125.01695,413.28814 125.28814,415.45763 127.45763,419.25424 127.45763,419.25424 L 131.25424,423.86441 137.22034,419.79661 142.1017,410.30508 143.18644,397.28814 142.64407,375.86441 138.57627,269.83051 V 265.76271 L 143.45763,265.49153 151.05085,269.01695 157.55932,272.81356 166.77966,281.49153 170.0339,283.11864 174.37288,285.83051 179.25424,293.42373 187.38983,294.50847 200.13559,296.40678 211.25424,294.77966 208.27119,282.57627 203.66102,274.71186 193.89831,266.30508 189.01695,263.05085 186.0339,257.35593 180.0678,254.10169 171.11864,251.9322 162.71186,253.28814 158.37288,256 150.50847,254.37288 142.91525,251.38983 142.37288,227.52542 145.08475,199.32203 152.67797,196.61017 161.08475,196.33898 170.30509,195.79661 183.05085,193.35593 H 192.27119 206.1017 L 216.67797,191.45763 221.83051,191.18644 223.45763,186.30508 225.08475,176.54237 221.01695,172.47458 215.59322,170.84746 207.45763,169.49152 199.32203,169.76271 192.27119,169.49152 185.76271,169.22034 H 181.15254 L 177.89831,173.55932 176,177.8983 171.66102,180.88136 163.79661,183.05085 158.37288,185.22034 153.76271,186.84746 150.77966,188.47458 148.33898,187.9322 150.23729,181.42373 152.40678,175.72881 154.30508,170.57627 154.84746,165.9661 151.86441,160.81356 144.27119,159.18644 139.38983,158.37288 135.32203,160.27119 129.62712,161.35593 126.1017,163.25424 Z"
     id="path3909"
     inkscape:connector-curvature="0" />
  <path
     style="fill:none;stroke:#000000;stroke-width:1px;stroke-linecap:butt;stroke-linejoin:miter;stroke-opacity:1"
     d="M 290.44068,81.355932 288,89.491525 286.1017,94.101694 284.20339,97.084745 281.49153,96.271186 281.22034,98.98305 282.57627,103.59322 288.27119,106.57627 293.42373,112.81356 298.30509,119.05085 302.64407,123.66102 301.01695,137.22034 298.57627,146.16949 297.76271,156.20339 298.0339,172.74576 V 183.32203 L 299.11864,192.81356 299.66102,201.49152 299.38983,213.15254 298.0339,227.25424 295.32203,238.91525 292.61017,248.13559 290.71186,256 285.01695,271.45763 278.77966,283.38983 273.62712,293.9661 265.76271,304.54237 258.98305,312.67797 247.32203,327.32203 241.89831,335.18644 237.55932,339.52542 231.59322,345.49153 225.89831,348.74576 218.0339,354.71186 209.89831,359.59322 198.77966,367.45763 193.89831,368.81356 188.47458,373.15254 183.32203,375.59322 190.37288,380.20339 202.0339,378.30508 214.23729,374.23729 224.54237,370.71186 235.11864,362.57627 247.86441,353.08475 259.25424,343.32203 265.76271,334.10169 273.62712,326.50847 280.40678,315.66102 286.1017,305.35593 292.0678,295.05085 294.77966,288.54237 297.76271,285.01695 303.45763,284.20339 308.33898,285.55932 312.67797,291.25424 317.28814,298.30508 324.0678,304.54237 332.47458,315.38983 343.05085,325.15254 351.18644,334.64407 361.22034,345.49153 370.16949,356.0678 381.28814,367.18644 391.86441,374.23729 400,380.20339 408.94915,379.9322 413.83051,376.13559 421.42373,373.15254 428.20339,372.33898 438.50848,370.16949 451.52542,369.62712 466.16949,366.64407 480.54237,365.55932 487.86441,364.47458 477.28814,359.59322 466.16949,355.25424 453.42373,351.18644 437.69492,344.94915 422.50848,338.71186 408.40678,333.01695 396.74576,327.32203 388.0678,321.35593 377.22034,315.38983 370.44068,311.05085 361.76271,304.81356 350.91525,300.20339 341.42373,292.88136 326.23729,281.22034 315.38983,273.08475 309.69492,269.55932 306.44068,268.47458 310.23729,257.35593 310.77966,253.28814 V 256.27119"
     id="path3911"
     inkscape:connector-curvature="0" />
  <path
     style="fill:none;stroke:#000000;stroke-width:1px;stroke-linecap:butt;stroke-linejoin:miter;stroke-opacity:1"
     d="M 310.77966,253.28814 311.05085,241.62712 309.69492,234.84746 308.88136,228.61017 312.13559,222.37288 312.67797,215.59322 310.77966,212.33898 309.15254,197.15254 308.61017,187.38983 311.05085,176.27119 313.49153,165.9661 317.55932,151.59322 320,131.79661 324.33898,112 328.67797,99.79661 325.15254,94.372881 322.98305,88.135593 310.50848,83.254237 300.20339,80.271186 293.42373,79.18644 290.44068,81.355932"
     id="path3913"
     inkscape:connector-curvature="0" />
  <path
     style="fill:none;stroke:#000000;stroke-width:1px;stroke-linecap:butt;stroke-linejoin:miter;stroke-opacity:1"
     d="M 288.27119,258.71186 280.94915,257.62712 275.79661,255.72881 H 273.35593 L 269.55932,256 270.1017,262.23729 276.61017,264.94915 283.38983,267.9322 285.01695,271.45763"
     id="path3915"
     inkscape:connector-curvature="0" />
  <path
     style="fill:none;stroke:#000000;stroke-width:1px;stroke-linecap:butt;stroke-linejoin:miter;stroke-opacity:1"
     d="M 262.23729,204.20339 258.44068,206.64407 255.72881,209.08475 254.37288,210.98305 250.84746,212.61017 249.76271,215.59322 247.86441,217.76271 H 244.88136 L 242.16949,215.86441 238.64407,215.59322 235.9322,213.15254 232.67797,210.16949 230.77966,209.62712 227.25424,207.45763 224.54237,206.10169 224,205.01695 221.28814,211.25424 220.47458,218.30508 218.30509,222.10169 215.86441,222.64407 215.59322,229.9661 218.30509,236.74576 C 218.30509,236.74576 219.66102,243.25424 221.01695,243.79661 222.37288,244.33898 229.42373,254.37288 229.42373,254.37288 L 234.84746,262.77966 238.91525,265.76271 244.88136,266.30508 250.30509,264.13559 253.28814,260.61017 254.64407,254.10169 256.27119,247.32203 257.62712,240.81356 V 234.57627 L 260.33898,226.98305 261.42373,219.38983 263.32203,212.88136 263.86441,207.72881 Z"
     id="path3917"
     inkscape:connector-curvature="0" />
  <path
     style="fill:none;stroke:#000000;stroke-width:1px;stroke-linecap:butt;stroke-linejoin:miter;stroke-opacity:1"
     d="M 341.15254,143.18644 339.52542,145.62712 340.61017,148.88136 343.59322,151.32203 347.9322,157.83051 352,162.44068 355.25424,166.23729 359.86441,170.84746 360.94915,173.83051 359.32203,178.98305 356.88136,182.77966 354.16949,187.38983 352,191.45763 347.66102,194.44068 344.67797,197.9661 340.61017,201.76271 334.91525,204.74576 330.84746,206.91525 H 328.67797 L 327.32203,209.62712 329.49153,212.0678 334.37288,213.42373 338.71186,211.79661 345.76271,209.08475 353.62712,206.64407 361.22034,204.20339 370.44068,203.11864 380.74576,200.13559 392.40678,199.05085 395.38983,197.42373 395.9322,194.71186 399.45763,194.98305 405.15254,195.25424 410.30509,193.8983 412.74576,192 415.45763,186.84746 415.72881,181.69491 417.08475,176.81356 414.91525,173.28814 408.67797,169.76271 401.62712,165.42373 397.01695,161.08475 389.9661,157.83051 382.64407,153.22034 379.66102,150.23729 373.9661,146.16949 367.45763,145.35593 355.52542,145.08475 Z"
     id="path3919"
     inkscape:connector-curvature="0" />
</svg>
