<?xml version="1.0" encoding="UTF-8" standalone="no"?>
<!-- Created with Inkscape (http://www.inkscape.org/) -->

<svg
   xmlns:dc="http://purl.org/dc/elements/1.1/"
   xmlns:cc="http://creativecommons.org/ns#"
   xmlns:rdf="http://www.w3.org/1999/02/22-rdf-syntax-ns#"
   xmlns:svg="http://www.w3.org/2000/svg"
   xmlns="http://www.w3.org/2000/svg"
   xmlns:sodipodi="http://sodipodi.sourceforge.net/DTD/sodipodi-0.dtd"
   xmlns:inkscape="http://www.inkscape.org/namespaces/inkscape"
   version="1.1"
   id="svg3991"
   width="513"
   height="512"
   viewBox="0 0 513 512"
   sodipodi:docname="雲.svg"
   inkscape:version="0.92.4 (5da689c313, 2019-01-14)">
  <metadata
     id="metadata3997">
    <rdf:RDF>
      <cc:Work
         rdf:about="">
        <dc:format>image/svg+xml</dc:format>
        <dc:type
           rdf:resource="http://purl.org/dc/dcmitype/StillImage" />
        <dc:title></dc:title>
      </cc:Work>
    </rdf:RDF>
  </metadata>
  <defs
     id="defs3995" />
  <sodipodi:namedview
     pagecolor="#ffffff"
     bordercolor="#666666"
     borderopacity="1"
     objecttolerance="10"
     gridtolerance="10"
     guidetolerance="10"
     inkscape:pageopacity="0"
     inkscape:pageshadow="2"
     inkscape:window-width="1920"
     inkscape:window-height="1017"
     id="namedview3993"
     showgrid="false"
     inkscape:zoom="2.6074563"
     inkscape:cx="211.24053"
     inkscape:cy="324.13978"
     inkscape:window-x="-8"
     inkscape:window-y="-8"
     inkscape:window-maximized="1"
     inkscape:current-layer="svg3991" />
  <path
     style="fill:none;stroke:#000000;stroke-width:1px;stroke-linecap:butt;stroke-linejoin:miter;stroke-opacity:1"
     d="M 158.37288,75.932203 155.11864,84.067796 158.91525,88.406779 164.88136,94.372881 175.18644,103.59322 182.23729,107.38983 188.74576,111.72881 195.25424,114.44068 V 125.28814 L 193.62712,131.79661 195.79661,137.22034 201.22034,141.01695 207.18644,148.61017 213.15254,154.0339 213.69492,158.37288 209.35593,160 195.79661,161.08475 176.27119,163.79661 146.98305,168.67797 136.13559,169.22034 127.45763,167.05085 H 120.40678 L 118.77966,174.10169 122.0339,182.23729 131.79661,189.83051 136.13559,194.71186 H 143.72881 L 152.94915,190.37288 167.59322,186.0339 220.74576,175.72881 219.11864,196.33898 218.57627,212.0678 219.66102,239.18644 219.11864,278.23729 V 302.10169 308.61017 L 209.35593,312.40678 197.9661,315.11864 180.61017,321.62712 161.08475,329.76271 150.23729,333.55932 144.81356,333.01695 144.27119,338.98305 147.52542,344.94915 155.66102,349.28814 163.79661,351.45763 172.47458,348.74576 178.44068,340.61017 188.74576,336.81356 206.1017,329.76271 216.40678,327.59322 224,325.42373 231.05085,329.22034 235.38983,331.38983 240.81356,330.30508 V 324.88136 L 246.23729,322.16949 254.91525,319.45763 266.84746,316.20339 279.86441,311.86441 288,309.15254 H 291.25424 L 286.91525,301.01695 278.23729,295.05085 263.59322,292.88136 249.49153,299.38983 240.81356,303.72881 235.9322,299.9322 V 288 L 237.55932,273.35593 236.47458,261.42373 237.55932,244.0678 239.18644,223.45763 241.35593,173.55932 242.98305,170.84746 245.15254,169.22034 254.91525,167.59322 282.57627,161.62712 307.52542,157.83051 339.52542,152.94915 353.08475,151.86441 361.76271,150.77966 366.64407,152.94915 369.35593,153.49153 372.61017,157.28814 367.18644,163.25424 360.13559,170.84746 356.33898,178.44068 353.62712,183.32203 350.91525,186.57627 348.74576,188.20339 344.94915,187.66102 346.0339,190.91525 355.25424,192 366.64407,193.62712 382.37288,195.25424 387.79661,196.33898 400.27119,189.28814 411.11864,176.81356 417.08475,169.76271 423.59322,162.16949 426.84746,158.91525 429.01695,156.74576 430.1017,153.49153 V 145.8983 L 423.05085,139.9322 417.62712,135.59322 401.89831,126.91525 391.05085,122.0339 389.42373,119.86441 381.83051,113.35593 375.32203,111.18644 H 368.81356 L 360.67797,113.35593 355.25424,114.98305 V 125.28814 L 347.11864,129.08475 334.1017,132.88136 312.94915,140.47458 292.88136,145.35593 272.27119,150.23729 248.40678,151.32203 244.61017,145.8983 242.44068,144.81356 235.38983,141.55932 220.74576,134.50847 214.77966,128.54237 210.98305,123.11864 208.27119,118.23729 209.35593,115.52542 H 216.40678 L 232.13559,110.10169 247.32203,104.13559 271.72881,92.203389 290.16949,86.237288 290.71186,77.016949 284.74576,70.508474 273.89831,66.711864 265.22034,66.169491 262.50847,69.423728 254.91525,72.135593 246.23729,75.38983 238.1017,79.18644 230.50847,81.898305 224,82.98305 H 216.94915 209.35593 L 203.9322,81.355932 199.59322,77.559322 195.79661,79.728813 199.05085,82.98305 203.38983,88.949152 201.22034,90.033898 192.54237,88.406779 H 180.0678 L 171.9322,84.610169 Z"
     id="path4001"
     inkscape:connector-curvature="0" />
  <path
     style="fill:none;stroke:#000000;stroke-width:1px;stroke-linecap:butt;stroke-linejoin:miter;stroke-opacity:1"
     d="M 35.28343,145.74266 32.982337,153.41297 V 155.33055 L 33.749368,159.93273 38.351554,164.1514 43.337256,171.82171 49.857021,181.4096 53.692176,184.47773 57.910847,189.46343 61.362487,191.38101 67.498736,193.29858 69.032798,196.36671 70.950375,202.50296 73.251469,205.57108 75.936077,207.48866 78.620686,215.54249 78.237171,224.74686 77.853655,233.56772 79.004202,241.23803 81.305295,249.29185 82.839357,253.89404 84.756935,255.81162 87.058028,258.11271 V 261.18083 L 86.674513,264.24896 83.989904,265.78302 H 80.538264 L 80.154748,262.33138 79.004202,259.64677 77.853655,258.49623 75.169046,257.7292 73.251469,260.4138 72.867953,265.01599 75.169046,268.85115 81.688811,279.58958 84.756935,283.42474 88.59209,284.57528 H 91.660215 L 96.645917,283.42474 99.330526,279.20607 102.39865,266.93357 106.61732,254.66107 V 239.70396 L 107.38435,225.89741 108.5349,213.62491 107.76787,199.05132 107.00084,187.16234 102.78217,177.57445 95.49537,175.27335 88.975606,176.80742 79.387717,173.35578 69.032798,168.75359 57.527331,162.61734 48.322958,155.33055 42.953741,149.96133 Z"
     id="path4003"
     inkscape:connector-curvature="0" />
  <path
     style="fill:none;stroke:#000000;stroke-width:1px;stroke-linecap:butt;stroke-linejoin:miter;stroke-opacity:1"
     d="M 154.55676,206.72163 152.63919,212.85788 151.48864,223.97983 V 228.58201 L 156.47434,231.26662 163.76114,233.1842 170.66442,231.26662 176.41715,228.96553 179.86879,226.66444 186.77207,223.97983 191.75777,221.29522 195.97644,219.76116 199.8116,217.07655 200.19511,212.85788 199.42808,211.70733 193.67535,210.55678 185.23801,207.48866 179.10176,206.33811 173.73254,209.02272 166.44575,207.10514 161.84356,205.18757 157.62489,204.03702 Z"
     id="path4005"
     inkscape:connector-curvature="0" />
  <path
     style="fill:none;stroke:#000000;stroke-width:1px;stroke-linecap:butt;stroke-linejoin:miter;stroke-opacity:1"
     d="M 143.0513,267.7006 V 273.83685 L 145.73591,277.28849 150.33809,280.74013 153.0227,282.27419 161.46004,285.72583 H 164.91168 L 168.74684,283.80825 172.19848,281.12364 174.49957,277.28849 177.18418,273.45333 179.86879,266.93357 182.93691,265.01599 191.75777,259.64677 197.89402,256.57865 201.34566,254.27756 203.64675,252.35998 205.94785,249.29185 202.49621,245.84021 H 195.97644 L 195.59293,248.52482 189.84019,249.29185 H 185.23801 L 178.71824,251.59295 166.82926,259.26326 Z"
     id="path4007"
     inkscape:connector-curvature="0" />
  <path
     style="fill:none;stroke:#000000;stroke-width:1px;stroke-linecap:butt;stroke-linejoin:miter;stroke-opacity:1"
     d="M 269.61143,196.75022 263.47518,202.11944 266.15979,205.18757 269.61143,209.78975 273.8301,212.47436 278.8158,216.69303 284.95205,218.61061 291.47181,216.69303 296.074,214.00842 301.44322,210.17327 305.66189,208.63921 309.49704,206.72163 313.71571,204.42053 315.63329,200.58538 318.3179,195.98319 319.85196,191.38101 314.86626,191.76452 309.11353,189.46343 H 303.36079 298.37509 L 291.47181,191.76452 283.41799,194.44913 273.44658,197.13374 Z"
     id="path4009"
     inkscape:connector-curvature="0" />
  <path
     style="fill:none;stroke:#000000;stroke-width:1px;stroke-linecap:butt;stroke-linejoin:miter;stroke-opacity:1"
     d="M 250.81917,250.82592 248.90159,255.81162 V 259.26326 L 252.35323,262.33138 258.87299,264.63247 264.24221,269.23466 269.61143,271.53575 276.13119,274.98739 280.34986,271.91927 283.41799,268.85115 289.17072,266.55005 293.00587,264.63247 300.67619,259.26326 303.74431,256.57865 306.0454,255.81162 308.3465,255.04459 306.81243,251.97646 301.82673,249.67537 297.99158,245.84021 294.53994,243.92264 H 289.17072 L 286.10259,243.53912 279.96635,245.07318 277.28174,246.22373 274.59713,248.90834 273.44658,251.59295 267.69385,251.20943 256.95541,248.52482 Z"
     id="path4011"
     inkscape:connector-curvature="0" />
  <path
     style="fill:none;stroke:#000000;stroke-width:1px;stroke-linecap:butt;stroke-linejoin:miter;stroke-opacity:1"
     d="M 195.59293,353.9916 195.20941,358.9773 197.12699,360.89488 197.89402,362.42894 199.04457,364.34652 V 366.64761 L 198.66105,369.33222 196.74347,370.86628 186.77207,372.78386 166.82926,375.85198 138.44911,379.68714 114.28763,382.75526 110.06896,383.52229 105.08326,385.05636 102.39865,386.2069 101.2481,386.97393 98.563495,387.35745 96.262401,386.59042 93.961308,384.67284 91.660215,382.75526 90.509668,382.37175 87.441544,379.68714 86.290997,394.26073 V 400.78049 L 89.359121,405.38268 93.194277,410.7519 100.48107,414.20354 103.5492,413.82002 107.00084,412.28596 111.60302,408.83432 116.20521,403.4651 121.95794,399.24643 129.24474,393.87721 141.90075,388.89151 154.55676,387.35745 168.74684,383.90581 177.5677,383.13878 H 185.62152 L 190.99074,383.90581 195.20941,385.82339 191.75777,392.72667 188.68965,403.4651 176.80067,430.6947 172.58199,431.84525 159.54247,436.06392 146.11942,441.43314 140.7502,442.58369 137.29856,445.2683 139.59966,449.87048 143.81833,456.00673 147.26997,460.60892 149.95458,466.36165 152.63919,470.19681 H 158.0084 L 162.22707,470.96384 165.2952,468.66274 170.2809,464.44407 174.88309,459.84189 179.86879,459.07486 186.77207,457.15728 196.74347,455.62322 207.86542,455.2397 215.91925,453.32212 H 230.10933 L 245.06643,452.17158 256.95541,447.56939 269.99494,443.35072 282.26744,439.13205 H 287.63666 L 289.93775,440.66611 293.00587,446.03533 296.45751,452.17158 301.0597,459.07486 305.27837,459.84189 309.11353,460.99243 316.78384,457.92431 324.83766,456.00673 327.52227,450.63751 327.90579,440.66611 323.68712,433.76283 314.48275,420.7233 306.0454,406.91674 294.53994,396.56182 284.18502,392.34315 273.8301,390.80909 263.47518,391.57612 258.48948,391.1926 256.18838,393.11018 258.87299,397.71237 265.00924,400.39698 270.37846,406.14971 276.51471,413.05299 281.11689,417.65518 283.41799,421.49033 V 423.40791 L 276.89822,426.09252 267.31033,430.31119 263.47518,430.6947 H 251.20268 L 232.41042,431.07822 215.15222,431.84525 204.03027,430.31119 201.72918,425.709 200.57863,419.95627 201.72918,417.27166 205.18082,413.43651 209.783,409.21783 215.91925,398.4794 227.80823,387.35745 232.0269,378.15308 232.79393,373.55089 240.46425,372.78386 275.74768,368.18167 306.42892,364.34652 317.55087,365.49706 330.5904,365.11355 341.32883,363.57948 348.23211,365.11355 355.51891,366.26409 362.42219,367.03112 369.32547,369.71573 374.69469,371.2498 380.0639,367.79816 385.43312,365.11355 V 360.89488 L 383.13203,357.05972 379.29687,352.45753 373.16062,348.23886 352.8343,341.33558 337.11016,336.34988 332.89149,335.58285 327.90579,337.88394 323.68712,339.03449 321.38602,340.18504 V 344.02019 L 321.00251,347.85535 316.78384,348.62238 308.73001,351.6905 229.34229,364.34652 224.35659,365.11355 223.20605,362.42894 220.90495,360.89488 215.91925,357.44324 209.783,353.60808 201.72918,352.07402 Z"
     id="path4013"
     inkscape:connector-curvature="0" />
</svg>
