<?xml version="1.0" encoding="UTF-8" standalone="no"?>
<!-- Created with Inkscape (http://www.inkscape.org/) -->

<svg
   xmlns:dc="http://purl.org/dc/elements/1.1/"
   xmlns:cc="http://creativecommons.org/ns#"
   xmlns:rdf="http://www.w3.org/1999/02/22-rdf-syntax-ns#"
   xmlns:svg="http://www.w3.org/2000/svg"
   xmlns="http://www.w3.org/2000/svg"
   xmlns:sodipodi="http://sodipodi.sourceforge.net/DTD/sodipodi-0.dtd"
   xmlns:inkscape="http://www.inkscape.org/namespaces/inkscape"
   version="1.1"
   id="svg4127"
   width="513"
   height="512"
   viewBox="0 0 513 512"
   sodipodi:docname="騰.svg"
   inkscape:version="0.92.4 (5da689c313, 2019-01-14)">
  <metadata
     id="metadata4133">
    <rdf:RDF>
      <cc:Work
         rdf:about="">
        <dc:format>image/svg+xml</dc:format>
        <dc:type
           rdf:resource="http://purl.org/dc/dcmitype/StillImage" />
        <dc:title></dc:title>
      </cc:Work>
    </rdf:RDF>
  </metadata>
  <defs
     id="defs4131" />
  <sodipodi:namedview
     pagecolor="#ffffff"
     bordercolor="#666666"
     borderopacity="1"
     objecttolerance="10"
     gridtolerance="10"
     guidetolerance="10"
     inkscape:pageopacity="0"
     inkscape:pageshadow="2"
     inkscape:window-width="1920"
     inkscape:window-height="1017"
     id="namedview4129"
     showgrid="false"
     inkscape:zoom="1.3037281"
     inkscape:cx="133.66911"
     inkscape:cy="215.26749"
     inkscape:window-x="-8"
     inkscape:window-y="-8"
     inkscape:window-maximized="1"
     inkscape:current-layer="svg4127" />
  <path
     style="fill:none;stroke:#000000;stroke-width:1px;stroke-linecap:butt;stroke-linejoin:miter;stroke-opacity:1"
     d="M 80,68.610169 76.20339,68.067796 74.576271,70.237287 72.677966,74.57627 72.135593,79.18644 70.508475,82.711864 73.220339,85.152542 78.644068,91.38983 81.355932,96.271186 84.61017,100.61017 87.322034,104.94915 94.372882,104.13559 H 98.711865 L 103.32203,101.42373 105.76271,96.271186 110.91525,91.118643 116.0678,85.694915 129.08475,80.271186 140.74576,74.57627 148.0678,74.847457 150.77966,77.559321 V 85.423728 L 150.50847,97.084745 149.42373,161.62712 150.23729,186.30508 149.15254,222.10169 150.77966,250.57627 153.22034,271.72881 157.28814,277.69491 158.1017,279.05085 155.66102,281.22034 154.0339,293.42373 155.66102,322.44068 157.01695,376.40678 156.74576,381.83051 151.32203,384.54237 147.79661,386.16949 142.37288,384.54237 138.0339,383.18644 136.13559,380.74576 133.42373,375.86441 128.81356,374.77966 125.83051,379.11864 127.18644,385.62712 130.71186,392.40678 136.40678,407.05085 138.57627,420.88136 140.74576,430.91525 143.18644,440.67797 148.0678,446.37288 155.11864,445.01695 160.27119,440.40678 165.15254,430.91525 174.1017,399.45763 171.9322,393.49153 169.49153,387.25424 164.0678,318.10169 165.69492,303.18644 162.16949,289.08475 V 281.49153 L 160.81356,279.32203 162.98305,276.33898 160.54237,251.38983 161.08475,238.64407 164.33898,224.27119 162.98305,211.52542 163.52542,189.83051 164.33898,159.18644 169.49153,141.55932 170.0339,125.28813 173.55932,114.16949 170.30509,109.01695 176.54237,88.135593 177.62712,74.305084 H 180.61017 L 183.05085,70.237287 185.49153,63.457626 182.23729,59.118643 169.22034,50.169491 151.86441,44.474576 140.20339,44.745762 137.22034,45.559321 135.86441,50.98305 135.05085,53.694915 131.52542,57.491525 125.55932,59.661016 103.59322,67.525423 89.491526,71.050847 Z"
     id="path4137"
     inkscape:connector-curvature="0" />
  <path
     style="fill:none;stroke:#000000;stroke-width:1px;stroke-linecap:butt;stroke-linejoin:miter;stroke-opacity:1"
     d="M 49.355932,113.8983 47.457627,119.32203 50.169492,121.49152 52.61017,122.0339 58.033898,126.10169 65.084746,129.8983 69.966102,133.42373 73.491526,136.94915 77.288136,142.91525 V 149.42373 L 78.644068,158.37288 76.474576,163.52542 76.745763,167.32203 77.288136,178.44068 78.101695,244.0678 74.305085,247.86441 69.423729,250.0339 65.355932,248.94915 60.474576,248.67797 59.932203,253.01695 59.389831,258.44068 63.186441,261.9661 68.067797,266.57627 73.762712,267.11864 77.288136,267.38983 77.559322,272.81356 77.016949,307.25424 73.220339,330.57627 69.423729,356.0678 62.372881,384 56.135593,406.77966 52.61017,417.35593 43.932203,425.22034 35.254237,433.8983 26.033898,441.76271 16.813559,445.55932 15.186441,448 13.288136,455.32203 16,458.0339 25.762712,452.88136 44.745763,439.59322 57.762712,424.40678 71.050848,394.0339 76.474576,376.13559 77.016949,369.35593 76.20339,368.81356 80.813559,356.88136 82.169492,341.15254 82.711865,326.23729 84.338983,316.47458 84.61017,301.83051 85.423729,278.23729 V 271.45763 L 93.016949,264.40678 103.05085,254.10169 115.52542,242.98305 123.66102,233.49152 128.81356,229.42373 131.79661,222.37288 V 220.47458 L 122.57627,226.44068 106.30508,234.0339 96,238.64407 90.305085,237.55932 87.864407,233.76271 87.050848,172.74576 88.677966,170.30508 91.389831,168.67797 97.627119,173.28814 108.47458,178.16949 121.49153,182.50847 134.50847,180.88136 141.83051,176 140.20339,172.47458 134.23729,165.15254 125.55932,157.01695 111.72881,151.32203 101.15254,151.05085 91.932204,152.40678 88.677966,149.9661 87.59322,143.45763 82.983051,135.05085 78.915254,129.62712 73.220339,120.13559 69.152542,114.98305 65.084746,112.81356 60.745763,112 57.220339,113.08475 Z"
     id="path4139"
     inkscape:connector-curvature="0" />
  <path
     style="fill:none;stroke:#000000;stroke-width:1px;stroke-linecap:butt;stroke-linejoin:miter;stroke-opacity:1"
     d="M 276.33898,17.084745 271.72881,23.864406 270.64407,29.016948 272.27119,34.440677 274.98305,39.59322 274.71186,52.067796 274.98305,59.118643 274.44068,62.101694 268.47458,62.372881 258.71186,60.474576 247.32203,56.949152 232.94915,51.796609 226.16949,49.355931 C 226.16949,49.355931 223.72881,47.18644 223.18644,49.355931 222.64407,51.525423 222.91525,57.491525 222.91525,57.491525 L 226.16949,63.457626 229.15254,68.881355 C 229.15254,68.881355 233.76271,75.932203 233.76271,77.288135 233.76271,78.644067 235.11864,84.338982 235.11864,84.338982 L 237.01695,89.220338 244.88136,90.847457 250.84746,92.474576 255.18644,85.152542 262.77966,77.830508 270.1017,71.59322 272.81356,72.135593 275.25424,78.644067 275.79661,91.661016 273.89831,106.84746 269.28814,109.28813 247.86441,114.98305 230.50847,115.25424 204.74576,117.69491 201.49153,118.23729 198.23729,120.67797 201.76271,123.38983 206.91525,128 211.79661,133.15254 216.94915,135.59322 H 222.37288 L 228.61017,131.52542 233.76271,128.27119 242.98305,124.20339 262.50847,118.77966 272.81356,116.88136 273.89831,119.32203 266.84746,148.0678 256.27119,149.69491 236.74576,153.49152 209.35593,158.10169 194.98305,158.91525 190.91525,160.81356 192.54237,165.69491 195.52542,167.59322 196.61017,174.10169 197.42373,180.88136 203.9322,183.86441 207.18644,184.67797 213.42373,185.49152 221.55932,180.0678 226.71186,176.54237 227.52542,172.20339 235.9322,169.76271 263.59322,161.35593 H 266.57627 L 262.50847,172.20339 251.11864,195.79661 244.61017,210.98305 238.37288,224 230.23729,236.47458 219.11864,251.38983 204.74576,263.59322 190.1017,273.8983 183.86441,277.42373 180.61017,276.88136 178.71186,277.69491 178.98305,280.94915 181.69492,282.30508 189.28814,280.40678 201.76271,275.52542 217.76271,265.76271 230.77966,250.30508 235.66102,245.15254 238.91525,242.44068 241.62712,244.88136 244.61017,247.05085 247.32203,250.0339 247.05085,262.77966 249.49153,350.64407 248.13559,355.25424 245.15254,357.42373 242.44068,356.61017 240.27119,357.42373 238.1017,362.0339 242.44068,365.83051 244.33898,365.28814 C 244.33898,365.28814 242.16949,372.88136 241.62712,373.9661 241.08475,375.05085 239.45763,380.20339 239.72881,381.28814 240,382.37288 242.44068,386.16949 242.44068,386.16949 L 245.9661,391.86441 251.38983,392.40678 251.66102,387.25424 255.72881,388.88136 258.98305,390.50847 260.0678,383.18644 262.23729,373.42373 265.22034,370.16949 262.50847,367.18644 260.88136,360.13559 261.9661,356.0678"
     id="path4141"
     inkscape:connector-curvature="0" />
  <path
     style="fill:none;stroke:#000000;stroke-width:1px;stroke-linecap:butt;stroke-linejoin:miter;stroke-opacity:1"
     d="M 193.62712,376.40678 194.71186,383.45763 192.54237,388.33898 191.18644,392.40678 194.44068,396.47458 203.38983,400.81356 207.45763,402.98305 211.79661,395.9322 213.69492,390.50847 221.83051,384.54237 229.15254,377.76271 225.62712,374.23729 218.57627,375.05085 209.35593,377.49153 201.22034,375.32203 Z"
     id="path4143"
     inkscape:connector-curvature="0" />
  <path
     style="fill:none;stroke:#000000;stroke-width:1px;stroke-linecap:butt;stroke-linejoin:miter;stroke-opacity:1"
     d="M 261.9661,356.0678 272.81356,353.35593 285.83051,349.01695 295.05085,348.47458 297.76271,354.98305 302.91525,364.20339 307.52542,369.62712 306.71186,378.57627 303.45763,389.15254 302.1017,395.66102 297.49153,398.37288 299.38983,404.88136 303.45763,410.30508 308.33898,413.01695 311.05085,411.38983 312.94915,404.88136 320.27119,377.22034 321.35593,370.44068 318.1017,362.0339 314.0339,357.15254 311.86441,350.91525 312.13559,344.94915 314.30509,342.77966 323.79661,339.79661 336.27119,337.62712 344.94915,338.16949 351.18644,337.08475 359.32203,334.64407 366.1017,331.9322 372.61017,327.32203 379.11864,323.79661 387.25424,323.52542 392.67797,323.25424 399.18644,331.11864 402.98305,336.81356 405.42373,342.50847 402.16949,349.83051 397.01695,371.52542 388.88136,398.91525 388.33898,401.62712 382.1017,402.44068 379.66102,403.25424 378.0339,407.32203 V 411.9322 C 378.0339,411.9322 379.66102,416.81356 379.66102,417.62712 379.66102,418.44068 379.66102,425.49153 379.66102,425.49153 L 388.0678,422.77966 395.9322,411.11864 410.30509,379.9322 422.23729,344.13559 418.98305,334.64407 411.38983,331.11864 407.59322,325.15254 404.33898,319.72881 391.32203,314.84746 386.44068,310.77966 381.83051,312.67797 378.84746,316.74576 318.64407,333.83051 311.32203,331.9322 310.23729,303.18644"
     id="path4145"
     inkscape:connector-curvature="0" />
  <path
     style="fill:none;stroke:#000000;stroke-width:1px;stroke-linecap:butt;stroke-linejoin:miter;stroke-opacity:1"
     d="M 346.57627,355.79661 343.05085,361.76271 348.47458,366.10169 356.33898,373.42373 362.84746,379.38983 367.45763,385.8983 375.59322,382.91525 378.57627,375.59322 372.33898,364.20339 365.55932,360.40678 355.25424,357.15254 Z"
     id="path4147"
     inkscape:connector-curvature="0" />
  <path
     style="fill:none;stroke:#000000;stroke-width:1px;stroke-linecap:butt;stroke-linejoin:miter;stroke-opacity:1"
     d="M 310.23729,303.18644 314.30509,301.01695 325.9661,296.40678 338.71186,293.42373 348.20339,291.52542 349.55932,288 344.67797,284.74576 340.61017,280.67797 337.62712,277.42373 H 333.28814 C 333.28814,277.42373 330.0339,277.9661 328.67797,279.05085 327.32203,280.13559 324.61017,282.0339 324.61017,282.0339 L 321.62712,284.20339 317.55932,285.01695 312.13559,285.83051 313.76271,261.42373 324.88136,258.16949 334.1017,257.62712 344.67797,254.64407 349.83051,251.11864 350.91525,246.77966 345.76271,244.33898 337.89831,240.81356 333.83051,240 330.84746,243.25424 323.52542,245.42373 317.83051,247.32203 314.30509,247.59322 318.1017,238.64407 317.01695,230.23729 313.49153,222.64407 311.86441,219.11864 310.23729,216.67797 313.49153,213.9661 H 319.72881 L 331.38983,212.33898 339.25424,210.71186 345.22034,209.08475 348.47458,205.01695 346.30509,200.13559 344.40678,198.77966 342.50848,196.88136 340.0678,194.98305 337.35593,193.8983 329.22034,197.69491 295.32203,209.08475 281.49153,211.79661 271.18644,208.81356 266.84746,208.54237 261.9661,205.83051 261.15254,206.64407 259.79661,211.25424 263.05085,213.9661 264.13559,217.22034 267.66102,222.10169 269.28814,226.44068 272.27119,229.42373 277.69492,229.15254 285.01695,228.0678 292.88136,223.18644 298.57627,222.64407 302.1017,225.8983 301.01695,249.49153 270.64407,256.81356 H 267.9322 V 260.88136 L 270.91525,263.05085 275.52542,266.0339 280.13559,269.01695 286.37288,266.84746 C 286.37288,266.84746 290.71186,265.49153 291.79661,265.22034 292.88136,264.94915 297.22034,264.67797 297.22034,264.67797 L 301.28814,266.30508 303.18644,270.37288 299.9322,288.27119 295.32203,290.98305 286.64407,294.23729 H 280.94915 L 277.42373,293.42373 274.16949,293.15254 C 274.16949,293.15254 271.45763,293.42373 271.45763,295.32203 271.45763,297.22034 271.72881,299.11864 271.72881,299.11864 L 276.0678,303.45763 279.86441,306.16949 H 285.01695 L 289.62712,304.54237 293.42373,303.72881 296.94915,304 299.66102,307.25424 301.28814,314.30508 299.11864,325.69491 V 335.72881 L 291.52542,337.62712 262.23729,340.61017 258.98305,300.47458 257.89831,270.10169 260.88136,250.57627 263.05085,248.40678 258.71186,245.15254 254.1017,241.8983 250.0339,238.64407 247.32203,236.47458 244.0678,234.84746 244.33898,231.59322 256.81356,213.42373 261.9661,202.30508 266.30509,190.91525 275.79661,160.81356 277.9661,158.10169 298.30509,155.11864 311.32203,158.91525 328.13559,170.30508 346.30509,186.30508"
     id="path4149"
     inkscape:connector-curvature="0" />
  <path
     style="fill:none;stroke:#000000;stroke-width:1px;stroke-linecap:butt;stroke-linejoin:miter;stroke-opacity:1"
     d="M 346.30509,186.30508 355.52542,197.69491 371.25424,220.47458 388.0678,238.91525 407.32203,263.32203 430.1017,286.91525 449.89831,292.0678 479.45763,290.71186 507.11864,288 512.81356,284.74576 513.35593,276.33898 504.13559,276.0678 480.81356,267.11864 454.23729,256 428.74576,240.54237 405.42373,219.11864 373.15254,192.54237 340.61017,165.42373 322.16949,152.13559 320.54237,150.23729 325.9661,149.9661 H 333.55932 L 340.61017,147.25424 346.0339,144.54237 350.91525,141.28814 361.76271,143.72881 369.35593,148.61017 383.72881,151.05085 394.0339,154.0339 405.69492,149.15254 403.25424,142.64407 399.72881,135.59322 392.13559,132.0678 364.20339,122.57627 357.15254,124.20339 352.27119,124.74576 347.66102,129.35593 351.18644,133.42373 351.72881,135.32203 352.27119,138.84746 348.74576,136.40678 341.15254,134.77966 334.64407,132.61017 324.61017,135.05085 281.49153,145.08475 283.9322,116.0678 288.27119,112.81356 301.55932,111.45763 328.40678,105.76271 357.42373,106.0339 364.74576,100.0678 363.38983,95.18644 357.42373,91.38983 349.83051,87.59322 342.50848,84.067796 336.81356,84.610169 C 336.81356,84.610169 331.66102,84.338982 330.57627,85.423728 329.49153,86.508474 322.71186,90.033898 322.71186,90.033898 L 311.32203,94.915254 298.30509,100.33898 291.25424,103.32203 H 288.27119 L 289.35593,77.016948 294.77966,58.033898 298.84746,47.728813 303.72881,43.661016 309.15254,36.881355 309.42373,31.18644 304.27119,25.762711 297.49153,20.338982 290.44068,15.457626 284.47458,14.644067 279.59322,14.915253 276.33898,17.084745"
     id="path4151"
     inkscape:connector-curvature="0" />
  <path
     style="fill:none;stroke:#000000;stroke-width:1px;stroke-linecap:butt;stroke-linejoin:miter;stroke-opacity:1"
     d="M 341.15254,21.152542 338.44068,29.830508 335.72881,38.237287 331.66102,45.016948 325.15254,50.98305 318.64407,57.220338 314.30509,61.559321 309.9661,65.084745 307.79661,67.254237 308.88136,69.152542 315.11864,70.237287 324.33898,66.711864 336.81356,62.915254 359.86441,56.406779 369.08475,56.949152 371.25424,47.999999 369.08475,43.661016 365.28814,39.050847 363.11864,31.999999 362.57627,30.372881 351.72881,23.864406 Z"
     id="path4153"
     inkscape:connector-curvature="0" />
</svg>
