<?xml version="1.0" encoding="UTF-8" standalone="no"?>
<!-- Created with Inkscape (http://www.inkscape.org/) -->

<svg
   xmlns:dc="http://purl.org/dc/elements/1.1/"
   xmlns:cc="http://creativecommons.org/ns#"
   xmlns:rdf="http://www.w3.org/1999/02/22-rdf-syntax-ns#"
   xmlns:svg="http://www.w3.org/2000/svg"
   xmlns="http://www.w3.org/2000/svg"
   xmlns:sodipodi="http://sodipodi.sourceforge.net/DTD/sodipodi-0.dtd"
   xmlns:inkscape="http://www.inkscape.org/namespaces/inkscape"
   version="1.1"
   id="svg3733"
   width="512"
   height="512"
   viewBox="0 0 512 512"
   sodipodi:docname="U+4F86.svg"
   inkscape:version="0.92.4 (5da689c313, 2019-01-14)">
  <metadata
     id="metadata3739">
    <rdf:RDF>
      <cc:Work
         rdf:about="">
        <dc:format>image/svg+xml</dc:format>
        <dc:type
           rdf:resource="http://purl.org/dc/dcmitype/StillImage" />
        <dc:title />
      </cc:Work>
    </rdf:RDF>
  </metadata>
  <defs
     id="defs3737" />
  <sodipodi:namedview
     pagecolor="#ffffff"
     bordercolor="#666666"
     borderopacity="1"
     objecttolerance="10"
     gridtolerance="10"
     guidetolerance="10"
     inkscape:pageopacity="0"
     inkscape:pageshadow="2"
     inkscape:window-width="1920"
     inkscape:window-height="1017"
     id="namedview3735"
     showgrid="false"
     inkscape:zoom="0.921875"
     inkscape:cx="213.58647"
     inkscape:cy="241.68518"
     inkscape:window-x="-8"
     inkscape:window-y="-8"
     inkscape:window-maximized="1"
     inkscape:current-layer="svg3733" />
  <path
     style="fill:#000000;stroke:#000000;stroke-width:1px;stroke-linecap:butt;stroke-linejoin:miter;stroke-opacity:1;fill-opacity:1"
     d="M 245.69492,43.38983 234.30508,34.169491 238.1017,27.661016 242.98305,28.745762 252.20339,29.830508 261.9661,32.542372 271.72881,36.338983 278.23729,40.677966 284.74576,48.813559 288.54237,55.864406 293.42373,67.79661 290.16949,80.271186 277.69492,119.32203 292.33898,114.44068 299.38983,112.27119 307.52542,111.18644 322.16949,114.44068 331.9322,119.86441 335.72881,126.91525 332.47458,130.71186 325.42373,132.88136 314.0339,130.71186 301.01695,137.22034 290.71186,142.10169 282.57627,138.84746 276.0678,138.30508 271.18644,171.9322 264.67797,206.64407 264.13559,226.71186 261.9661,258.71186 259.25424,310.23729 261.9661,442.0339 262.50847,475.11864 258.71186,488.67797 252.20339,503.86441 238.1017,502.23729 233.22034,491.38983 234.84746,479.45763 212.61017,465.35593 196.33898,455.59322 189.83051,446.91525 191.45763,440.94915 195.25424,439.86441 204.47458,445.83051 216.40678,447.45763 230.50847,449.62712 240.27119,452.88136 242.98305,444.74576 247.86441,430.10169 V 413.28814 L 250.57627,299.38983 254.37288,229.9661 257.62712,195.25424 258.71186,153.49153 241.35593,150.77966 228.88136,139.38983 209.89831,125.83051 199.59322,123.11864 195.79661,113.8983 194.16949,105.76271 196.88136,98.169491 200.67797,96 210.98305,101.42373 223.45763,109.55932 231.59322,113.8983 H 236.47458 L 241.89831,116.61017 H 251.11864 L 255.45763,113.8983 256,99.79661 259.25424,88.406779 263.05085,81.355932 256,78.644067 240.27119,75.932203 225.62712,77.016949 219.11864,80.271186 203.9322,78.101694 193.62712,70.508474 194.16949,60.203389 198.50847,44.474576 213.15254,43.38983 H 222.91525 L 233.22034,46.101694 244.61017,48.271186 Z"
     id="path3743"
     inkscape:connector-curvature="0" />
  <path
     style="fill:#000000;stroke:#000000;stroke-width:1px;stroke-linecap:butt;stroke-linejoin:miter;stroke-opacity:1;fill-opacity:1"
     d="M 169.76271,169.76271 184.94915,173.55932 194.71186,184.94915 210.98305,203.9322 223.45763,216.94915 233.76271,233.22034 V 242.98305 L 233.22034,244.0678 232.67797,255.45763 246.23729,262.50847 251.66102,264.67797 274.98305,291.25424 291.79661,302.64407 306.44068,314.0339 324.33898,324.88136 346.57627,336.27119 370.98305,349.28814 379.11864,353.08475 394.84746,362.30508 411.66102,369.8983 431.18644,379.11864 453.9661,386.16949 470.77966,393.22034 480,395.9322 494.64407,399.72881 482.16949,404.61017 443.66102,408.94915 420.33898,409.49153 415.45763,413.28814 413.28814,415.45763 401.89831,413.83051 387.79661,412.20339 367.72881,399.18644 346.0339,381.28814 325.9661,363.38983 304.27119,340.61017 284.20339,318.37288 271.18644,302.64407 270.64407,299.38983 271.18644,295.59322 263.59322,291.79661 236.47458,277.15254 228.88136,269.55932 216.94915,262.50847 212.0678,260.33898 195.25424,269.55932 172.47458,282.0339 154.0339,293.9661 150.77966,296.67797 129.62712,293.9661 118.77966,289.08475 106.30508,277.15254 95.457627,266.84746 110.1017,270.64407 134.50847,266.84746 158.91525,259.79661 178.98305,254.37288 205.55932,248.40678 H 218.57627 L 201.22034,238.64407 181.15254,227.79661 173.55932,213.69491 172.47458,194.71186 Z"
     id="path3745"
     inkscape:connector-curvature="0" />
  <path
     style="fill:#000000;stroke:#000000;stroke-width:1px;stroke-linecap:butt;stroke-linejoin:miter;stroke-opacity:1;fill-opacity:1"
     d="M 233.76271,242.98305 258.16949,237.01695 268.47458,237.55932 281.49153,222.37288 301.55932,202.84746 320,177.8983 320.54237,168.67797 315.66102,163.25424 320.54237,151.86441 328.13559,147.52542 333.55932,157.28814 341.69492,161.08475 354.16949,168.13559 360.13559,177.35593 358.50847,189.83051 349.83051,194.71186 331.9322,205.55932 315.66102,218.57627 304.81356,232.13559 H 315.66102 336.81356 L 353.62712,231.59322 H 365.55932 L 373.69492,229.42373 385.08475,227.25424 394.84746,230.50847 412.20339,237.55932 418.71186,245.69491 419.79661,254.37288 411.11864,259.25424 398.1017,256.54237 376.94915,250.57627 360.13559,246.23729 342.77966,244.61017 322.71186,242.44068 300.47458,242.98305 292.33898,241.8983 H 290.16949 L 286.91525,256.54237 280.94915,265.22034 271.72881,274.44068 263.59322,281.49153 247.32203,299.9322 238.1017,314.0339 224.54237,326.50847 209.35593,337.8983 192,356.33898 174.1017,369.35593 169.22034,372.61017 164.33898,375.32203 156.20339,377.49153 152.40678,382.91525 145.35593,388.33898 141.55932,389.42373 H 135.59322 132.88136 L 124.20339,392.67797 106.84746,397.55932 H 96.542373 L 78.101695,395.9322 60.745763,390.50847 51.525424,385.62712 49.898305,381.28814 64,386.16949 H 77.016949 L 88.949153,383.45763 98.169492,381.28814 106.84746,378.57627 123.66102,372.0678 138.84746,364.47458 150.77966,355.79661 157.28814,353.62712 167.05085,345.49153 176.27119,338.44068 187.66102,328.13559 199.05085,319.45763 213.69492,306.44068 225.08475,294.50847 233.22034,285.83051 236.47458,277.15254 246.23729,262.50847 254.37288,251.11864 232.67797,255.45763 Z"
     id="path3747"
     inkscape:connector-curvature="0" />
</svg>
