<?xml version="1.0" encoding="UTF-8" standalone="no"?>
<!-- Created with Inkscape (http://www.inkscape.org/) -->

<svg
   xmlns:dc="http://purl.org/dc/elements/1.1/"
   xmlns:cc="http://creativecommons.org/ns#"
   xmlns:rdf="http://www.w3.org/1999/02/22-rdf-syntax-ns#"
   xmlns:svg="http://www.w3.org/2000/svg"
   xmlns="http://www.w3.org/2000/svg"
   xmlns:sodipodi="http://sodipodi.sourceforge.net/DTD/sodipodi-0.dtd"
   xmlns:inkscape="http://www.inkscape.org/namespaces/inkscape"
   version="1.1"
   id="svg3783"
   width="512"
   height="512"
   viewBox="0 0 512 512"
   sodipodi:docname="U+53EC.svg"
   inkscape:version="0.92.4 (5da689c313, 2019-01-14)">
  <metadata
     id="metadata3789">
    <rdf:RDF>
      <cc:Work
         rdf:about="">
        <dc:format>image/svg+xml</dc:format>
        <dc:type
           rdf:resource="http://purl.org/dc/dcmitype/StillImage" />
        <dc:title />
      </cc:Work>
    </rdf:RDF>
  </metadata>
  <defs
     id="defs3787" />
  <sodipodi:namedview
     pagecolor="#ffffff"
     bordercolor="#666666"
     borderopacity="1"
     objecttolerance="10"
     gridtolerance="10"
     guidetolerance="10"
     inkscape:pageopacity="0"
     inkscape:pageshadow="2"
     inkscape:window-width="1920"
     inkscape:window-height="1017"
     id="namedview3785"
     showgrid="false"
     inkscape:zoom="1.84375"
     inkscape:cx="197.85223"
     inkscape:cy="258.70611"
     inkscape:window-x="-8"
     inkscape:window-y="-8"
     inkscape:window-maximized="1"
     inkscape:current-layer="svg3783" />
  <path
     style="fill:#000000;stroke:#000000;stroke-width:1px;stroke-linecap:butt;stroke-linejoin:miter;stroke-opacity:1;fill-opacity:1"
     d="M 213.69492,50.440677 210.98305,59.118644 217.49153,60.745762 220.74576,64.542372 224.54237,68.881355 225.62712,72.677966 227.25424,77.559322 227.79661,81.355932 V 87.864406 96.542372 L 225.62712,103.59322 220.74576,110.10169 218.57627,116.0678 213.69492,125.28814 210.98305,131.25424 206.1017,135.59322 201.76271,142.10169 198.50847,149.15254 194.71186,156.20339 189.83051,163.25424 184.94915,173.01695 179.52542,179.52542 170.84746,186.57627 164.33898,194.16949 156.74576,200.13559 151.32203,208.27119 145.35593,214.23729 139.38983,218.57627 133.9661,222.37288 129.62712,225.62712 127.45763,232.13559 120.94915,238.64407 112.81356,245.69491 88.949153,263.05085 88.40678,252.74576 84.61017,250.57627 H 80.813559 L 78.101695,257.08475 72.677966,266.30508 65.627119,280.94915 68.338983,283.66102 69.423729,287.45763 72.677966,290.71186 76.474576,293.9661 81.355932,295.59322 89.491526,286.91525 98.711865,277.69492 103.59322,271.72881 112.27119,262.50847 120.94915,254.91525 126.37288,246.77966 130.71186,243.52542 136.67797,239.72881 139.9322,235.38983 140.47458,232.13559 145.35593,228.88136 150.77966,220.74576 155.11864,214.23729 162.71186,203.38983 169.22034,196.88136 174.64407,190.37288 181.15254,183.86441 190.91525,174.10169 194.16949,165.9661 198.50847,162.16949 202.30508,156.74576 208.81356,150.77966 211.52542,146.44068 H 213.15254 L 228.88136,130.16949 240.81356,120.40678 251.11864,113.35593 259.79661,109.55932 263.59322,104.67797 267.9322,97.084745 V 90.576271 L 264.13559,85.152542 254.91525,73.762711 248.94915,66.169491 240.81356,61.288135 234.30508,57.491525 220.74576,50.98305 Z"
     id="path3793"
     inkscape:connector-curvature="0" />
  <path
     style="fill:#000000;stroke:#000000;stroke-width:1px;stroke-linecap:butt;stroke-linejoin:miter;stroke-opacity:1;fill-opacity:1"
     d="M 251.11864,113.35593 256.54237,128 259.25424,132.88136 262.50847,138.30508 265.76271,143.72881 269.55932,146.98305 273.89831,143.72881 283.11864,139.9322 288.54237,138.84746 292.33898,137.22034 299.38983,136.13559 303.72881,135.05085 H 305.35593 L 308.0678,139.9322 304.81356,150.23729 299.9322,158.37288 293.9661,167.59322 289.08475,173.55932 285.83051,179.52542 280.94915,182.77966 277.15254,183.86441 272.27119,184.40678 281.49153,192.54237 286.91525,196.33898 293.42373,197.9661 H 300.47458 L 310.77966,193.62712 320.54237,187.11864 325.42373,180.0678 335.72881,166.50847 343.32203,151.32203 358.50847,139.38983 368.27119,135.05085 376.40678,125.83051 381.83051,118.77966 383.45763,113.35593 379.66102,107.38983 376.40678,105.22034 370.44068,100.33898 367.18644,94.372881 362.84746,90.576271 358.50847,88.406779 H 352.54237 347.66102 344.40678 L 342.77966,97.084745 338.44068,101.42373 328.67797,106.30508 315.11864,107.9322 304.27119,111.18644 291.79661,116.61017 H 288 L 283.66102,117.15254 277.15254,117.69491 H 273.35593 L 269.55932,115.52542 265.76271,113.8983 H 263.05085 Z"
     id="path3795"
     inkscape:connector-curvature="0" />
  <path
     style="fill:#000000;stroke:#000000;stroke-width:1px;stroke-linecap:butt;stroke-linejoin:miter;stroke-opacity:1;fill-opacity:1"
     d="M 163.79661,225.62712 168.67797,233.76271 175.18644,237.55932 181.69492,241.8983 185.49153,246.23729 191.45763,250.0339 194.71186,254.37288 201.22034,260.88136 205.01695,266.30508 207.72881,270.10169 210.44068,275.52542 212.61017,282.0339 215.86441,290.16949 216.40678,298.84746 218.57627,308.0678 220.74576,317.28814 V 324.88136 L 221.83051,332.47458 221.28814,338.44068 V 352.54237 L 219.66102,361.76271 219.11864,369.8983 217.49153,372.61017 210.98305,376.40678 208.81356,380.20339 211.52542,387.25424 220.20339,401.35593 225.62712,412.20339 229.9661,417.62712 H 235.38983 L 239.18644,418.16949 242.44068,416.54237 244.61017,410.57627 V 403.52542 L 241.89831,396.47458 V 391.05085 L 240.27119,384.54237 239.18644,378.57627 V 374.77966 369.35593 L 240.27119,367.18644 244.0678,365.01695 250.57627,362.84746 256,357.9661 263.59322,355.79661 276.0678,352.54237 287.45763,350.91525 298.30509,346.57627 H 311.32203 323.25424 L 336.81356,349.28814 345.49153,351.45763 355.25424,352.54237 361.76271,353.62712 371.52542,355.79661 H 380.20339 L 392.13559,356.33898 400.81356,353.08475 405.69492,347.66102 406.77966,344.40678 406.23729,337.8983 404.0678,333.01695 399.72881,328.67797 394.30509,324.88136 389.9661,320.54237 387.25424,320 381.83051,316.74576 382.91525,309.69492 386.16949,302.10169 390.50847,288.54237 394.84746,273.8983 399.18644,261.9661 404.0678,252.74576 410.0339,244.61017 413.83051,239.18644 419.25424,235.9322 423.59322,232.13559 424.67797,228.33898 418.71186,219.11864 408.40678,214.23729 400.27119,206.64407 395.38983,200.13559 386.71186,196.33898 381.28814,194.16949 377.49153,193.08475 369.35593,194.16949 364.47458,201.76271 361.22034,207.72881 353.62712,214.77966 H 348.74576 L 335.72881,216.94915 323.25424,219.66102 310.77966,222.37288 301.01695,225.08475 284.74576,230.50847 274.98305,231.05085 259.79661,234.84746 248.94915,234.30508 242.98305,228.33898 239.18644,225.08475 231.59322,221.83051 233.22034,229.9661 238.1017,238.10169 241.89831,245.15254 247.32203,251.66102 252.74576,254.37288 260.33898,257.08475 268.47458,258.16949 277.69492,257.62712 281.49153,251.66102 288,248.40678 298.30509,247.86441 305.35593,248.40678 359.05085,238.64407 358.50847,255.45763 356.33898,260.88136 356.88136,270.64407 354.71186,286.37288 351.45763,310.23729 V 314.57627 L 341.15254,318.91525 328.13559,317.83051 315.11864,320.54237 297.22034,324.33898 242.98305,333.55932 240.81356,332.47458 241.89831,325.42373 239.72881,301.55932 236.47458,293.9661 235.9322,285.83051 232.67797,274.44068 237.01695,264.67797 V 253.83051 L 233.76271,247.86441 228.88136,244.61017 216.40678,238.10169 201.22034,233.22034 189.28814,228.88136 177.89831,226.16949 Z"
     id="path3797"
     inkscape:connector-curvature="0" />
</svg>
