<?xml version="1.0" encoding="UTF-8" standalone="no"?>
<!-- Created with Inkscape (http://www.inkscape.org/) -->

<svg
   xmlns:dc="http://purl.org/dc/elements/1.1/"
   xmlns:cc="http://creativecommons.org/ns#"
   xmlns:rdf="http://www.w3.org/1999/02/22-rdf-syntax-ns#"
   xmlns:svg="http://www.w3.org/2000/svg"
   xmlns="http://www.w3.org/2000/svg"
   xmlns:sodipodi="http://sodipodi.sourceforge.net/DTD/sodipodi-0.dtd"
   xmlns:inkscape="http://www.inkscape.org/namespaces/inkscape"
   version="1.1"
   id="svg3875"
   width="513"
   height="512"
   viewBox="0 0 513 512"
   sodipodi:docname="U+5F8B.svg"
   inkscape:version="0.92.4 (5da689c313, 2019-01-14)">
  <metadata
     id="metadata3881">
    <rdf:RDF>
      <cc:Work
         rdf:about="">
        <dc:format>image/svg+xml</dc:format>
        <dc:type
           rdf:resource="http://purl.org/dc/dcmitype/StillImage" />
        <dc:title />
      </cc:Work>
    </rdf:RDF>
  </metadata>
  <defs
     id="defs3879" />
  <sodipodi:namedview
     pagecolor="#ffffff"
     bordercolor="#666666"
     borderopacity="1"
     objecttolerance="10"
     gridtolerance="10"
     guidetolerance="10"
     inkscape:pageopacity="0"
     inkscape:pageshadow="2"
     inkscape:window-width="1920"
     inkscape:window-height="1017"
     id="namedview3877"
     showgrid="false"
     inkscape:zoom="1.3037281"
     inkscape:cx="96.596786"
     inkscape:cy="222.67526"
     inkscape:window-x="-8"
     inkscape:window-y="-8"
     inkscape:window-maximized="1"
     inkscape:current-layer="svg3875" />
  <path
     style="fill:#000000;stroke:#000000;stroke-width:1px;stroke-linecap:butt;stroke-linejoin:miter;stroke-opacity:1;fill-opacity:1"
     d="M 105.76271,35.254237 111.72881,41.762711 114.44068,43.932203 116.0678,47.728813 119.32203,53.152542 V 58.033898 65.084745 L 118.77966,69.423728 116.0678,74.305084 112.27119,79.18644 106.84746,87.322033 102.50847,91.118644 94.915254,98.169491 84.067797,106.30508 74.305085,112.27119 67.79661,114.44068 62.915254,117.15254 60.745763,118.77966 55.864407,120.40678 53.694915,126.91525 55.322034,130.71186 59.661017,129.08475 64.542373,124.74576 74.305085,120.94915 84.067797,116.0678 96.542373,110.10169 101.9661,106.30508 108.47458,103.05085 105.22034,113.35593 104.67797,117.69491 114.98305,110.64407 119.32203,105.22034 122.57627,100.33898 127.45763,96 135.59322,92.745762 139.9322,88.406779 142.1017,87.322033 143.18644,78.101694 141.01695,66.169491 V 62.372881 L 142.1017,58.033898 143.72881,52.881355 147.79661,48.813559 150.50847,42.57627 146.71186,36.610169 142.64407,31.457626 138.84746,26.033898 132.33898,21.694914 126.37288,22.237287 123.38983,24.406779 120.40678,23.864406 114.98305,23.59322 112,25.220338 109.01695,29.016948 107.9322,31.728813 Z"
     id="path3885"
     inkscape:connector-curvature="0" />
  <path
     style="fill:#000000;stroke:#000000;stroke-width:1px;stroke-linecap:butt;stroke-linejoin:miter;stroke-opacity:1;fill-opacity:1"
     d="M 101.42373,140.47458 99.254237,142.37288 98.711865,146.16949 C 98.711865,146.16949 98.711865,148.61017 99.79661,148.61017 100.88136,148.61017 102.77966,151.59322 102.77966,151.59322 L 105.22034,155.11864 106.57627,158.10169 105.76271,162.71186 104.94915,165.69491 102.77966,168.94915 100.0678,173.28814 96.542373,177.08475 93.016949,181.69491 87.864407,187.9322 82.440678,193.8983 77.559322,198.77966 72.949153,204.47458 68.067797,209.62712 62.644068,214.23729 56.949153,220.20339 48.813559,229.42373 42.576271,233.76271 37.152542,239.18644 32.271186,244.33898 28.474576,249.49153 21.966102,253.55932 15.186441,257.08475 9.7627119,260.33898 8.4067797,262.77966 6.779661,268.20339 5.6949153,272 12.20339,269.01695 21.966102,263.05085 38.779661,252.47458 58.033898,240 74.033898,224.27119 86.508475,212.33898 101.69492,200.94915 109.01695,192.54237 114.44068,186.57627 119.05085,184.67797 124.74576,180.88136 130.16949,179.79661 135.86441,179.25424 139.66102,174.37288 142.1017,164.88136 139.38983,158.64407 133.9661,152.13559 126.91525,146.71186 117.42373,142.37288 111.72881,139.11864 Z"
     id="path3887"
     inkscape:connector-curvature="0" />
  <path
     style="fill:#000000;stroke:#000000;stroke-width:1px;stroke-linecap:butt;stroke-linejoin:miter;stroke-opacity:1;fill-opacity:1"
     d="M 90.847458,222.91525 88.135593,225.08475 V 227.79661 L 91.118644,231.32203 94.372882,234.57627 98.169492,241.35593 99.254237,244.88136 100.61017,253.01695 100.0678,261.15254 98.983051,277.9661 98.440678,292.0678 96,305.62712 V 312.13559 L 96.542373,323.79661 95.457627,333.83051 92.745763,349.83051 90.033898,363.38983 90.847458,371.25424 89.220339,380.74576 91.389831,388.88136 94.101695,396.47458 97.355932,401.08475 104.94915,402.71186 109.01695,400.54237 112.27119,393.49153 112,385.08475 110.37288,378.84746 109.83051,371.52542 V 362.0339 L 109.01695,352.27119 108.20339,342.23729 109.01695,334.10169 111.72881,322.71186 113.08475,308.33898 115.25424,292.88136 117.69492,279.32203 119.32203,264.94915 120.94915,256 123.11864,251.11864 124.74576,246.77966 120.94915,241.08475 114.44068,235.11864 108.74576,230.50847 105.49153,228.61017 98.440678,225.35593 94.372882,223.18644 Z"
     id="path3889"
     inkscape:connector-curvature="0" />
  <path
     style="fill:#000000;stroke:#000000;stroke-width:1px;stroke-linecap:butt;stroke-linejoin:miter;stroke-opacity:1;fill-opacity:1"
     d="M 272.81356,0.81355851 272,10.305084 272.27119,20.881355 272.81356,28.745762 274.98305,37.966101 274.16949,50.169491 274.44068,63.999999 273.89831,73.491525 V 80.813559 L 273.62712,88.135593 272.54237,95.999999 V 98.440677 L 268.47458,100.61017 263.59322,100.88136 H 257.62712 L 248.67797,98.169491 243.52542,96.542372 240.81356,95.728813 238.1017,101.15254 238.64407,109.28813 244.88136,115.52542 250.84746,123.38983 256.27119,127.72881 261.9661,124.74576 275.52542,120.13559 275.25424,131.79661 275.52542,144.54237 276.88136,156.74576 277.42373,160.81356 269.55932,163.25424 257.62712,165.69491 241.62712,168.40678 220.47458,171.66102 199.59322,178.71186 173.83051,185.49152 163.52542,186.0339 160.81356,182.77966 V 180.88136 L 158.91525,179.79661 153.22034,177.62712 146.98305,180.88136 144.27119,184.13559 142.1017,188.20339 V 192 L 143.45763,196.61017 144.54237,201.76271 143.18644,206.37288 143.72881,211.79661 146.44068,218.0339 151.05085,220.47458 156.20339,222.10169 160.81356,219.9322 167.59322,215.05085 179.25424,206.64407 196.33898,198.23729 212.0678,191.72881 226.98305,186.57627 239.45763,182.77966 279.05085,173.01695 279.86441,180.61017 279.32203,188.74576 V 194.44068 L 279.59322,198.23729 267.9322,200.13559 255.72881,201.76271 239.45763,202.30508 233.76271,201.49152 231.32203,199.59322 228.61017,198.23729 226.71186,195.52542 221.28814,197.69491 218.57627,200.67797 216.13559,202.30508 212.0678,203.66102 210.44068,209.62712 215.05085,214.23729 219.11864,216.40678 221.55932,216.94915 223.45763,219.9322 225.08475,223.18644 224.27119,226.71186 222.64407,228.61017 219.9322,227.25424 222.64407,231.59322 228.61017,235.66102 233.49153,237.55932 235.11864,237.83051 238.37288,233.76271 243.79661,227.25424 250.0339,221.01695 257.08475,217.22034 264.94915,213.69491 268.74576,212.0678 273.08475,211.52542 276.61017,210.44068 279.86441,212.0678 280.67797,217.22034 V 238.64407 L 279.59322,243.79661 273.35593,245.69491 264.13559,249.22034 250.57627,252.74576 237.83051,255.72881 228.0678,258.44068 218.0339,258.16949 212.88136,260.0678 210.98305,263.59322 V 267.38983 L 213.9661,270.37288 218.57627,272.27119 224,276.0678 229.15254,277.9661 234.84746,278.23729 240.27119,276.88136 250.30509,271.45763 263.05085,264.13559 279.32203,258.71186 H 282.30509 L 281.22034,272.54237 V 280.13559 L 280.13559,288.54237 279.86441,290.98305 269.83051,290.71186 258.71186,294.50847 250.57627,296.67797 240,298.84746 226.71186,302.37288 196.61017,308.88136 190.91525,310.50847 182.50847,312.94915 179.79661,313.76271 176.81356,315.11864 H 171.9322 L 168.94915,312.40678 165.69492,310.77966 160.81356,309.42373 157.83051,307.52542 154.84746,307.25424 151.05085,306.44068 152.40678,313.76271 157.28814,320.27119 163.79661,325.15254 170.57627,331.38983 176.54237,338.44068 181.42373,341.9661 186.84746,344.13559 194.44068,343.05085 199.05085,339.79661 201.76271,336.27119 203.38983,331.11864 207.45763,327.86441 219.66102,321.62712 232.13559,318.37288 241.89831,316.74576 257.89831,311.86441 281.22034,306.44068 283.9322,306.71186 284.20339,314.57627 283.66102,327.86441 283.9322,339.52542 285.28814,348.74576 284.20339,364.74576 V 374.50847 L 286.1017,422.23729 288.27119,443.38983 288.54237,458.84746 288.27119,473.76271 285.55932,483.52542 283.11864,494.91525 281.76271,501.42373 281.49153,504.94915 H 274.44068 L 271.18644,509.28814 275.25424,512 297.76271,511.18644 299.38983,506.0339 298.0339,491.9322 302.64407,423.32203 303.72881,405.42373 304.27119,397.28814 306.44068,386.71186 V 379.38983 L 306.71186,368.81356 307.25424,361.49153 306.71186,354.16949 306.44068,346.30508 306.16949,339.25424 304.81356,331.38983 306.16949,324.88136 304,320.27119 302.64407,316.47458 V 310.50847 L 301.28814,305.8983 V 303.45763 L 310.77966,302.37288 340.88136,297.76271 359.05085,295.86441 370.71186,295.32203 385.62712,298.0339 398.64407,298.84746 408.94915,302.37288 422.50848,306.98305 432.54237,312.13559 441.76271,314.0339 448.54237,314.30508 456.94915,313.49153 462.1017,309.9661 461.28814,302.91525 457.76271,295.59322 455.32203,291.52542 450.16949,289.35593 442.30509,283.9322 433.08475,278.23729 427.11864,276.88136 423.05085,274.44068 417.35593,272 H 411.66102 L 403.25424,273.08475 393.76271,273.8983 368.54237,278.50847 299.38983,287.72881 V 255.45763 L 308.61017,253.55932 333.83051,246.77966 339.25424,245.9661 344.67797,247.32203 352,245.69491 H 363.38983 L 373.15254,242.98305 375.32203,239.18644 374.77966,235.9322 372.0678,233.49152 368.27119,232.13559 364.47458,230.77966 356.0678,229.9661 347.38983,229.69491 337.08475,232.13559 298.84746,241.62712 299.38983,210.71186 303.45763,207.72881 308.88136,206.10169 317.83051,203.9322 328.94915,200.67797 334.91525,198.23729 346.57627,197.9661 352.54237,196.61017 357.9661,195.52542 366.64407,197.69491 373.69492,195.52542 376.40678,192 374.23729,186.84746 371.52542,182.23729 367.45763,180.33898 362.84746,178.98305 357.69492,177.35593 353.35593,176.54237 H 349.01695 L 345.22034,178.44068 338.16949,182.50847 324.33898,187.11864 318.1017,189.55932 314.57627,185.49152 310.77966,183.59322 307.52542,184.13559 303.45763,186.57627 301.28814,186.30508 299.66102,179.25424 298.0339,170.57627 304.81356,167.32203 312.40678,165.42373 318.64407,164.61017 323.52542,163.25424 328.94915,164.0678 333.55932,164.33898 339.79661,167.32203 344.67797,166.77966 347.38983,167.32203 348.20339,162.98305 348.74576,159.45763 353.35593,158.10169 358.23729,156.74576 366.37288,155.11864 376.94915,153.76271 379.38983,155.9322 383.72881,156.74576 386.71187,154.84746 388.33898,152.67797 391.05085,152.40678 395.9322,152.13559 397.55932,154.30508 401.62712,155.11864 404.88136,154.30508 H 411.9322 L 418.98305,153.49152 425.49153,154.57627 434.44068,153.49152 442.57627,155.66102 450.71187,157.55932 462.1017,162.16949 482.16949,169.49152 493.01695,170.57627 500.61017,165.42373 503.59322,162.44068 501.15254,157.28814 498.98305,152.13559 495.72881,147.25424 490.30509,145.62712 445.83051,127.45763 439.86441,126.91525 436.88136,129.35593 434.44068,133.15254 432.27119,136.13559 427.38983,139.66102 419.25424,141.01695 363.9322,145.8983 365.83051,134.23729 368.27119,127.45763 370.98305,124.47458 373.42373,120.94915 378.30509,118.50847 385.08475,115.79661 391.05085,113.62712 395.38983,111.45763 396.20339,107.38983 395.38983,99.254237 394.0339,97.355932 390.50848,95.18644 385.62712,91.661016 376.67797,85.966101 368.81356,78.644067 363.38983,75.38983 356.0678,73.491525 347.9322,74.305084 343.86441,76.474576 342.50848,80.813559 340.33898,85.423728 338.98305,87.864406 317.28814,91.38983 299.38983,94.915254 294.77966,94.372881 296.40678,89.220338 297.76271,81.084745 297.49153,68.881355 298.0339,61.559321 298.84746,53.423728 298.57627,44.474576 297.76271,37.966101 V 31.457626 26.033898 L 299.9322,19.796609 302.64407,10.57627 305.08475,5.423728 305.62712,0.81355851 291.79661,-0.54237369 Z"
     id="path3891"
     inkscape:connector-curvature="0" />
  <path
     style="fill:none;stroke:#000000;stroke-width:1px;stroke-linecap:butt;stroke-linejoin:miter;stroke-opacity:1;fill-opacity:1"
     d="M 295.32203,117.69491 296.13559,157.83051 297.22034,158.91525 298.30509,159.18644 H 299.11864 L 337.35593,149.42373 334.37288,131.25424 334.91525,127.45763 336,124.20339 336.81356,119.86441 335.45763,116.88136 332.20339,113.08475 330.84746,110.10169 329.22034,108.74576 Z"
     id="path3895"
     inkscape:connector-curvature="0" />
</svg>
