<?xml version="1.0" encoding="UTF-8" standalone="no"?>
<!-- Created with Inkscape (http://www.inkscape.org/) -->

<svg
   xmlns:dc="http://purl.org/dc/elements/1.1/"
   xmlns:cc="http://creativecommons.org/ns#"
   xmlns:rdf="http://www.w3.org/1999/02/22-rdf-syntax-ns#"
   xmlns:svg="http://www.w3.org/2000/svg"
   xmlns="http://www.w3.org/2000/svg"
   xmlns:sodipodi="http://sodipodi.sourceforge.net/DTD/sodipodi-0.dtd"
   xmlns:inkscape="http://www.inkscape.org/namespaces/inkscape"
   version="1.1"
   id="svg3851"
   width="513"
   height="512"
   viewBox="0 0 513 512"
   sodipodi:docname="U+5F80.svg"
   inkscape:version="0.92.4 (5da689c313, 2019-01-14)">
  <metadata
     id="metadata3857">
    <rdf:RDF>
      <cc:Work
         rdf:about="">
        <dc:format>image/svg+xml</dc:format>
        <dc:type
           rdf:resource="http://purl.org/dc/dcmitype/StillImage" />
        <dc:title />
      </cc:Work>
    </rdf:RDF>
  </metadata>
  <defs
     id="defs3855">
    <inkscape:path-effect
       effect="bspline"
       id="path-effect3865"
       is_visible="true"
       weight="33.333333"
       steps="2"
       helper_size="0"
       apply_no_weight="true"
       apply_with_weight="true"
       only_selected="false" />
  </defs>
  <sodipodi:namedview
     pagecolor="#ffffff"
     bordercolor="#666666"
     borderopacity="1"
     objecttolerance="10"
     gridtolerance="10"
     guidetolerance="10"
     inkscape:pageopacity="0"
     inkscape:pageshadow="2"
     inkscape:window-width="1920"
     inkscape:window-height="1017"
     id="namedview3853"
     showgrid="false"
     inkscape:zoom="0.921875"
     inkscape:cx="127.29553"
     inkscape:cy="309.50762"
     inkscape:window-x="-8"
     inkscape:window-y="-8"
     inkscape:window-maximized="1"
     inkscape:current-layer="svg3851" />
  <path
     style="fill:#000000;stroke:#000000;stroke-width:1px;stroke-linecap:butt;stroke-linejoin:miter;stroke-opacity:1;fill-opacity:1"
     d="M 69.799829,119.28008 79.004202,124.6493 86.674513,130.01852 95.111855,138.45586 95.878886,143.82508 94.344823,146.12617 103.5492,148.42727 H 112.75357 L 124.25904,146.8932 131.16232,140.75695 129.62825,134.62071 125.02607,128.48446 115.82169,120.81415 109.68545,116.21196 105.85029,113.91087 101.2481,111.60977 95.111855,110.07571 H 89.742637 L 82.839357,112.3768 74.402015,113.91087 Z"
     id="path3861"
     inkscape:connector-curvature="0" />
  <path
     style="fill:#000000;stroke:#000000;stroke-width:1px;stroke-linecap:butt;stroke-linejoin:miter;stroke-opacity:1;fill-opacity:1"
     d="m 68.905791,282.14545 c -1.917944,2.30078 -3.196332,5.62459 -3.256885,8.09752 -0.06055,2.47292 1.33834,4.43137 3.256267,6.09353 1.917927,1.66217 4.474428,3.19607 6.788339,4.30823 2.31391,1.11217 4.845352,1.95598 6.890735,2.3394 2.045383,0.38341 3.835589,0.38341 6.008178,-0.63916 2.172589,-1.02258 4.730789,-3.06914 6.239735,-5.24695 1.508945,-2.17781 2.069665,-4.98141 1.873002,-6.93756 -0.196663,-1.95614 -1.337786,-3.66783 -2.616038,-5.45738 -1.278253,-1.78955 -2.812543,-3.83527 -4.861494,-5.09099 -2.048951,-1.25571 -5.109097,-1.8121 -7.410337,-2.06785 -2.301241,-0.25575 -4.090476,-0.25575 -6.264346,0.3835 -2.173869,0.63925 -4.729211,1.91692 -6.647156,4.21771 z"
     id="path3863"
     inkscape:connector-curvature="0"
     inkscape:path-effect="#path-effect3865"
     inkscape:original-d="M 68.265767,281.12364 C 66.988381,284.44644 65.709996,287.77025 64.430611,291.09505 65.71046,292.62867 66.988381,294.67353 68.265767,296.46427 70.823807,297.99749 73.380307,299.53139 75.936077,301.06645 77.982258,301.83239 80.539264,302.59951 82.839357,303.36754 84.62963,303.36654 86.419836,303.36654 88.208575,303.36754 90.764916,301.32227 93.323115,299.27571 95.878886,297.2313 96.39102,294.93019 96.902594,292.11676 97.412948,289.56099 96.391701,288.28218 95.368532,286.49186 94.344823,284.9588 92.811992,282.91269 91.277699,280.86697 89.742637,278.82255 87.187067,278.31024 84.118742,277.79884 81.305295,277.28849 79.516052,277.28749 77.726817,277.28749 75.936077,277.28849 73.378879,278.56659 70.823537,279.84426 68.265767,281.12364 Z" />
  <path
     style="fill:#000000;stroke:#000000;stroke-width:1px;stroke-linecap:butt;stroke-linejoin:miter;stroke-opacity:1;fill-opacity:1"
     d="M 33.749368,248.90834 31.448274,257.34568 32.982337,261.94787 36.050461,263.48193 40.652648,265.78302 44.487803,268.85115 48.322958,272.6863"
     id="path3869"
     inkscape:connector-curvature="0" />
  <path
     style="fill:#000000;stroke:#000000;stroke-width:1px;stroke-linecap:butt;stroke-linejoin:miter;stroke-opacity:1;fill-opacity:1"
     d="M 48.322958,272.6863 54.508475,276.33898 60.474576,277.9661 63.457627,279.05085 59.932203,282.57627 57.220339,286.37288 56.677966,292.88136 57.762712,296.13559 59.661017,299.11864 62.372881,301.55932 65.355932,304.81356 68.067797,305.62712 70.508475,307.79661 74.847458,308.88136 78.644068,310.77966 H 83.525424 L 86.508475,309.69491 82.983051,327.32203 80.813559,336.81356 77.830509,344.40678 73.762712,354.16949 68.338983,365.83051 63.457627,377.49153 56.40678,384.27119 50.711864,387.52542 43.661017,388.33898 37.966102,388.88136 32.813559,389.15254 26.847458,388.33898 H 21.152542 L 18.169492,388.61017 20.881356,393.49153 31.728814,398.37288 39.59322,402.44068 45.830509,404.88136 49.898305,405.9661 54.508475,403.52542 61.016949,399.72881 66.983051,394.57627 72.40678,386.98305 76.20339,378.84746 82.169492,371.52542 87.050848,361.22034 92.20339,349.83051 96.271187,337.62712 101.15254,322.71186 102.50847,314.84746 101.15254,306.44068 100.61017,300.74576 100.88136,298.0339 103.05085,295.32203 105.22034,292.61017 V 289.08475 L 101.42373,286.37288 100.0678,280.67797 95.728814,277.15254 91.932204,274.71186 89.762712,272.81356 88.677966,268.74576 83.525424,263.59322 78.372881,259.79661 74.305085,258.16949 65.627119,256 56.40678,253.83051 46.644068,252.47458 37.966102,250.0339 33.749368,248.90834 31.448274,257.34568 32.982337,261.94787 40.652648,265.78302 Z"
     id="path3871"
     inkscape:connector-curvature="0" />
  <path
     style="fill:#000000;stroke:#000000;stroke-width:1px;stroke-linecap:butt;stroke-linejoin:miter;stroke-opacity:1;fill-opacity:1"
     d="M 246.50847,56.949152 245.9661,62.372881 249.76271,64.542372 255.72881,69.152542 261.15254,72.949152 264.94915,77.559321 269.83051,82.98305 277.69492,90.305084 285.01695,98.711864 288.27119,104.13559 290.16949,113.8983 V 124.74576 L 288.81356,137.76271 287.18644,154.0339 V 164.0678 L 272,168.67797 264.40678,172.47458 249.22034,176.54237 237.01695,180.33898 229.15254,179.52542 223.45763,177.35593 220.47458,175.18644 216.94915,171.38983 211.52542,170.57627 208.81356,173.01695 205.55932,178.44068 203.66102,187.11864 207.18644,193.62712 211.79661,197.15254 216.40678,199.05085 220.20339,208 224.54237,213.15254 229.15254,215.86441 235.9322,213.15254 244.33898,208 286.91525,192 285.28814,266.57627 238.1017,276.88136 234.30509,276.61017 227.79661,275.25424 222.91525,271.45763 218.57627,269.55932 216.13559,276.0678 216.67797,283.38983 221.01695,289.35593 229.9661,295.05085 236.47458,297.76271 244.61017,301.83051 250.0339,302.91525 254.91525,302.10169 258.71186,299.38983 259.79661,296.94915 267.38983,293.42373 287.45763,286.64407 289.89831,347.66102 275.25424,349.28814 256,352.27119 239.72881,353.62712 226.98305,355.25424 219.38983,352.81356 212.33898,352.27119 208.54237,352 205.01695,359.05085 203.9322,365.28814 208.54237,370.71186 214.23729,376.67797 219.11864,381.28814 226.44068,383.18644 234.30509,381.28814 242.16949,376.94915 253.01695,372.88136 289.08475,366.64407 297.22034,365.55932 303.45763,364.47458 311.86441,365.55932 320.54237,365.28814 330.0339,364.47458 340.88136,366.64407 H 349.28814 L 358.23729,369.35593 H 369.89831 379.38983 L 390.50848,365.01695 393.22034,359.59322 390.23729,354.71186 385.08475,348.20339 378.30509,343.86441 367.72881,338.16949 362.0339,334.91525 357.15254,337.35593 341.9661,338.16949 328.40678,341.42373 313.49153,342.50847 306.44068,344.13559 314.0339,308.33898 314.30509,301.01695 V 296.13559 L 313.76271,284.74576 312.94915,280.94915 318.64407,280.13559 325.42373,277.42373 336,274.44068 345.49153,271.18644 351.72881,268.20339 349.55932,262.23729 346.30509,256.81356 342.23729,255.45763 335.72881,255.18644 327.59322,256.54237 321.89831,259.79661 314.30509,262.50847 312.94915,189.83051 314.0339,186.57627 318.64407,185.22034 326.77966,183.86441 335.72881,182.77966 347.66102,179.52542 357.42373,174.91525 365.83051,170.57627 370.98305,167.05085 371.52542,161.8983 366.91525,156.20339 360.40678,152.13559 355.25424,151.05085 350.37288,147.79661 343.05085,149.42373 336.27119,152.67797 329.49153,155.38983 320.27119,157.01695 318.1017,154.84746 318.64407,150.50847 322.16949,140.74576 330.57627,115.25424 330.30509,108.20339 328.67797,103.05085 325.15254,94.372881 318.37288,84.338982 310.77966,75.932203 299.9322,68.610169 286.64407,61.559321 272.81356,57.491525 260.33898,53.694915 251.9322,55.864406 Z"
     id="path3873"
     inkscape:connector-curvature="0" />
</svg>
