<?xml version="1.0" encoding="UTF-8" standalone="no"?>
<!-- Created with Inkscape (http://www.inkscape.org/) -->

<svg
   xmlns:dc="http://purl.org/dc/elements/1.1/"
   xmlns:cc="http://creativecommons.org/ns#"
   xmlns:rdf="http://www.w3.org/1999/02/22-rdf-syntax-ns#"
   xmlns:svg="http://www.w3.org/2000/svg"
   xmlns="http://www.w3.org/2000/svg"
   xmlns:sodipodi="http://sodipodi.sourceforge.net/DTD/sodipodi-0.dtd"
   xmlns:inkscape="http://www.inkscape.org/namespaces/inkscape"
   version="1.1"
   id="svg4015"
   width="513"
   height="512"
   viewBox="0 0 513 512"
   sodipodi:docname="U+6B72.svg"
   inkscape:version="0.92.4 (5da689c313, 2019-01-14)">
  <metadata
     id="metadata4021">
    <rdf:RDF>
      <cc:Work
         rdf:about="">
        <dc:format>image/svg+xml</dc:format>
        <dc:type
           rdf:resource="http://purl.org/dc/dcmitype/StillImage" />
        <dc:title />
      </cc:Work>
    </rdf:RDF>
  </metadata>
  <defs
     id="defs4019" />
  <sodipodi:namedview
     pagecolor="#ffffff"
     bordercolor="#666666"
     borderopacity="1"
     objecttolerance="10"
     gridtolerance="10"
     guidetolerance="10"
     inkscape:pageopacity="0"
     inkscape:pageshadow="2"
     inkscape:window-width="1920"
     inkscape:window-height="1017"
     id="namedview4017"
     showgrid="false"
     inkscape:zoom="0.92187502"
     inkscape:cx="281.93721"
     inkscape:cy="323.83502"
     inkscape:window-x="-8"
     inkscape:window-y="-8"
     inkscape:window-maximized="1"
     inkscape:current-layer="svg4015" />
  <path
     style="fill:#000000;stroke:#000000;stroke-width:1px;stroke-linecap:butt;stroke-linejoin:miter;stroke-opacity:1;fill-opacity:1"
     d="M 182.5534,37.207758 V 46.795647 L 182.16988,53.698926 187.5391,55.616504 192.90832,60.218691 196.35996,64.053846 197.5105,67.12197 198.66105,71.724157 195.59293,83.996654 193.67535,92.433996 192.5248,101.63837 191.75777,110.07571 V 114.6779 120.81415 L 192.90832,123.49876 193.67535,126.18336 194.44238,129.635 193.29183,130.78555 H 187.92262 L 180.63582,132.70313 169.89739,135.38774 156.85786,139.98992 152.25567,138.83938 144.20184,134.23719 139.98317,131.16907 V 126.56688 L 144.96888,120.81415 141.51724,113.91087 137.68208,108.54165 130.01177,101.25485 122.34146,94.351574 112.75357,89.365872 103.16568,87.064779 98.563495,91.283449 104.31623,99.337276 108.15138,105.09001 113.90412,111.60977 116.20521,116.59548 112.75357,125.41633 108.91841,131.9361 103.93271,140.75695 98.563495,149.1943 91.660215,156.48109 85.907482,161.08328 80.538264,162.23382 86.290997,168.37007 92.427246,167.98656 99.330526,163.76789 110.06896,155.71406 118.12279,148.04375 126.17661,141.14047 129.24474,140.37344 132.69638,143.82508 134.99747,148.04375 138.44911,150.72836 139.98317,154.56351 140.7502,159.54922 144.20184,161.08328 H 144.96888 L 149.18755,164.53492 156.47434,165.30195 160.3095,158.78219 167.21278,156.09758 178.33473,152.26242 189.07316,149.1943 197.12699,148.42727 193.67535,155.33055 190.60722,165.30195 196.35996,167.60304 202.49621,171.82171 209.01597,176.80742 215.53574,186.01179 220.52144,191.76452 223.97308,202.11944 217.83683,207.10514 211.70058,210.9403 200.57863,214.77545 189.07316,220.14467 173.73254,226.66444 161.84356,231.65014 149.57106,236.25232 H 144.58536 L 140.7502,234.33475 139.21614,231.65014 136.14802,230.88311 131.92935,231.65014 128.47771,238.55342 V 243.53912 L 133.84692,249.29185 138.0656,253.89404 141.90075,256.19513 H 144.58536 L 148.42052,253.89404 152.63919,248.14131 160.69301,246.60724 179.10176,240.471 195.20941,235.10178 210.16652,228.1985 223.20605,222.06225 228.19175,219.76116 232.79393,220.14467 237.01261,224.74686 239.3137,231.26662 245.83346,238.93693 255.03784,251.20943 265.39276,262.33138 279.19932,284.57528 288.7872,299.14887 296.074,308.73676 293.38939,311.80489 290.32127,312.1884 289.93775,318.70817 290.32127,322.15981 293.38939,325.61145 297.99158,327.14551 301.44322,327.52902 296.84103,339.41801 287.63666,357.44324 274.59713,374.70144 263.47518,387.35745 251.5862,397.32885 238.16315,408.4508 229.72581,414.20354 225.89065,416.12111 227.42472,418.80572 237.39612,417.27166 250.81917,408.83432 269.99494,395.41127 287.25314,381.98823 298.37509,370.48276 307.57947,360.51136 312.18165,353.9916 314.48275,352.84105 317.93439,358.21027 326.75524,369.71573 333.27501,377.38604 348.61563,398.86291 366.25734,424.17494 384.28257,444.11775 400.77374,464.44407 414.96382,475.56602 429.15389,483.23633 439.1253,484.7704 444.87803,484.00337 452.93186,472.4979 460.98568,448.71994 471.72412,413.05299 479.39443,391.57612 480.92849,380.45417 481.69552,378.15308 472.87466,392.34315 458.30107,406.14971 439.50881,423.02439 419.94952,434.14634 411.89569,436.06392 403.84187,430.31119 385.81664,417.27166 358.20352,385.82339 324.45415,344.78722 325.22118,337.88394 330.97391,329.06309 337.87719,314.87301 342.09586,298.38184 348.99914,278.05552 355.51891,268.08411 359.35406,266.16654 361.65516,263.48193 353.60133,257.7292 346.31454,247.37428 337.87719,243.1556 326.75524,237.40287 314.86626,237.01936 306.42892,235.10178 309.11353,240.85451 317.93439,246.60724 324.45415,254.27756 327.13876,260.79732 309.11353,309.50379 300.67619,299.53239 288.40369,274.98739 276.13119,254.27756 263.09166,230.49959 256.5719,220.14467 250.43565,211.70733 268.8444,204.03702 288.7872,200.58538 295.69048,197.51725 V 193.29858 L 289.55423,187.54585 283.03447,183.7107 276.51471,181.02609 H 269.61143 L 263.09166,183.32718 258.48948,187.16234 248.90159,191.76452 245.83346,194.06561 242.38182,190.99749 237.77964,187.54585 230.10933,184.47773 223.97308,178.34148 218.60386,171.82171 215.91925,166.83601 215.15222,162.23382 218.22034,159.54922 223.20605,155.71406 227.42472,153.02945 226.65769,151.11187 C 226.65769,151.11187 219.37089,147.66023 223.58956,149.1943 227.80823,150.72836 212.0841,146.8932 212.0841,146.8932 L 209.783,144.20859 216.68628,143.44156 225.50714,140.75695 241.23128,139.60641 251.96971,137.68883 H 260.40705 L 254.65432,143.82508 251.5862,146.12617 250.81917,149.1943 248.51807,154.56351 266.15979,148.04375 271.91252,142.29102 276.13119,138.83938 279.19932,134.23719 286.10259,129.25149 291.0883,126.56688 299.52564,122.34821 309.11353,114.6779 319.08493,107.00759 325.98821,101.25485 324.07063,93.968058 318.70142,87.448294 311.79814,80.92853 299.14212,69.806579 291.47181,65.204393 284.18502,64.437362 280.73338,67.12197 278.04877,70.957126 276.51471,74.02525 272.67955,77.47689 278.8158,78.627437 284.95205,77.47689 290.70478,82.846108 294.92345,86.681263 295.30697,90.516418 291.47181,97.036183 288.7872,102.78892 284.18502,109.30868 280.34986,114.29438 276.89822,118.51305 274.98064,122.34821 269.61143,118.89657 261.5576,116.97899 245.44995,119.6636 205.94785,127.71743 207.48191,118.89657 222.0555,75.942828 225.12362,67.889001 224.74011,63.67033 220.52144,58.301113 204.03027,37.591274 195.59293,32.222056 190.60722,30.687994 H 187.15558 Z"
     id="path4025"
     inkscape:connector-curvature="0" />
  <path
     style="fill:#000000;stroke:#000000;stroke-width:1px;stroke-linecap:butt;stroke-linejoin:miter;stroke-opacity:1;fill-opacity:1"
     d="M 97.029432,193.6821 93.194277,195.98319 87.441544,200.58538 84.756935,205.9546 81.688811,211.32381 V 216.69303 220.9117 L 87.058028,226.66444 92.427246,233.1842 97.412948,242.00506 101.2481,248.90834 101.63162,263.86544 96.262401,308.35325 93.194277,319.09168 88.59209,338.65097 82.072326,358.59378 74.785531,372.78386 66.348189,385.43987 55.609754,393.87721 44.871319,399.24643 29.147181,403.4651 18.025231,405.38268 4.218671,406.53323 H 0.76703109 L 4.6021865,413.82002 18.025231,415.7376 34.899914,415.35408 54.459207,409.60135 64.047096,406.53323 74.785531,398.86291 83.606388,392.72667 89.359121,382.37175 95.111855,370.09925 99.330526,350.15644 104.69974,334.4323 108.91841,312.95543 110.83599,297.2313 111.21951,284.9588 114.28763,271.15224 115.43818,256.57865 V 240.85451 L 112.37005,229.34904 103.16568,222.82928 96.645917,214.77545 93.577792,212.85788 95.878886,205.57108 98.94701,199.05132 Z"
     id="path4027"
     inkscape:connector-curvature="0" />
  <path
     style="fill:#000000;stroke:#000000;stroke-width:1px;stroke-linecap:butt;stroke-linejoin:miter;stroke-opacity:1;fill-opacity:1"
     d="M 167.59629,264.24896 167.21278,272.6863 171.81496,274.98739 179.10176,280.74013 179.48527,283.80825 179.10176,287.25989 168.74684,290.32802 151.48864,296.46426 139.59966,299.9159 133.84692,297.61481 128.09419,296.46426 H 124.64255 L 125.40958,301.83348 133.07989,308.35325 139.98317,315.25653 146.50294,317.94114 153.0227,319.85871 161.07653,319.09168 168.36332,313.72246 174.11606,308.73676 180.25231,308.35325 181.40285,311.80489 181.78637,319.85871 182.5534,329.06309 183.70395,344.02019 184.08746,366.26409 184.85449,376.2355 184.47098,381.60472 181.40285,383.52229 177.5677,382.37175 172.19848,381.60472 164.91168,380.07065 160.3095,377.00253 152.25567,371.63331 146.11942,367.41464 147.65348,360.89488 144.96888,357.44324 142.66778,347.85535 138.44911,341.33558 137.29856,336.7334 H 136.14802 L 131.54583,344.40371 124.64255,355.90917 120.8074,381.98823 126.17661,388.508 130.7788,390.42557 136.53153,391.95964 140.36669,387.74096 142.66778,380.83768 147.65348,376.2355 152.63919,380.45417 156.47434,388.508 159.54247,392.34315 166.44575,396.94534 173.34903,408.83432 178.33473,418.03869 180.25231,424.55846 187.5391,427.62658 193.29183,426.85955 196.74347,422.25736 200.57863,418.03869 201.34566,411.13541 199.8116,395.79479 196.35996,377.38604 194.44238,349.00589 195.59293,325.22793 196.74347,309.12028 200.19511,299.9159 203.26324,296.84778 211.31706,294.16317 219.75441,290.32802 227.42472,288.79395 235.09503,285.34231 243.91589,282.27419 248.13456,277.672 239.69721,270.00169 232.79393,267.31708 H 228.95878 L 224.35659,269.61818 219.37089,271.91927 215.91925,274.22036 214.38519,276.52146 212.0841,275.37091"
     id="path4029"
     inkscape:connector-curvature="0" />
  <path
     style="fill:#000000;stroke:#000000;stroke-width:1px;stroke-linecap:butt;stroke-linejoin:miter;stroke-opacity:1;fill-opacity:1"
     d="M 212.0841,275.37091 206.71488,269.61818 199.42808,265.78302 189.84019,261.56435 183.32043,259.64677 176.41715,257.34568 173.73254,260.4138 167.59629,264.24896"
     id="path4031"
     inkscape:connector-curvature="0" />
  <path
     style="fill:#000000;stroke:#000000;stroke-width:1px;stroke-linecap:butt;stroke-linejoin:miter;stroke-opacity:1;fill-opacity:1"
     d="M 206.71488,332.13121 214.7687,336.7334 221.67198,341.7191 233.56097,352.07402 241.99831,361.27839 246.60049,364.73003 253.12026,366.26409 263.85869,362.81245 267.31033,360.51136 266.5433,354.37511 262.70815,345.17074 254.65432,337.88394 240.84776,333.28176 227.80823,329.06309 222.43901,327.52902 217.83683,328.67957 Z"
     id="path4033"
     inkscape:connector-curvature="0" />
  <path
     style="fill:#000000;stroke:#000000;stroke-width:1px;stroke-linecap:butt;stroke-linejoin:miter;stroke-opacity:1;fill-opacity:1"
     d="M 297.60806,138.07235 300.29267,148.04375 306.0454,157.24812 310.64759,167.60304 318.3179,176.04038 321.00251,182.94366 V 188.6964 L 320.23548,192.91507 319.46845,196.75022 320.61899,200.20186 328.2893,193.29858 335.95962,179.87554 340.17829,172.20523 342.8629,165.68546 V 158.01515 L 335.5761,153.41297 327.13876,149.57781 315.63329,143.05805 304.51134,137.30531 Z"
     id="path4035"
     inkscape:connector-curvature="0" />
</svg>
