<?xml version="1.0" encoding="UTF-8" standalone="no"?>
<!-- Created with Inkscape (http://www.inkscape.org/) -->

<svg
   xmlns:dc="http://purl.org/dc/elements/1.1/"
   xmlns:cc="http://creativecommons.org/ns#"
   xmlns:rdf="http://www.w3.org/1999/02/22-rdf-syntax-ns#"
   xmlns:svg="http://www.w3.org/2000/svg"
   xmlns="http://www.w3.org/2000/svg"
   xmlns:sodipodi="http://sodipodi.sourceforge.net/DTD/sodipodi-0.dtd"
   xmlns:inkscape="http://www.inkscape.org/namespaces/inkscape"
   version="1.1"
   id="svg4091"
   width="513"
   height="512"
   viewBox="0 0 513 512"
   sodipodi:docname="U+85CF.svg"
   inkscape:version="0.92.4 (5da689c313, 2019-01-14)">
  <metadata
     id="metadata4097">
    <rdf:RDF>
      <cc:Work
         rdf:about="">
        <dc:format>image/svg+xml</dc:format>
        <dc:type
           rdf:resource="http://purl.org/dc/dcmitype/StillImage" />
        <dc:title />
      </cc:Work>
    </rdf:RDF>
  </metadata>
  <defs
     id="defs4095" />
  <sodipodi:namedview
     pagecolor="#ffffff"
     bordercolor="#666666"
     borderopacity="1"
     objecttolerance="10"
     gridtolerance="10"
     guidetolerance="10"
     inkscape:pageopacity="0"
     inkscape:pageshadow="2"
     inkscape:window-width="1920"
     inkscape:window-height="1017"
     id="namedview4093"
     showgrid="false"
     inkscape:zoom="1.3037281"
     inkscape:cx="-15.375775"
     inkscape:cy="253.11334"
     inkscape:window-x="-8"
     inkscape:window-y="-8"
     inkscape:window-maximized="1"
     inkscape:current-layer="svg4091" />
  <path
     style="fill:#000000;stroke:#000000;stroke-width:1px;stroke-linecap:butt;stroke-linejoin:miter;stroke-opacity:1;fill-opacity:1"
     d="M 141.55932,48.813559 136.13559,53.152542 V 59.118644 L 138.30508,64 144.81356,68.338983 148.61017,74.305084 152.94915,80.813559 155.11864,84.067796 158.37288,90.576271 161.08475,98.169491 161.62712,101.9661"
     id="path4101"
     inkscape:connector-curvature="0" />
  <path
     style="fill:#000000;stroke:#000000;stroke-width:1px;stroke-linecap:butt;stroke-linejoin:miter;stroke-opacity:1;fill-opacity:1"
     d="M 161.62712,101.9661 152.40678,109.55932 146.44068,110.64407 H 141.01695 L 130.71186,111.72881 121.49153,112.27119 115.52542,111.72881 109.55932,113.8983 111.18644,119.86441 118.23729,124.74576 125.28814,130.71186 132.33898,135.05085 139.38983,139.38983 149.69492,135.05085 161.62712,123.11864 171.38983,118.77966 176.81356,137.76271 184.94915,150.50847 194.16949,154.57627 199.32203,155.38983 203.9322,148.88136 206.1017,133.42373 203.66102,115.52542 198.77966,106.84746 199.05085,104.13559 201.76271,103.32203 203.9322,97.355932 200.13559,96.271186 192.27119,95.457626 188.74576,93.559321 187.38983,90.033898 181.9661,82.98305 176,78.101694 169.22034,75.661016 167.32203,70.237287 161.08475,64.813559 156.20339,60.203389 152.94915,55.050847 149.42373,49.898304 149.15254,47.999999 141.55932,48.813559"
     id="path4103"
     inkscape:connector-curvature="0" />
  <path
     style="fill:#000000;stroke:#000000;stroke-width:1px;stroke-linecap:butt;stroke-linejoin:miter;stroke-opacity:1;fill-opacity:1"
     d="M 242.98305,0.81355851 243.79661,4.0677958 247.59322,7.0508467 251.38983,10.57627 254.91525,11.932203 258.44068,13.288135 255.45763,26.57627 251.11864,57.220338 245.15254,91.661016 237.28814,118.77966 226.98305,141.01695 215.59322,159.18644 210.16949,162.71186 209.62712,159.45763 209.08475,158.10169 204.74576,168.94915 200.40678,177.35593 203.11864,183.59322 H 208.81356 L 214.23729,179.25424 217.22034,174.64407 223.72881,166.77966 229.9661,151.86441 246.77966,128.81356 255.45763,109.28813 258.98305,107.38983 264.94915,109.83051 272,112.54237 277.9661,113.8983 286.91525,112.54237 293.9661,111.72881 303.18644,109.28813 317.83051,105.76271 338.98305,100.0678 350.37288,94.644067 351.72881,92.203389 356.61017,91.38983 360.67797,83.525423 357.15254,78.372881 353.08475,74.847457 351.45763,73.762711 349.01695,69.694915 345.76271,66.711864 341.42373,64.813559 337.89831,65.355931 331.9322,68.881355 327.32203,73.220338 322.44068,75.932203 302.91525,82.169491 267.9322,91.661016 274.44068,69.423728 284.20339,42.57627 289.62712,20.610169 292.33898,6.5084738 294.50848,0.27118563 Z"
     id="path4105"
     inkscape:connector-curvature="0" />
  <path
     style="fill:#000000;stroke:#000000;stroke-width:1px;stroke-linecap:butt;stroke-linejoin:miter;stroke-opacity:1;fill-opacity:1"
     d="M 381.28814,129.8983 380.20339,133.42373 378.30509,136.94915 378.84746,139.38983 383.72881,139.66102 387.79661,141.01695 394.0339,144.27119 400.27119,147.25424 405.69492,150.50847 412.20339,155.11864 419.52542,159.45763 428.74576,161.35593 436.33898,161.8983 440.13559,160.54237 443.38983,156.47458 443.11864,152.40678 441.49153,150.77966 438.50848,146.71186 435.25424,141.83051 431.72881,139.11864 427.9322,137.22034 423.05085,134.77966 415.45763,131.79661 406.50848,128.81356 399.72881,128 394.84746,126.91525 390.23729,126.64407 387.52542,127.45763 Z"
     id="path4107"
     inkscape:connector-curvature="0" />
  <path
     style="fill:#000000;stroke:#000000;stroke-width:1px;stroke-linecap:butt;stroke-linejoin:miter;stroke-opacity:1;fill-opacity:1"
     d="M 262.23729,131.79661 259.52542,139.9322 258.44068,144.54237 260.88136,150.50847 263.59322,158.10169 266.57627,162.16949 270.1017,168.40678 272.81356,172.47458 267.11864,173.01695 249.49153,175.72881 225.08475,180.88136 176.27119,187.66102 132.33898,196.61017 104.13559,201.76271 87.864407,197.42373 82.711865,196.33898 78.644068,198.77966 78.101695,206.91525 88.135593,217.49152 103.32203,230.50847 112.54237,232.67797 121.49153,226.44068 129.08475,218.57627 143.18644,212.61017 179.79661,203.38983 221.55932,193.35593 265.22034,181.15254 276.33898,181.42373 283.38983,180.61017 289.08475,193.8983 308.88136,239.18644 319.18644,265.49153 326.77966,281.22034 336.54237,300.20339 349.83051,321.8983 353.89831,327.32203 369.08475,346.84746 388.0678,373.9661 420.0678,410.57627 490.57627,475.11864 500.0678,488.40678 500.33898,493.28814 506.0339,496.81356 512.54237,498.98305 512,461.01695 504.40678,457.49153 498.16949,452.88136 484.0678,443.38983 459.9322,424.40678 433.08475,401.08475 411.9322,379.9322 386.98305,352.54237 375.05085,336.81356 384.54237,319.45763 390.77966,302.37288 395.66102,279.59322 399.72881,258.98305 402.98305,236.74576 403.52542,217.76271 405.9661,207.18644 402.44068,197.9661 396.47458,191.18644 391.32203,187.66102 384.81356,185.49152 381.55932,184.67797 V 190.37288 L 385.62712,196.0678 387.52542,215.32203 387.25424,227.79661 385.35593,241.8983 383.18644,254.64407 377.76271,273.08475 372.88136,294.23729 366.91525,304.81356 361.22034,312.94915 356.33898,307.79661 346.0339,289.35593 334.1017,251.11864 319.45763,214.77966 310.50848,188.20339 305.89831,175.72881 311.05085,173.55932 321.62712,174.37288 341.69492,173.55932 366.37288,175.45763 378.0339,174.37288 379.11864,166.77966 372.0678,161.08475 360.67797,156.74576 349.83051,152.40678 344.94915,153.49152 338.16949,158.64407 305.89831,167.05085 296.40678,150.77966 288.54237,140.74576 274.98305,130.16949 267.9322,126.10169 263.86441,127.18644 Z"
     id="path4109"
     inkscape:connector-curvature="0" />
  <path
     style="fill:#000000;stroke:#000000;stroke-width:1px;stroke-linecap:butt;stroke-linejoin:miter;stroke-opacity:1;fill-opacity:1"
     d="M 135.32203,219.38983 143.45763,229.42373 147.25424,239.45763 149.15254,255.18644 146.71186,267.38983 143.18644,332.47458 142.91525,370.44068 143.72881,389.9661 145.89831,404.0678 145.62712,416.81356 141.01695,423.05085 134.77966,429.01695 133.69492,434.44068 136.67797,440.13559 138.84746,442.84746 142.1017,447.45763 145.08475,442.84746 148.0678,446.37288 V 452.33898 L 144.54237,458.57627 143.45763,464.54237 143.18644,467.79661 149.9661,470.23729 155.38983,470.50847 156.47458,465.89831 155.9322,449.62712 151.86441,411.11864 151.05085,384.27119 154.30508,374.50847 156.20339,373.9661 154.84746,370.71186 152.13559,366.37288 151.32203,355.79661 151.05085,332.47458 151.86441,307.25424 154.0339,284.20339 157.01695,270.64407 162.16949,261.9661 165.9661,258.16949 169.76271,250.84746 171.11864,244.61017 164.0678,235.66102 150.77966,224.81356 142.64407,219.66102 Z"
     id="path4111"
     inkscape:connector-curvature="0" />
  <path
     style="fill:#000000;stroke:#000000;stroke-width:1px;stroke-linecap:butt;stroke-linejoin:miter;stroke-opacity:1;fill-opacity:1"
     d="M 30.915254,215.86441 26.576271,221.28814 25.762712,225.35593 26.847458,228.0678 29.288136,230.23729 32.542373,231.86441 40.677966,234.57627 C 40.677966,234.57627 45.559322,234.0339 46.915254,235.11864 48.271187,236.20339 56.677966,238.64407 56.677966,238.64407 L 59.118644,245.69491 60.474576,255.45763 59.932203,265.22034 V 272.54237 L 55.59322,278.23729 H 51.79661 C 51.79661,278.23729 49.898305,280.13559 50.169492,281.22034 50.440678,282.30508 52.881356,288 52.881356,288 L 58.576271,293.42373 66.711865,297.49153 74.576271,296.13559 80.813559,289.62712 92.20339,285.55932 117.15254,277.9661 137.49153,276.0678 144,270.37288 142.91525,265.49153 136.13559,263.59322 127.72881,259.79661 122.30508,258.16949 116.33898,261.15254 85.423729,271.72881 68.61017,274.44068 66.983051,270.64407 70.508475,260.61017 75.118644,247.86441 74.305085,237.01695 69.694915,226.98305 63.186441,222.91525 49.898305,219.66102 36.881356,216.13559 Z"
     id="path4113"
     inkscape:connector-curvature="0" />
  <path
     style="fill:#000000;stroke:#000000;stroke-width:1px;stroke-linecap:butt;stroke-linejoin:miter;stroke-opacity:1;fill-opacity:1"
     d="M 72.135593,331.66102 65.355932,336.27119 66.169492,340.61017 69.423729,344.13559 73.491526,349.55932 77.288136,352 80.813559,353.08475 88.949153,349.83051 98.983051,345.49153 110.1017,342.23729 133.42373,332.20339 139.66102,325.9661 V 320.27119 L 134.23729,319.18644 127.72881,317.55932 122.57627,316.47458 113.35593,318.64407 96,325.9661 Z"
     id="path4115"
     inkscape:connector-curvature="0" />
  <path
     style="fill:#000000;stroke:#000000;stroke-width:1px;stroke-linecap:butt;stroke-linejoin:miter;stroke-opacity:1;fill-opacity:1"
     d="M 85.694915,378.30508 80.813559,385.8983 78.372881,390.23729 73.762712,397.01695 71.322034,401.35593 68.067797,408.67797 65.627119,413.83051 63.457627,418.71186 64,422.77966 67.525424,419.79661 75.389831,412.74576 81.627119,404.88136 93.288136,395.11864 100.0678,390.23729 98.983051,384 92.474576,379.66102 Z"
     id="path4117"
     inkscape:connector-curvature="0" />
  <path
     style="fill:#000000;stroke:#000000;stroke-width:1px;stroke-linecap:butt;stroke-linejoin:miter;stroke-opacity:1;fill-opacity:1"
     d="M 216.94915,224.27119 V 228.0678 L 219.38983,232.94915 C 219.38983,232.94915 221.28814,234.57627 222.91525,234.84746 224.54237,235.11864 232.40678,234.84746 232.40678,234.84746 L 240.81356,232.13559 245.9661,235.11864 247.59322,242.16949 249.76271,252.47458 253.28814,263.86441 255.18644,267.66102 H 257.89831 L 261.69492,261.42373 264.67797,244.61017 267.38983,234.84746 269.28814,228.61017 274.71186,228.88136 279.59322,222.10169 281.49153,215.05085 277.69492,212.61017 273.89831,208.54237 268.74576,206.37288 263.86441,205.01695 259.52542,204.47458 257.62712,208.54237 250.57627,211.25424 Z"
     id="path4119"
     inkscape:connector-curvature="0" />
  <path
     style="fill:#000000;stroke:#000000;stroke-width:1px;stroke-linecap:butt;stroke-linejoin:miter;stroke-opacity:1;fill-opacity:1"
     d="M 194.16949,224.27119 193.89831,250.84746 194.98305,307.25424 194.16949,329.76271 196.0678,347.66102 194.71186,364.20339 192.81356,384 193.89831,400.27119 192.27119,419.79661 187.9322,434.98305 183.86441,447.45763 182.23729,455.05085 178.71186,455.86441 177.62712,460.74576 C 177.62712,460.74576 179.52542,465.89831 179.79661,467.25424 180.0678,468.61017 183.32203,473.49153 183.32203,473.49153 L 186.30509,475.9322 191.72881,472.94915 197.69492,468.61017 201.22034,459.9322 201.76271,445.01695 202.0339,395.11864 204.47458,393.49153 210.16949,398.91525 215.32203,404.0678 219.38983,406.77966 225.89831,409.22034 C 225.89831,409.22034 228.33898,409.76271 229.42373,409.22034 230.50847,408.67797 240.81356,402.16949 240.81356,402.16949 L 260.0678,398.91525 284.20339,395.38983 298.0339,392.40678 303.45763,387.52542 306.71186,382.64407 302.91525,377.22034 295.86441,372.33898 288,372.0678 279.86441,374.77966 266.30509,376.94915 257.89831,379.11864 262.23729,370.16949 270.64407,354.44068 268.74576,343.32203 264.13559,338.16949 257.62712,333.28814 251.38983,330.30508 244.88136,330.0339 C 244.88136,330.0339 242.16949,333.83051 241.89831,334.64407 241.62712,335.45763 241.35593,339.52542 242.16949,340.61017 242.98305,341.69491 245.9661,341.9661 245.9661,343.86441 245.9661,345.76271 247.05085,353.62712 247.05085,353.62712 L 246.23729,360.40678 245.9661,367.72881 244.88136,375.59322 242.16949,381.55932 237.28814,385.08475 223.72881,385.8983 207.18644,384.27119 203.66102,369.8983 202.0339,332.74576 200.67797,304.54237 205.55932,283.9322 213.15254,262.77966 218.30509,246.50847 218.57627,242.44068 212.61017,235.66102 205.01695,229.15254 Z"
     id="path4121"
     inkscape:connector-curvature="0" />
  <path
     style="fill:#000000;stroke:#000000;stroke-width:1px;stroke-linecap:butt;stroke-linejoin:miter;stroke-opacity:1;fill-opacity:1"
     d="M 352,328.40678 347.66102,338.44068 340.88136,352.27119 326.23729,372.61017 312.67797,382.64407 H 306.71186 L 298.0339,392.40678 305.08475,396.20339 312.67797,395.11864 327.86441,390.23729 339.79661,381.83051 350.64407,370.71186 359.32203,361.49153 365.55932,349.83051 368.81356,346.30508 354.44068,327.05085 Z"
     id="path4123"
     inkscape:connector-curvature="0" />
  <path
     style="fill:#000000;stroke:#000000;stroke-width:1px;stroke-linecap:butt;stroke-linejoin:miter;stroke-opacity:1;fill-opacity:1"
     d="M 208.54237,279.59322 205.55932,283.9322 211.52542,287.18644 216.40678,289.62712 220.74576,291.25424 224.27119,293.42373 229.9661,293.15254 237.01695,292.0678 244.0678,289.08475 257.35593,282.0339 273.35593,277.42373 280.13559,275.52542 277.9661,294.50847 276.33898,309.69491 262.77966,314.84746 236.47458,323.25424 218.0339,327.86441 209.62712,329.22034 210.16949,332.74576 218.30509,337.62712 227.52542,340.33898 235.9322,338.98305 272,329.76271 290.16949,327.59322 293.9661,321.35593 291.79661,314.84746 287.18644,314.30508 H 283.9322 L 286.64407,302.91525 295.86441,287.45763 298.0339,282.0339 300.20339,281.76271 302.91525,280.40678 V 277.15254 L 306.16949,275.25424 312.13559,270.10169 313.76271,263.05085 305.89831,258.16949 290.98305,251.9322 283.11864,254.37288 277.9661,260.61017 277.69492,263.32203 Z"
     id="path4125"
     inkscape:connector-curvature="0" />
</svg>
