<?xml version="1.0" encoding="UTF-8" standalone="no"?>
<!-- Created with Inkscape (http://www.inkscape.org/) -->

<svg
   xmlns:dc="http://purl.org/dc/elements/1.1/"
   xmlns:cc="http://creativecommons.org/ns#"
   xmlns:rdf="http://www.w3.org/1999/02/22-rdf-syntax-ns#"
   xmlns:svg="http://www.w3.org/2000/svg"
   xmlns="http://www.w3.org/2000/svg"
   xmlns:sodipodi="http://sodipodi.sourceforge.net/DTD/sodipodi-0.dtd"
   xmlns:inkscape="http://www.inkscape.org/namespaces/inkscape"
   version="1.1"
   id="svg4037"
   width="513"
   height="512"
   viewBox="0 0 513 512"
   sodipodi:docname="U+8ABF.svg"
   inkscape:version="0.92.4 (5da689c313, 2019-01-14)">
  <metadata
     id="metadata4043">
    <rdf:RDF>
      <cc:Work
         rdf:about="">
        <dc:format>image/svg+xml</dc:format>
        <dc:type
           rdf:resource="http://purl.org/dc/dcmitype/StillImage" />
        <dc:title />
      </cc:Work>
    </rdf:RDF>
  </metadata>
  <defs
     id="defs4041" />
  <sodipodi:namedview
     pagecolor="#ffffff"
     bordercolor="#666666"
     borderopacity="1"
     objecttolerance="10"
     gridtolerance="10"
     guidetolerance="10"
     inkscape:pageopacity="0"
     inkscape:pageshadow="2"
     inkscape:window-width="1920"
     inkscape:window-height="1017"
     id="namedview4039"
     showgrid="false"
     inkscape:zoom="0.921875"
     inkscape:cx="181.36468"
     inkscape:cy="93.818537"
     inkscape:window-x="-8"
     inkscape:window-y="-8"
     inkscape:window-maximized="1"
     inkscape:current-layer="svg4037" />
  <path
     style="fill:#000000;stroke:#000000;stroke-width:1px;stroke-linecap:butt;stroke-linejoin:miter;stroke-opacity:1;fill-opacity:1"
     d="M 97.627119,74.305084 86.779661,85.152542 106.84746,73.762711 117.69492,84.067796 126.91525,91.661017 131.79661,96.542372 134.50847,102.50847 138.30508,108.47458 137.22034,115.52542 133.42373,114.44068 H 125.28814 L 111.72881,117.15254 64,123.66102 35.254237,130.71186 22.237288,133.42373 16.271186,129.08475 14.101695,125.83051 12.474576,124.20339 10.305085,130.71186 7.0508475,137.76271 9.220339,145.8983 15.728814,160 24.949153,164.88136 34.169492,166.50847 42.847458,158.37288 56.949153,152.94915 84.067797,137.22034 93.288136,131.79661 100.88136,131.25424 116.61017,128 136.13559,125.28814 H 143.72881 L 146.44068,133.42373 151.86441,135.59322 155.66102,135.05085 158.91525,128.54237 161.08475,124.20339 161.62712,120.40678 H 168.67797 L 179.52542,119.86441 193.08475,121.49153 207.72881,123.66102 219.66102,125.28814 234.84746,123.11864 235.38983,118.77966 225.62712,107.38983 209.89831,103.59322 199.05085,99.79661 195.25424,103.59322 183.32203,106.84746 161.08475,110.64407 162.71186,101.42373 155.66102,88.406779 148.0678,82.440678 144.27119,78.101694 138.30508,74.305084 131.25424,70.508474 122.0339,68.338983 111.18644,66.169491 107.38983,64.542372 Z"
     id="path4047"
     inkscape:connector-curvature="0" />
  <path
     style="fill:#000000;stroke:#000000;stroke-width:1px;stroke-linecap:butt;stroke-linejoin:miter;stroke-opacity:1;fill-opacity:1"
     d="M 94.915254,178.44068 91.118644,192 94.372881,196.33898 99.254237,203.38983 106.30508,207.72881 112.81356,209.35593 120.40678,206.64407 126.91525,199.05085 133.9661,196.33898 143.18644,193.08475 149.15254,190.91525 H 157.83051 L 163.25424,183.32203 165.9661,172.47458 166.50847,169.22034 152.94915,173.55932 137.22034,176.27119 116.61017,182.23729 106.84746,182.77966 98.169492,181.15254 Z"
     id="path4049"
     inkscape:connector-curvature="0" />
  <path
     style="fill:#000000;stroke:#000000;stroke-width:1px;stroke-linecap:butt;stroke-linejoin:miter;stroke-opacity:1;fill-opacity:1"
     d="M 63.457627,254.37288 V 264.13559 L 67.254237,268.47458 75.932203,276.0678 78.644068,279.86441 81.898305,283.11864 86.779661,283.66102 96,280.40678 103.59322,277.15254 106.84746,273.8983 107.9322,272.27119 109.55932,270.10169 119.32203,266.30508 139.9322,258.16949 154.57627,254.91525 168.67797,248.40678 170.84746,245.15254 150.77966,237.01695 148.61017,236.47458 136.67797,242.44068 82.983051,259.79661 78.101695,258.16949 71.59322,257.08475 Z"
     id="path4051"
     inkscape:connector-curvature="0" />
  <path
     style="fill:#000000;stroke:#000000;stroke-width:1px;stroke-linecap:butt;stroke-linejoin:miter;stroke-opacity:1;fill-opacity:1"
     d="M 49.355932,312.40678 52.067797,323.25424 60.745763,329.76271 66.711864,334.10169 73.220339,345.49153 78.644068,355.25424 84.61017,371.52542 88.949153,385.08475 94.915254,406.77966 100.33898,423.59322 106.30508,429.55932 112.81356,423.59322 113.35593,417.62712 110.1017,408.94915 104.13559,389.42373 V 382.37288 L 112.81356,380.20339 124.74576,376.40678 139.38983,374.23729 153.49153,372.61017 169.76271,373.69492 178.98305,369.8983 181.69492,360.13559 V 361.22034 L 177.89831,357.42373 173.55932,355.25424 169.76271,353.62712 170.84746,345.49153 175.18644,323.25424 176.81356,320.54237 181.15254,318.91525 186.57627,314.0339 188.20339,310.23729 181.69492,305.35593 169.22034,298.84746 160,294.50847 152.40678,291.25424 146.44068,290.71186 136.67797,297.76271 133.42373,302.64407 127.45763,305.35593 120.40678,309.15254 114.98305,309.69492 H 108.47458 L 99.254237,309.15254 92.745763,306.98305 H 89.491526 L 97.084746,317.28814 108.47458,324.88136 118.77966,324.33898 129.62712,321.08475 136.13559,321.62712 137.76271,322.71186 144.81356,329.76271 V 335.18644 L 143.72881,346.0339 141.01695,352 139.38983,356.33898 130.16949,358.50847 118.23729,360.67797 110.1017,365.01695 H 105.22034 L 101.42373,352.54237 98.711865,342.23729 94.915254,333.01695 89.491526,327.59322 85.694915,325.42373 72.677966,319.45763 61.830509,314.57627 54.779661,312.94915 Z"
     id="path4053"
     inkscape:connector-curvature="0" />
  <path
     style="fill:#000000;stroke:#000000;stroke-width:1px;stroke-linecap:butt;stroke-linejoin:miter;stroke-opacity:1;fill-opacity:1"
     d="M 235.38983,148.0678 235.9322,153.49153 239.18644,157.83051 241.35593,160 244.61017,167.05085 V 177.35593 L 246.77966,188.74576 V 207.18644 L 245.15254,221.83051 246.23729,237.01695 247.32203,249.49153 244.61017,259.25424 242.98305,274.98305 239.18644,293.42373 V 302.64407 L 235.38983,314.0339 231.59322,326.50847 225.08475,341.15254 218.0339,361.76271 208.81356,380.74576 199.59322,393.76271 C 199.59322,393.76271 201.76271,399.72881 199.59322,399.18644 197.42373,398.64407 193.62712,406.77966 193.62712,406.77966 L 188.74576,411.11864 184.94915,414.37288 183.86441,420.33898 180.61017,424.67797 178.98305,427.38983 177.89831,433.35593 190.37288,423.05085 201.76271,413.28814 209.89831,404.61017 220.20339,392.67797 223.45763,388.88136 229.9661,375.32203 233.76271,363.38983 239.18644,349.28814 250.57627,329.76271 V 319.45763 L 252.74576,297.22034 254.91525,269.01695 260.33898,239.72881 258.71186,220.20339 262.50847,206.10169 266.84746,195.79661 263.59322,192.54237 261.9661,182.23729 260.88136,170.30508 264.67797,158.91525 261.9661,144.27119 256.54237,141.55932 251.11864,142.10169 245.69492,144.81356 Z"
     id="path4055"
     inkscape:connector-curvature="0" />
  <path
     style="fill:#000000;stroke:#000000;stroke-width:1px;stroke-linecap:butt;stroke-linejoin:miter;stroke-opacity:1;fill-opacity:1"
     d="M 276.61017,74.305084 273.89831,85.694915 275.52542,90.576271 281.49153,98.711864 286.37288,100.88136 H 292.33898 L 296.67797,94.915254 310.23729,88.406779 354.16949,77.016949 381.28814,69.966101 400.81356,66.711864 409.49153,65.627118 419.25424,66.169491 428.47458,69.423728 432.27119,75.932203 434.98305,84.610169 432.81356,95.457627 430.1017,199.05085 431.18644,266.30508 432.27119,322.71186 442.0339,406.23729 440.40678,411.66102 436.0678,415.45763 V 415.45763 L 434.44068,420.33898 441.49153,430.64407 455.59322,441.49153 457.22034,443.66102 464.27119,441.49153 466.98305,434.44068 464.81356,427.9322 464.27119,410.0339 452.88136,360.67797 V 349.28814 L 457.22034,346.57627 462.64407,343.86441 457.76271,339.52542 453.42373,337.8983 448.54237,306.44068 445.83051,250.57627 444.20339,198.50847 450.16949,163.79661 452.88136,120.94915 458.84746,86.237288 461.01695,66.711864 455.05085,56.406779 442.57627,46.644067 430.64407,36.881355 H 424.67797 L 410.57627,46.644067 V 50.440677 L 402.98305,54.779661 303.18644,74.305084 289.62712,73.762711 Z"
     id="path4057"
     inkscape:connector-curvature="0" />
  <path
     style="fill:#000000;stroke:#000000;stroke-width:1px;stroke-linecap:butt;stroke-linejoin:miter;stroke-opacity:1;fill-opacity:1"
     d="M 312.40678,114.44068 318.91525,124.74576 324.88136,125.83051 327.59322,135.59322 326.50847,145.35593 V 148.0678 L 315.11864,152.94915 309.15254,152.40678 303.72881,149.15254 297.22034,152.94915 291.25424,168.13559 294.50847,174.64407 302.1017,178.98305 309.15254,176.81356 314.0339,170.30508 317.83051,164.33898 322.71186,162.71186 329.22034,163.25424 330.84746,168.13559 329.76271,181.69491 331.9322,200.67797 330.84746,207.72881 318.91525,210.44068 299.38983,213.69491 292.33898,215.32203 283.66102,213.69491 279.86441,221.28814 285.83051,226.71186 291.25424,232.13559 297.22034,234.84746 303.72881,233.76271 309.15254,227.25424 353.62712,211.52542 367.18644,209.35593 375.86441,209.8983 388.33898,206.64407 393.76271,198.50847 387.25424,192.54237 378.57627,190.91525 371.52542,194.16949 350.91525,200.67797 358.50847,178.44068 356.88136,170.84746 365.55932,146.98305 391.59322,137.22034 394.30509,133.42373 V 129.08475 L 390.50847,127.45763 H 384.54237 L 378.0339,129.08475 370.98305,133.42373 365.55932,135.59322 362.30509,131.25424 357.9661,125.83051 349.28814,123.11864 334.64407,115.52542 322.71186,112.81356 Z"
     id="path4059"
     inkscape:connector-curvature="0" />
  <path
     style="fill:#000000;stroke:#000000;stroke-width:1px;stroke-linecap:butt;stroke-linejoin:miter;stroke-opacity:1;fill-opacity:1"
     d="M 260.33898,262.50847 271.72881,272.27119 279.32203,278.23729 286.37288,288 290.71186,301.01695 293.9661,315.66102 291.79661,331.9322 292.88136,342.77966 297.22034,349.28814 302.64407,350.91525 308.61017,337.35593 308.0678,331.38983 318.37288,328.67797 361.76271,322.16949 H 368.27119 374.77966 L 383.45763,321.62712 387.25424,316.74576 387.79661,309.69492 382.91525,305.8983 H 380.20339 L 375.32203,304.81356 381.28814,290.16949 382.37288,274.98305 387.79661,263.59322 393.76271,259.25424 398.1017,254.37288 V 249.49153 L 392.67797,244.61017 380.20339,236.47458 366.1017,230.50847 359.59322,229.42373 355.79661,239.72881 348.20339,245.15254 327.05085,255.45763 307.52542,261.42373 298.84746,258.71186 302.64407,268.47458 308.61017,271.18644 316.20339,275.52542 H 324.33898 L 332.47458,267.9322 343.86441,262.50847 353.62712,260.88136 356.88136,265.76271 357.42373,281.49153 356.88136,299.9322 359.05085,304.81356 343.86441,305.8983 330.84746,310.77966 319.45763,313.49153 311.32203,314.0339 306.98305,310.77966 V 299.9322 L 303.72881,282.57627 297.76271,276.61017 288,270.64407 275.52542,265.22034 Z"
     id="path4061"
     inkscape:connector-curvature="0" />
</svg>
