<?xml version="1.0" encoding="UTF-8" standalone="no"?>
<!-- Created with Inkscape (http://www.inkscape.org/) -->

<svg
   xmlns:dc="http://purl.org/dc/elements/1.1/"
   xmlns:cc="http://creativecommons.org/ns#"
   xmlns:rdf="http://www.w3.org/1999/02/22-rdf-syntax-ns#"
   xmlns:svg="http://www.w3.org/2000/svg"
   xmlns="http://www.w3.org/2000/svg"
   xmlns:sodipodi="http://sodipodi.sourceforge.net/DTD/sodipodi-0.dtd"
   xmlns:inkscape="http://www.inkscape.org/namespaces/inkscape"
   version="1.1"
   id="svg3969"
   width="513"
   height="512"
   viewBox="0 0 513 512"
   sodipodi:docname="U+967D.svg"
   inkscape:version="0.92.4 (5da689c313, 2019-01-14)">
  <metadata
     id="metadata3975">
    <rdf:RDF>
      <cc:Work
         rdf:about="">
        <dc:format>image/svg+xml</dc:format>
        <dc:type
           rdf:resource="http://purl.org/dc/dcmitype/StillImage" />
        <dc:title />
      </cc:Work>
    </rdf:RDF>
  </metadata>
  <defs
     id="defs3973" />
  <sodipodi:namedview
     pagecolor="#ffffff"
     bordercolor="#666666"
     borderopacity="1"
     objecttolerance="10"
     gridtolerance="10"
     guidetolerance="10"
     inkscape:pageopacity="0"
     inkscape:pageshadow="2"
     inkscape:window-width="1920"
     inkscape:window-height="1017"
     id="namedview3971"
     showgrid="false"
     inkscape:zoom="0.921875"
     inkscape:cx="212.59363"
     inkscape:cy="67.448488"
     inkscape:window-x="-8"
     inkscape:window-y="-8"
     inkscape:window-maximized="1"
     inkscape:current-layer="svg3969" />
  <path
     style="fill:#000000;stroke:#000000;stroke-width:1px;stroke-linecap:butt;stroke-linejoin:miter;stroke-opacity:1;fill-opacity:1"
     d="M 51.525424,93.288135 50.983051,106.30508 56.40678,109.55932 64,120.40678 69.966102,128.54237 76.474576,135.05085 H 82.983051 L 86.779661,130.16949 93.288136,124.74576 101.9661,123.11864 109.55932,119.86441 H 114.44068 L 110.1017,129.62712 103.59322,139.9322 99.79661,146.98305 96.542373,152.94915 V 159.45763 L 97.084746,163.25424 101.42373,169.22034 108.47458,176.27119 114.44068,184.40678 120.40678,193.08475 126.37288,197.9661 117.15254,203.38983 105.76271,202.84746 93.288136,200.13559 83.525424,198.50847 H 77.016949 L 79.186441,188.20339 80.271187,182.77966 78.101695,173.55932 71.59322,166.50847 62.915254,155.11864 53.152542,147.52542 36.338983,144.27119 H 32.542373 V 150.23729 L 41.762712,157.28814 50.440678,162.71186 55.864407,168.13559 60.20339,171.38983 62.915254,178.44068 65.084746,183.32203 66.169492,199.59322 67.79661,207.18644 65.627119,223.45763 62.372881,231.59322 V 240.81356 250.57627 L 62.915254,258.71186 65.627119,266.30508 66.169492,286.37288 65.084746,333.01695 58.576271,383.45763 H 53.152542 L 42.847458,375.86441 32.542373,369.35593 24.949153,366.64407 22.779661,370.98305 33.627119,376.40678 46.101695,384.54237 56.949153,391.59322 58.576271,412.20339 65.084746,430.10169 71.050848,435.52542 77.559322,434.98305 81.898305,427.9322 V 419.79661 L 79.728814,411.66102 79.186441,407.86441 V 399.18644 L 84.61017,392.67797 V 388.33898 L 79.186441,383.45763 71.59322,381.83051 74.305085,367.72881 76.474576,343.32203 78.101695,320.54237 74.305085,298.30508 72.135593,259.25424 74.305085,235.38983 74.847458,213.15254 78.101695,206.10169 83.525424,206.64407 100.88136,215.86441 130.71186,226.71186 135.59322,231.05085 142.64407,234.84746 149.69492,227.79661 155.11864,215.32203 149.15254,196.88136 139.38983,182.77966 124.20339,171.9322 111.18644,161.62712 110.64407,154.0339 118.23729,146.98305 126.37288,138.84746 136.13559,130.71186 145.89831,123.11864 155.11864,113.8983 167.05085,107.9322 175.18644,103.59322 180.0678,99.79661 181.15254,94.372881 177.89831,86.237288 174.1017,81.355932 169.22034,73.762711 165.42373,68.338983 158.91525,66.169491 149.15254,66.711864 145.35593,71.59322 138.84746,78.644067 73.220339,101.9661 68.881356,100.33898 68.338983,97.627118 61.830509,96.542372 56.40678,94.915254 Z"
     id="path3979"
     inkscape:connector-curvature="0" />
  <path
     style="fill:#000000;stroke:#000000;stroke-width:1px;stroke-linecap:butt;stroke-linejoin:miter;stroke-opacity:1;fill-opacity:1"
     d="M 225.08475,61.288135 229.42373,69.966101 234.84746,74.847457 238.1017,82.98305 239.18644,97.084745 V 116.0678 193.62712 L 227.79661,195.25424 214.23729,199.59322 196.88136,202.84746 184.40678,204.47458 173.01695,203.38983 166.50847,207.72881 164.33898,216.40678 170.30508,223.45763 176.81356,232.67797 182.23729,238.10169 187.11864,239.18644 194.71186,232.13559 205.55932,224 213.69492,220.20339 219.11864,216.94915 226.71186,213.15254 H 232.13559 L 236.47458,214.23729 239.72881,217.49153 242.44068,221.83051 244.61017,223.45763 250.0339,222.37288 254.91525,215.86441 254.37288,202.30508 265.22034,200.67797 296.67797,195.25424 301.01695,197.42373 299.38983,208.27119 V 213.15254 L 297.76271,219.66102 295.59322,227.25424 293.42373,234.30508 290.16949,238.64407 H 288 L 286.91525,244.0678 290.71186,256 291.79661,268.47458 298.30509,272.81356 306.98305,267.9322 312.40678,251.11864 310.23729,223.45763 306.98305,197.42373 316.74576,192 330.84746,191.45763 353.62712,186.57627 372.0678,185.49153 393.22034,182.77966 398.64407,181.15254 405.69492,174.10169 412.20339,157.28814 414.37288,142.10169 411.11864,139.38983 406.77966,139.9322 402.44068,146.44068 399.72881,149.69491 396.47458,156.20339 394.30509,160.54237 381.83051,164.33898 311.32203,178.44068 316.74576,94.915254 323.79661,82.440678 335.18644,69.966101 341.69492,65.627118 339.52542,56.406779 329.22034,45.559322 321.08475,37.423728 311.86441,35.79661 307.52542,39.59322 289.62712,40.677966 257.08475,49.898305 248.40678,48.271186 244.61017,53.152542 250.57627,59.661016 257.62712,67.79661 263.05085,74.305084 271.72881,70.508474 285.83051,62.915254 295.59322,59.661016 301.01695,58.033898 305.89831,59.661016 308.61017,62.372881 V 74.305084 L 306.44068,84.067796 304.27119,94.915254 C 304.27119,94.915254 304.27119,116.61017 303.72881,118.77966 303.18644,120.94915 299.9322,147.52542 299.9322,147.52542 L 296.67797,179.52542 V 181.15254 L 256.54237,189.28814 253.28814,190.37288 252.20339,177.8983 252.74576,165.9661 V 155.11864 L 253.28814,145.35593 256,143.18644 H 260.33898 L 264.67797,144.27119 267.38983,149.69491 274.44068,154.57627 280.40678,146.98305 295.05085,131.79661 298.84746,126.37288 V 122.57627 L 295.05085,120.40678 286.91525,118.77966 280.40678,121.49153 272.27119,124.20339 263.05085,127.45763 258.16949,126.91525 253.83051,123.11864 251.66102,120.40678 253.28814,113.35593 257.62712,103.59322 258.16949,94.915254 254.91525,82.440678 248.40678,68.338983 243.52542,62.915254 238.1017,60.203389 Z"
     id="path3981"
     inkscape:connector-curvature="0" />
  <path
     style="fill:#000000;stroke:#000000;stroke-width:1px;stroke-linecap:butt;stroke-linejoin:miter;stroke-opacity:1;fill-opacity:1"
     d="M 265.22034,212.0678 262.50847,220.74576 261.9661,225.62712 259.25424,228.88136 253.83051,233.22034 248.40678,240.27119 240.81356,245.15254 233.22034,250.57627 225.62712,254.91525 214.23729,263.59322 199.59322,272.27119 186.57627,280.40678 171.9322,288 167.05085,290.71186 161.62712,291.25424 158.91525,291.79661 155.11864,297.76271 154.57627,301.55932 V 304.81356"
     id="path3983"
     inkscape:connector-curvature="0" />
  <path
     style="fill:#000000;stroke:#000000;stroke-width:1px;stroke-linecap:butt;stroke-linejoin:miter;stroke-opacity:1;fill-opacity:1"
     d="M 154.57627,304.81356 160.54237,312.94915 168.13559,309.15254 177.89831,304.27119 189.28814,297.22034 233.22034,267.38983 255.45763,249.49153 266.84746,236.47458 275.52542,221.28814 273.89831,213.15254 271.72881,211.52542 265.22034,212.0678"
     id="path3985"
     inkscape:connector-curvature="0" />
  <path
     style="fill:#000000;stroke:#000000;stroke-width:1px;stroke-linecap:butt;stroke-linejoin:miter;stroke-opacity:1;fill-opacity:1"
     d="M 273.89831,254.91525 275.52542,260.33898 H 278.23729 L 283.11864,262.50847 282.57627,266.84746 279.86441,269.01695 273.89831,274.44068 269.55932,279.86441 265.76271,283.66102 258.71186,289.62712 248.94915,295.05085 241.89831,302.10169 229.42373,312.40678 222.37288,321.08475 203.9322,334.10169 191.45763,340.0678 180.61017,347.11864 173.55932,352.54237 172.47458,358.50847 177.35593,360.67797 H 182.77966 L 188.20339,356.33898 207.18644,344.94915 225.62712,331.38983 256.54237,303.72881 265.22034,296.13559 271.18644,287.45763 276.61017,280.40678 283.11864,275.52542 284.74576,270.10169 291.79661,268.47458 306.98305,267.9322 322.71186,270.64407 323.25424,274.98305 316.74576,282.57627 299.38983,301.55932 200.13559,388.33898 193.62712,389.9661 190.37288,393.22034 H 187.11864 L 184.94915,392.13559 186.57627,386.16949 V 384.54237 L 185.49153,383.45763 180.61017,388.33898 173.55932,394.84746 169.22034,404.61017 164.33898,412.20339 170.84746,417.08475 180.0678,413.83051 193.08475,405.15254 208.27119,396.47458 226.71186,383.45763 244.61017,367.72881 270.64407,347.11864 301.01695,315.11864 318.91525,297.76271 326.50847,289.08475 334.64407,281.49153 338.44068,277.15254 340.61017,271.72881 342.77966,267.9322 353.62712,270.64407 366.64407,271.18644 H 382.91525 L 401.89831,273.35593 413.83051,272.81356 414.91525,267.38983 411.66102,264.13559 402.44068,259.79661 398.1017,257.08475 392.13559,256.54237 385.62712,256 373.15254,257.08475 H 356.88136 L 335.18644,258.71186 314.57627,259.79661 Z"
     id="path3987"
     inkscape:connector-curvature="0" />
  <path
     style="fill:#000000;stroke:#000000;stroke-width:1px;stroke-linecap:butt;stroke-linejoin:miter;stroke-opacity:1;fill-opacity:1"
     d="M 413.28814,278.23729 407.32203,287.45763 397.55932,304.27119 384.54237,322.16949 355.25424,359.05085 341.15254,376.40678 327.05085,387.25424 309.15254,403.52542 291.79661,418.16949 279.86441,426.84746 274.44068,427.38983 267.9322,421.42373 262.50847,416 254.91525,408.40678 250.57627,400.81356 244.0678,394.84746 239.72881,390.50847 H 237.01695 L 235.38983,397.55932 237.01695,408.40678 240.27119,420.33898 242.98305,432.27119 243.52542,439.86441 241.35593,448.54237 239.72881,457.22034 C 239.72881,457.22034 248.40678,460.47458 250.57627,460.47458 252.74576,460.47458 272.27119,453.42373 272.27119,453.42373 L 288.54237,442.0339 304.27119,434.44068 318.37288,418.71186 374.77966,350.37288 387.25424,334.64407 393.22034,330.84746 397.01695,329.76271 407.86441,308.0678 414.37288,297.22034 419.79661,291.25424 425.76271,285.83051 430.1017,283.66102 420.88136,276.61017 Z"
     id="path3989"
     inkscape:connector-curvature="0" />
</svg>
