<?xml version="1.0" encoding="UTF-8" standalone="no"?>
<!-- Created with Inkscape (http://www.inkscape.org/) -->

<svg
   xmlns:dc="http://purl.org/dc/elements/1.1/"
   xmlns:cc="http://creativecommons.org/ns#"
   xmlns:rdf="http://www.w3.org/1999/02/22-rdf-syntax-ns#"
   xmlns:svg="http://www.w3.org/2000/svg"
   xmlns="http://www.w3.org/2000/svg"
   xmlns:sodipodi="http://sodipodi.sourceforge.net/DTD/sodipodi-0.dtd"
   xmlns:inkscape="http://www.inkscape.org/namespaces/inkscape"
   version="1.1"
   id="svg3799"
   width="513"
   height="513"
   viewBox="0 0 513 513"
   sodipodi:docname="æˆ.svg"
   inkscape:version="0.92.4 (5da689c313, 2019-01-14)">
  <metadata
     id="metadata3805">
    <rdf:RDF>
      <cc:Work
         rdf:about="">
        <dc:format>image/svg+xml</dc:format>
        <dc:type
           rdf:resource="http://purl.org/dc/dcmitype/StillImage" />
        <dc:title></dc:title>
      </cc:Work>
    </rdf:RDF>
  </metadata>
  <defs
     id="defs3803" />
  <sodipodi:namedview
     pagecolor="#ffffff"
     bordercolor="#666666"
     borderopacity="1"
     objecttolerance="10"
     gridtolerance="10"
     guidetolerance="10"
     inkscape:pageopacity="0"
     inkscape:pageshadow="2"
     inkscape:window-width="1920"
     inkscape:window-height="1017"
     id="namedview3801"
     showgrid="false"
     inkscape:zoom="2.6023735"
     inkscape:cx="240.10718"
     inkscape:cy="186.02878"
     inkscape:window-x="-8"
     inkscape:window-y="-8"
     inkscape:window-maximized="1"
     inkscape:current-layer="svg3799" />
  <path
     style="fill:none;stroke:#000000;stroke-width:1px;stroke-linecap:butt;stroke-linejoin:miter;stroke-opacity:1"
     d="M 176.61547,1.6302961 178.24576,12.49894 178.7892,23.367584 180.96292,32.062499 184.22352,41.844279 188.57097,46.735169 191.83157,51.082627 198.89619,52.712923 203.78708,53.256355 208.13453,55.973516 214.11229,59.23411 216.82945,69.559322 220.63347,81.51483 225.52436,92.926906 232.58898,107.59958 238.56674,125.53284 244.00106,139.66208 249.97881,151.61758 251.06568,158.13877 246.71822,160.85593 240.19703,164.65996 229.32839,170.63771 218.45975,177.1589 204.87394,183.13665 195.63559,186.39725 186.39725,188.02754 179.33263,185.85381 173.89831,184.22352 164.65996,182.04979 159.22564,180.96292 164.11653,195.09216 169.00742,202.70021 178.24576,214.11229 184.76695,217.37288 190.20127,218.45975 H 195.63559 L 201.06992,214.11229 205.96081,209.76483 212.48199,205.41737 220.63347,201.06991 226.61123,197.80932 234.21928,193.46186 241.82733,190.7447 249.97881,185.85381 257.58686,183.13665 261.39089,179.87606 265.73835,191.28814 282.58475,221.17691 288.5625,230.95869 290.1928,246.17479 296.71398,258.1303 304.86547,266.82521 315.73411,282.58475 319.53814,292.36653 323.88559,301.60487 328.23305,306.49576 323.88559,316.27754 319.53814,323.34216 314.64725,327.68962 313.01695,333.12394 308.66949,338.01483 299.43114,343.99258 286.38877,354.3178 278.78072,358.12182 271.17267,360.83898 259.21716,359.75212 252.15254,359.20869 248.89195,359.75212 252.15254,366.81674 255.95657,368.99047 261.93432,371.16419 276.06356,368.44703 289.10593,365.72987 304.86547,358.66525 314.64725,353.23093 322.79873,347.25318 329.86335,338.55826 335.29767,330.95021 338.01483,324.97246 342.90572,327.14619 347.79661,330.40678 350.51377,336.38453 354.3178,340.73199 359.20869,347.79661 366.81674,356.49153 373.88136,363.01271 386.3803,376.59852 394.53178,385.29343 400.50953,392.90148 407.57415,399.42267 417.35593,408.11758 426.05085,416.26907 436.37606,422.24682 444.52754,430.3983 456.48305,436.91949 468.98199,446.15784 480.39407,449.41843 489.08898,453.22246 492.89301,455.39619 495.61017,444.52754 498.32733,434.20233 501.04449,423.33369 502.67479,410.29131 504.30509,396.70551 500.50106,378.77225 488.54555,330.40678 485.28496,327.68962 483.65466,333.12394 483.11123,340.73199 479.85064,352.14407 478.22034,363.01271 475.50318,376.05508 471.69915,382.57627 469.52542,390.18432 467.89513,397.24894 465.7214,401.05297 462.46081,404.85699 453.76589,401.5964 440.18009,393.44492 426.05085,383.66314 398.87924,363.01271 383.1197,346.70975 371.1642,332.03708 359.20869,318.9947 350.51377,307.58263 354.86123,298.88771 358.12182,290.73623 362.46928,274.43326 368.99047,259.76059 372.79449,246.17479 373.88136,241.82733 370.62076,234.76271 362.46928,220.09004 358.12182,212.48199 353.77436,204.87394 351.0572,203.24364 351.60064,213.02542 352.6875,222.26377 351.0572,232.58898 V 241.2839 L 347.25318,255.95657 336.38453,288.5625 330.40678,282.58475 321.16843,266.82521 314.64725,255.95657 309.75636,245.63136 297.25742,226.0678 293.45339,215.74258 284.75847,199.98305 272.80297,175.5286 289.10593,168.46398 296.17055,163.02966 304.86547,157.05191 315.73411,149.98729 324.97246,145.0964 335.29767,136.94491 336.38453,132.05403 328.77648,127.70657 320.625,124.44597 316.27754,121.72881 H 310.84322 L 302.14831,129.8803 295.08369,135.85805 284.75847,141.29237 276.60699,144.55297 268.45551,148.90042 264.65148,146.18326 259.76059,134.22775 254.32627,119.55508 249.97881,101.62182 242.37076,71.189618 239.11017,61.951271 241.2839,54.34322 241.82733,48.908898 234.21928,39.67055 227.69809,35.323093 222.26377,31.519067 217.91631,28.801906 216.28602,30.975635 207.5911,23.367584 203.24364,20.106991 196.17903,14.129237 192.375,9.7817791 187.48411,4.8908893 183.68008,3.2605927 Z"
     id="path3809"
     inkscape:connector-curvature="0" />
  <path
     style="fill:none;stroke:#000000;stroke-width:1px;stroke-linecap:butt;stroke-linejoin:miter;stroke-opacity:1"
     d="M 296.17055,42.931144 298.88771,46.191737 305.4089,50.539194 H 313.56038 317.90784 L 322.79873,52.712923 329.86335,56.516949 335.8411,58.147245 340.73199,61.951271 346.16631,62.494703 351.60064,64.125 358.12182,65.211864 361.38242,66.842161 366.27331,68.472457 371.70763,64.668432 376.59852,60.864406 373.33792,55.973516 369.5339,49.995762 364.64301,47.822033 359.20869,44.018008 353.77436,41.300847 350.51377,39.127118 345.07945,37.496822 340.73199,35.866525 338.01483,35.323093 H 334.75424 327.68962 L 322.79873,39.127118 318.45127,38.583686 H 311.93009 307.58263 L 304.86547,40.213983 Z"
     id="path3811"
     inkscape:connector-curvature="0" />
  <path
     style="fill:none;stroke:#000000;stroke-width:1px;stroke-linecap:butt;stroke-linejoin:miter;stroke-opacity:1"
     d="M 107.59958,180.96292 109.77331,185.85381 116.29449,188.57097 120.64195,194.54873 127.16314,203.24364 133.33982,215.5792 137.18246,232.48684 137.56673,237.09802 138.71952,246.32037 139.10378,256.69551 139.87231,267.07066 138.71952,276.29301 V 282.82551 290.12653 L 135.26114,301.65447 132.18702,313.56667 127.19158,326.63167 125.27026,337.77534 121.42761,338.92814 119.50629,342.38652 114.12659,352.3774 109.89967,360.83122 V 361.98401 L 101.44585,371.59063 94.529091,379.66018 88.380857,383.8871 81.07983,388.11401 76.08439,392.72518 68.399098,395.41503 60.329542,396.56783 52.64425,397.33636 44.190429,399.64194 39.963518,398.10489 H 35.352343 L 32.278226,397.33636 29.972639,397.72062 32.662491,402.71606 39.194989,404.63738 46.496016,407.32724 H 53.797044 L 65.709246,409.24856 73.394538,407.32724 80.695565,404.25312 88.765122,400.79474 98.756001,395.03077 107.97835,387.34548 116.43217,378.50739 122.19614,371.59063 127.96011,363.90534 134.10834,355.45152 137.18246,344.69211 139.48805,342.38652 143.71496,336.23829 146.40481,328.93726 144.48349,322.0205 144.09922,314.3352 V 307.41844 L 145.25202,302.03874 146.78908,293.20065 146.02055,291.27933 147.17334,285.13109 150.24746,277.83007 150.63172,270.52904 V 263.61228 L 152.55304,252.4686 152.93731,245.93611 155.2429,239.78787 157.16422,232.10258 157.54848,224.80155 157.16422,220.19038 153.70584,209.81523 150.63172,202.51421 146.78908,198.2873 142.94643,193.67612 138.33525,190.602 133.72408,188.29642 130.64996,187.14362 123.7332,184.45377 116.81644,182.53245 Z"
     id="path3813"
     inkscape:connector-curvature="0" />
  <path
     style="fill:none;stroke:#000000;stroke-width:1px;stroke-linecap:butt;stroke-linejoin:miter;stroke-opacity:1"
     d="M 159.85407,267.07066 157.93275,275.90874 158.31701,280.13565 V 284.74683 L 161.00687,289.74227 164.46525,293.58492 167.53936,297.81183 170.61348,301.65447 174.45613,303.96006 178.68304,307.80271 180.98863,309.33976 H 183.29421 L 188.28965,307.80271 191.74803,306.26565 197.512,304.72859 202.89171,302.80727 208.27141,298.96462 213.26685,295.8905 217.1095,293.96918 219.79935,292.04786 224.02626,291.27933 224.41052,290.89506 228.25317,289.74227 232.09582,290.5108 236.32273,291.66359 238.62831,293.96918 V 297.42756 L 236.32273,301.65447 234.4014,307.03418 230.94302,312.79815 225.17905,326.24741 223.642,332.01137 220.56788,338.54387 217.87803,345.46064 215.9567,349.68755 214.03538,354.68299 211.72979,358.9099 210.19273,362.75254 208.65568,363.52107 205.19729,365.82666 200.97038,370.05357 198.28053,367.74798 189.82671,365.82666 182.52568,362.36828 179.0673,358.9099 175.99319,356.98857 171.38201,355.83578 169.07642,355.06725 166.38657,354.68299 170.99775,358.9099 175.60892,363.52107 178.68304,369.28504 180.98863,373.51195 184.44701,380.42871 186.75259,385.80842 188.67392,391.57239 185.98406,398.48915 184.44701,401.56327 182.90995,403.86885 180.98863,407.7115 177.91451,412.32268 177.14598,415.39679 178.68304,420.39223 183.29421,422.31356 190.21098,424.23488 195.59068,423.85061 199.43333,420.39223 203.66024,417.31812 206.73435,413.47547 209.03994,408.86429 211.34553,404.25312 214.03538,395.7993 219.03082,392.34092 220.56788,388.88254 222.4892,384.27136 223.642,378.50739 225.17905,372.74342 227.10038,365.82666 240.16537,326.24741 242.47096,323.17329 244.00802,322.78902 245.16081,321.63623 247.4664,319.33064 253.23037,303.19153 261.68419,287.82095 267.06389,269.37625 271.67507,259.76963 277.8233,254.38993 283.97154,249.39449 290.1928,246.17479 V 246.17479 L 288.5625,230.95869 282.43448,225.57008 280.12889,222.88023 H 277.43904 L 273.59639,222.49596 269.75375,221.34317 262.45272,221.72744 258.99434,225.18582 252.46184,229.02846 249.77199,231.33405 247.4664,234.0239 244.39228,238.25081 241.31817,241.32493 232.48008,245.93611 222.4892,252.08434 213.65112,257.46404 204.0445,261.30669 195.59068,264.76507 192.1323,268.60772 186.75259,271.29757 H 182.52568 L 171.38201,268.60772 166.38657,266.30213 Z"
     id="path3815"
     inkscape:connector-curvature="0" />
</svg>
