<?xml version="1.0" encoding="UTF-8" standalone="no"?>
<!-- Created with Inkscape (http://www.inkscape.org/) -->

<svg
   xmlns:dc="http://purl.org/dc/elements/1.1/"
   xmlns:cc="http://creativecommons.org/ns#"
   xmlns:rdf="http://www.w3.org/1999/02/22-rdf-syntax-ns#"
   xmlns:svg="http://www.w3.org/2000/svg"
   xmlns="http://www.w3.org/2000/svg"
   xmlns:sodipodi="http://sodipodi.sourceforge.net/DTD/sodipodi-0.dtd"
   xmlns:inkscape="http://www.inkscape.org/namespaces/inkscape"
   version="1.1"
   id="svg3949"
   width="513"
   height="512"
   viewBox="0 0 513 512"
   sodipodi:docname="é–.svg"
   inkscape:version="0.92.4 (5da689c313, 2019-01-14)">
  <metadata
     id="metadata3955">
    <rdf:RDF>
      <cc:Work
         rdf:about="">
        <dc:format>image/svg+xml</dc:format>
        <dc:type
           rdf:resource="http://purl.org/dc/dcmitype/StillImage" />
        <dc:title></dc:title>
      </cc:Work>
    </rdf:RDF>
  </metadata>
  <defs
     id="defs3953" />
  <sodipodi:namedview
     pagecolor="#ffffff"
     bordercolor="#666666"
     borderopacity="1"
     objecttolerance="10"
     gridtolerance="10"
     guidetolerance="10"
     inkscape:pageopacity="0"
     inkscape:pageshadow="2"
     inkscape:window-width="1920"
     inkscape:window-height="1017"
     id="namedview3951"
     showgrid="false"
     inkscape:zoom="1.84375"
     inkscape:cx="300.90745"
     inkscape:cy="270.1701"
     inkscape:window-x="-8"
     inkscape:window-y="-8"
     inkscape:window-maximized="1"
     inkscape:current-layer="svg3949" />
  <path
     style="fill:none;stroke:#000000;stroke-width:1px;stroke-linecap:butt;stroke-linejoin:miter;stroke-opacity:1"
     d="M 113.35593,96 107.9322,101.42373 106.30508,109.01695 107.38983,115.52542 114.98305,120.40678 121.49153,122.57627 126.37288,123.11864 131.25424,124.20339 135.59322,119.86441 142.64407,114.44068 146.44068,110.64407 152.94915,107.9322 158.37288,108.47458 165.42373,107.38983 172.47458,103.59322 175.18644,100.88136 181.69492,106.30508 188.20339,110.64407 190.91525,114.44068 190.37288,124.74576 189.83051,133.9661 188.74576,143.18644 184.94915,145.35593 H 176.81356 L 168.67797,144.81356 158.91525,146.98305 152.94915,145.8983 156.20339,139.9322 154.57627,138.84746 147.52542,140.47458 137.22034,146.44068 138.30508,152.94915 142.1017,157.83051 146.44068,162.16949 150.77966,165.42373 157.83051,162.71186 165.9661,160 173.55932,157.83051 180.0678,154.57627 H 186.0339 188.20339 L 188.74576,160.54237 189.28814,166.50847 V 171.38983 174.64407 L 188.74576,178.44068 184.94915,180.61017 146.98305,205.01695 146.44068,201.76271 144.27119,199.59322 139.9322,199.05085 H 138.30508 L 137.22034,205.01695 138.84746,212.0678 146.98305,216.94915 155.66102,219.11864 161.08475,219.66102 163.79661,229.9661 162.16949,236.47458 167.05085,247.86441 173.55932,253.83051 178.44068,258.71186 V 265.22034 L 181.69492,269.01695 189.28814,270.10169 H 193.62712 V 266.30508 L 199.59322,264.67797 204.47458,265.76271 209.89831,267.9322 218.57627,272.27119 217.49153,278.77966 218.0339,288 216.40678,299.38983 215.86441,309.69492 V 316.74576 L 206.1017,321.08475 200.13559,323.25424 188.74576,325.42373 183.86441,324.33898 177.89831,321.08475 173.55932,320 171.38983,325.9661 V 330.84746 L 177.35593,338.44068 180.61017,340.61017 184.94915,342.77966 189.28814,345.49153 H 196.33898 206.64407 L 208.81356,342.77966 216.40678,339.52542 219.11864,340.0678 217.49153,349.28814 218.0339,359.05085 219.11864,382.91525 218.57627,387.79661 208.27119,388.33898 182.77966,391.59322 163.25424,396.47458 H 156.20339 L 151.32203,394.84746 149.15254,392.13559 144.27119,389.42373 144.81356,399.18644 157.28814,408.94915 161.08475,414.37288 164.88136,421.42373 171.9322,423.59322 181.69492,420.88136 191.45763,414.37288 210.44068,410.57627 224.54237,405.69492 239.72881,404.0678 252.20339,402.98305 H 266.30509 L 278.77966,405.69492 288.54237,405.15254 298.30509,402.98305 302.1017,395.38983 297.76271,386.71186 293.42373,381.83051 284.20339,380.20339 H 273.89831 L 265.22034,381.83051 248.40678,385.08475 232.67797,389.42373 238.64407,375.86441 241.35593,363.38983 V 356.88136 L 239.18644,347.66102 238.64407,342.23729 245.15254,336.27119 252.74576,329.76271 264.67797,327.05085 276.0678,321.08475 285.83051,318.37288 292.33898,315.11864 V 305.8983 L 283.66102,304.81356 H 274.44068 L 262.50847,307.52542 244.61017,310.77966 247.86441,302.10169 248.94915,295.05085 254.91525,286.37288 257.08475,279.86441 259.79661,276.0678 253.28814,273.8983 250.0339,267.38983 246.77966,261.9661 242.44068,259.25424 244.0678,254.37288 H 251.66102 L 258.71186,250.57627 268.47458,249.49153 284.20339,242.98305 296.13559,238.10169 301.01695,235.38983 297.22034,230.50847 289.62712,224 H 282.57627 L 274.44068,228.88136 261.42373,232.67797 195.25424,249.49153 189.28814,247.32203 182.23729,240.81356 176.27119,230.50847 170.30508,220.74576 169.76271,215.32203 176.27119,210.98305 183.32203,202.84746 189.83051,197.42373 202.30508,186.57627 211.52542,173.55932 V 168.67797 H 206.1017 L 198.50847,173.01695 195.25424,171.38983 203.38983,153.49153 201.22034,150.23729 209.89831,118.77966 V 112.27119 L 210.44068,106.30508 215.86441,103.05085 216.40678,96.542372 213.15254,88.406779 206.64407,82.440678 199.59322,78.101694 193.08475,77.016949 187.66102,76.474576 H 181.69492 L 178.44068,84.067796 170.30508,84.610169 H 164.33898 161.62712 L 160.54237,87.864406 148.0678,92.203389 130.71186,97.084745 126.91525,98.169491 122.57627,99.254237 Z"
     id="path3959"
     inkscape:connector-curvature="0" />
  <path
     style="fill:none;stroke:#000000;stroke-width:1px;stroke-linecap:butt;stroke-linejoin:miter;stroke-opacity:1"
     d="M 323.79661,2.169491 325.42373,11.38983 328.67797,17.898305 330.84746,22.779661 333.55932,30.372881 337.89831,35.254237 V 39.59322 L 333.55932,46.101694 318.37288,56.949152 309.69492,61.288135 303.18644,64.542372 297.76271,67.79661 291.79661,71.59322 288.54237,75.38983 V 78.644067 L 288,82.440678 287.45763,85.694915 286.91525,88.406779 288,93.288135 289.62712,98.169491 286.91525,93.830508 283.11864,90.033898 279.32203,90.576271 273.89831,92.745762 270.64407,94.372881 264.67797,97.084745 278.77966,104.67797 287.45763,110.64407 290.71186,116.61017 285.28814,128 286.91525,138.30508 285.83051,178.98305 279.86441,177.8983 274.98305,179.52542 278.23729,188.74576 286.91525,197.9661 295.59322,200.67797 299.9322,193.62712 305.89831,187.66102 313.49153,183.32203 323.25424,184.40678 332.47458,184.94915 350.37288,182.77966 H 356.88136 L 365.01695,181.69491 363.38983,176.81356 348.74576,173.55932 H 344.94915 L 333.55932,174.64407 321.62712,176.81356 301.55932,182.23729 297.22034,180.0678 301.01695,166.50847 V 156.74576 L 302.1017,147.52542 304.27119,138.84746 V 129.62712 L 305.35593,120.94915 309.15254,114.44068 319.45763,114.98305 337.35593,113.35593 353.62712,109.55932 368.27119,103.59322 375.32203,97.084745 382.91525,99.254237 V 106.84746 L 386.71186,119.32203 384.54237,147.52542 386.71186,172.47458 384.54237,197.42373 384,218.57627 V 237.55932 L 386.71186,285.83051 398.1017,427.38983 387.25424,434.44068 382.37288,433.35593 375.32203,434.44068 375.86441,439.86441 382.37288,446.37288 388.33898,449.62712 389.9661,461.55932 V 471.86441 L 392.13559,476.74576 397.01695,480.54237 405.15254,478.91525 411.11864,477.83051 415.45763,471.32203 419.25424,455.05085 420.88136,434.98305 418.16949,420.88136 401.35593,264.13559 399.18644,250.0339 400.81356,236.47458 401.35593,217.49153 400.27119,195.79661 V 158.37288 L 401.35593,125.83051 402.44068,112.81356 399.72881,98.711864 394.30509,89.491525 386.16949,88.949152 375.86441,93.288135 355.25424,104.67797 339.52542,107.9322 330.30509,109.55932 H 320 310.77966 L 303.18644,104.67797 297.22034,99.254237 296.13559,90.033898 V 76.474576 L 306.44068,69.966101 331.9322,51.525423 341.15254,44.474576 342.77966,32.542372 338.98305,23.322033 336.81356,14.644067 332.47458,5.4237283 329.76271,2.169491 Z"
     id="path3963"
     inkscape:connector-curvature="0" />
  <path
     style="fill:none;stroke:#000000;stroke-width:1px;stroke-linecap:butt;stroke-linejoin:miter;stroke-opacity:1"
     d="M 329.76271,135.05085 323.79661,146.44068 327.05085,150.77966 340.61017,146.44068 347.66102,144.81356 357.42373,141.55932 354.16949,130.71186 345.49153,127.45763 333.01695,131.25424 Z"
     id="path3965"
     inkscape:connector-curvature="0" />
  <path
     style="fill:none;stroke:#000000;stroke-width:1px;stroke-linecap:butt;stroke-linejoin:miter;stroke-opacity:1"
     d="M 98.169492,151.32203 97.627119,161.62712 103.05085,164.33898 106.84746,164.88136 111.72881,170.30508 112.27119,177.35593 V 184.40678 L 111.72881,200.13559 107.38983,277.15254 106.84746,309.69492 102.50847,346.0339 98.711865,381.28814 96,391.59322 92.745763,394.84746 H 87.864407 L 82.983051,394.30508 81.898305,390.50847 78.101695,389.9661 V 397.55932 L 79.728814,407.32203 86.779661,440.94915 93.830509,438.77966 98.711865,425.76271 107.38983,401.8983 112.81356,388.33898 V 369.8983 L 114.98305,339.52542 116.0678,311.86441 118.77966,272.27119 118.23729,264.67797 120.40678,250.57627 120.94915,226.71186 123.11864,208.81356 123.66102,202.30508 V 197.42373 L 126.37288,188.74576 129.62712,178.98305 129.08475,173.01695 120.40678,161.62712 114.44068,155.11864 107.9322,150.77966 Z"
     id="path3967"
     inkscape:connector-curvature="0" />
</svg>
