<?xml version="1.0" encoding="UTF-8" standalone="no"?>
<!-- Created with Inkscape (http://www.inkscape.org/) -->

<svg
   xmlns:dc="http://purl.org/dc/elements/1.1/"
   xmlns:cc="http://creativecommons.org/ns#"
   xmlns:rdf="http://www.w3.org/1999/02/22-rdf-syntax-ns#"
   xmlns:svg="http://www.w3.org/2000/svg"
   xmlns="http://www.w3.org/2000/svg"
   xmlns:sodipodi="http://sodipodi.sourceforge.net/DTD/sodipodi-0.dtd"
   xmlns:inkscape="http://www.inkscape.org/namespaces/inkscape"
   version="1.1"
   id="svg4063"
   width="513"
   height="512"
   viewBox="0 0 513 512"
   sodipodi:docname="餘.svg"
   inkscape:version="0.92.4 (5da689c313, 2019-01-14)">
  <metadata
     id="metadata4069">
    <rdf:RDF>
      <cc:Work
         rdf:about="">
        <dc:format>image/svg+xml</dc:format>
        <dc:type
           rdf:resource="http://purl.org/dc/dcmitype/StillImage" />
        <dc:title></dc:title>
      </cc:Work>
    </rdf:RDF>
  </metadata>
  <defs
     id="defs4067" />
  <sodipodi:namedview
     pagecolor="#ffffff"
     bordercolor="#666666"
     borderopacity="1"
     objecttolerance="10"
     gridtolerance="10"
     guidetolerance="10"
     inkscape:pageopacity="0"
     inkscape:pageshadow="2"
     inkscape:window-width="1920"
     inkscape:window-height="1017"
     id="namedview4065"
     showgrid="false"
     inkscape:zoom="1.3037281"
     inkscape:cx="330.10277"
     inkscape:cy="316.36755"
     inkscape:window-x="-8"
     inkscape:window-y="-8"
     inkscape:window-maximized="1"
     inkscape:current-layer="svg4063" />
  <path
     style="fill:none;stroke:#000000;stroke-width:1px;stroke-linecap:butt;stroke-linejoin:miter;stroke-opacity:1"
     d="M 101.42373,89.491525 99.254237,98.169491 105.76271,101.9661 112.27119,109.01695 110.64407,115.52542 106.30508,121.49153 100.33898,135.05085 87.322034,155.11864 76.474576,174.10169 64,195.79661 47.186441,214.23729 34.169492,228.88136 21.694915,240.27119 10.305085,247.86441 4.8813559,252.20339 H 2.1694915 L 0,260.88136 1.0847458,264.67797 15.728814,257.08475 42.305085,237.01695 58.576271,215.86441 73.220339,197.9661 88.949153,176.27119 106.30508,152.40678 117.69492,135.05085 120.94915,132.88136 126.37288,129.62712 129.62712,128.54237 135.59322,123.11864 129.08475,113.8983 124.74576,107.38983 122.0339,102.50847 Z"
     id="path4073"
     inkscape:connector-curvature="0" />
  <path
     style="fill:none;stroke:#000000;stroke-width:1px;stroke-linecap:butt;stroke-linejoin:miter;stroke-opacity:1"
     d="M 143.72881,116.0678 141.55932,123.11864 H 150.77966 L 165.42373,136.13559 175.18644,143.72881 184.94915,145.8983 190.91525,145.35593 V 139.9322 L 191.45763,134.50847 188.20339,129.08475 184.40678,122.57627 177.89831,119.86441 162.71186,115.52542 Z"
     id="path4075"
     inkscape:connector-curvature="0" />
  <path
     style="fill:none;stroke:#000000;stroke-width:1px;stroke-linecap:butt;stroke-linejoin:miter;stroke-opacity:1"
     d="M 116.61017,168.67797 122.57627,175.72881 128,179.52542 135.05085,183.86441 142.64407,184.40678 151.32203,182.77966 157.28814,181.15254 155.11864,175.72881 153.49153,171.9322 149.69492,168.67797 141.55932,165.42373 H 135.59322 130.71186 120.94915 Z"
     id="path4077"
     inkscape:connector-curvature="0" />
  <path
     style="fill:none;stroke:#000000;stroke-width:1px;stroke-linecap:butt;stroke-linejoin:miter;stroke-opacity:1"
     d="M 85.152542,213.69491 87.322034,206.10169 88.949153,202.30508 90.033898,199.05085 75.932203,203.38983 66.711864,215.32203 60.20339,229.9661 62.372881,236.47458 62.915254,244.61017 67.79661,250.0339 71.59322,251.66102 75.389831,256.54237 77.559322,261.42373 80.813559,282.0339 81.355932,303.72881 91.118644,308.0678 96,309.69492 94.915254,295.59322 92.20339,286.37288 97.084746,284.20339 104.13559,286.91525 113.35593,284.74576 128,278.77966 137.76271,274.44068 145.35593,272.27119 149.69492,267.38983 146.44068,260.88136 H 135.59322 L 130.16949,263.05085 128.54237,267.9322 110.64407,274.98305 93.288136,279.32203 87.322034,245.69491 99.254237,234.84746 114.98305,225.62712 134.50847,217.49153 153.49153,209.35593 163.25424,210.98305 162.71186,227.79661 162.16949,253.28814 V 284.20339 L 163.25424,299.38983 V 305.35593 L 154.0339,306.44068 144.81356,308.0678 132.88136,310.77966 120.40678,315.66102 106.84746,318.37288 101.9661,320.54237 99.254237,323.79661 94.372881,324.88136 93.830509,320.54237 91.661017,317.28814 84.067797,315.11864 80.813559,330.30508 82.983051,344.94915 V 367.18644 L 81.898305,376.40678 80.271187,383.45763 75.389831,394.84746 67.254237,402.98305 55.864407,408.94915 54.237288,407.32203 52.61017,395.38983 50.983051,416 55.864407,427.38983 H 62.915254 L 74.847458,418.71186 165.42373,364.47458 173.01695,374.23729 186.0339,384.54237 194.16949,385.08475 197.9661,383.45763 V 373.15254 L 196.88136,365.55932 194.16949,357.9661 190.37288,349.83051 186.57627,342.77966 179.52542,335.72881 168.13559,328.67797 153.49153,321.62712 148.61017,318.91525 156.20339,337.8983 160.54237,346.0339 162.16949,355.79661 153.49153,360.67797 87.322034,391.59322 84.61017,387.25424 90.576271,365.01695 94.372881,340.0678 100.88136,339.52542 119.32203,331.9322 144.27119,322.71186 171.38983,314.57627 184.40678,309.69492 185.49153,305.35593 175.18644,301.55932 171.38983,275.52542 174.1017,254.91525 170.84746,229.9661 178.44068,215.86441 187.11864,209.8983 190.91525,207.18644 193.62712,200.67797 188.74576,194.71186 167.05085,184.94915 157.83051,188.20339 Z"
     id="path4079"
     inkscape:connector-curvature="0" />
  <path
     style="fill:none;stroke:#000000;stroke-width:1px;stroke-linecap:butt;stroke-linejoin:miter;stroke-opacity:1"
     d="M 257.08475,82.440678 251.66102,90.576271 259.79661,94.915254 267.9322,95.457627 274.44068,99.254237 277.15254,105.76271 269.55932,134.50847 252.20339,175.72881 227.79661,208.81356 200.13559,237.01695 179.52542,248.40678 158.37288,256.54237 172.47458,262.50847 194.71186,252.20339 219.11864,234.84746 235.38983,218.0339 250.57627,194.71186 262.50847,173.01695 278.23729,138.30508 291.79661,116.0678 303.72881,102.50847 307.52542,99.254237 306.44068,92.203389 299.9322,85.152542 291.25424,82.98305 285.28814,81.898305 280.40678,85.694915 273.35593,82.440678 264.67797,81.355932 Z"
     id="path4081"
     inkscape:connector-curvature="0" />
  <path
     style="fill:none;stroke:#000000;stroke-width:1px;stroke-linecap:butt;stroke-linejoin:miter;stroke-opacity:1"
     d="M 311.86441,94.915254 327.05085,100.33898 331.9322,104.67797 342.23729,110.10169 352.54237,116.0678 370.44068,131.79661 385.08475,145.35593 401.89831,158.37288 419.52542,167.59322 442.57627,177.08475 484.0678,193.08475 512.81356,200.94915 513.35593,216.94915 507.38983,215.05085 488.13559,212.61017 473.22034,210.16949 463.72881,213.9661 456.40678,217.76271 454.50848,221.01695 449.89831,221.28814 441.22034,219.9322 418.71187,207.72881 407.05085,197.9661 394.0339,183.59322 377.22034,157.28814 357.15254,132.61017 353.35593,129.62712 344.40678,125.01695 338.16949,120.13559 329.22034,116.88136 318.64407,112.81356 313.76271,110.91525 311.32203,104.94915 307.52542,99.254237 Z"
     id="path4083"
     inkscape:connector-curvature="0" />
  <path
     style="fill:none;stroke:#000000;stroke-width:1px;stroke-linecap:butt;stroke-linejoin:miter;stroke-opacity:1"
     d="M 290.16949,127.18644 296.40678,128 299.66102,124.74576 304.27119,126.91525 312.13559,132.33898 322.71186,143.72881 325.42373,154.30508 319.72881,166.23729 314.30509,176 310.23729,187.11864 309.69492,197.69491 310.77966,205.28814 322.71186,195.79661 335.18644,188.47458 342.77966,187.66102 349.28814,190.10169 352.27119,193.8983 352,197.69491 349.28814,199.59322 339.25424,210.16949 307.25424,236.74576 306.16949,264.67797 310.23729,267.38983 318.64407,265.22034 332.74576,259.52542 342.77966,254.37288 349.01695,250.57627 355.25424,250.0339 363.11864,251.11864 368.81356,253.28814 372.61017,258.16949 372.88136,262.50847 368.54237,268.20339 359.05085,277.42373 349.83051,279.32203 336.54237,284.47458 317.28814,294.77966 309.9661,296.40678 308.0678,300.74576 307.25424,309.69491 305.89831,403.79661 308.33898,407.86441 309.9661,411.66102 312.13559,416.54237 315.9322,424.67797 313.76271,432.54237 309.9661,444.20339 305.35593,453.69492 300.74576,459.38983 297.22034,459.9322 293.15254,456.67797 288.54237,452.0678 284.20339,447.45763 280.40678,439.32203 280.13559,433.35593 276.88136,431.45763 271.18644,426.84746 266.57627,422.50847 260.0678,418.16949 257.08475,414.91525 251.66102,403.52542 260.61017,407.05085 276.0678,412.47458 286.64407,413.55932 292.0678,411.38983 293.69492,407.86441 293.9661,403.52542 294.77966,394.30508 V 383.72881 L 295.59322,362.30508 299.11864,306.16949 297.76271,305.08475 293.15254,301.83051 287.45763,303.72881 282.0339,306.16949 275.52542,310.23729 270.37288,315.11864 265.49153,319.72881 260.88136,322.98305 250.0339,320.81356 241.89831,317.28814 238.91525,311.59322 231.32203,304 226.98305,297.49153 225.62712,288.27119 227.79661,285.01695 232.67797,285.83051 239.18644,288.54237 238.64407,295.59322 255.18644,289.8983 296.94915,273.8983 296.40678,246.23729 286.1017,240.27119 271.45763,236.20339 263.32203,233.22034 256.27119,225.08475 253.28814,217.22034 H 260.88136 L 282.84746,214.23729 293.9661,212.61017 298.30509,204.47458 302.91525,190.91525 302.64407,177.08475 307.25424,155.11864 306.16949,145.35593 298.30509,134.50847 290.44068,130.98305 Z"
     id="path4085"
     inkscape:connector-curvature="0" />
  <path
     style="fill:none;stroke:#000000;stroke-width:1px;stroke-linecap:butt;stroke-linejoin:miter;stroke-opacity:1"
     d="M 242.71186,324.33898 237.01695,334.64407 223.18644,360.13559 215.05085,371.79661 211.25424,371.25424 210.44068,397.28814 219.66102,403.25424 228.33898,399.18644 242.16949,384.27119 258.16949,365.28814 260.88136,357.9661 257.89831,350.10169 251.66102,339.79661 246.23729,336.27119 241.89831,325.42373 Z"
     id="path4087"
     inkscape:connector-curvature="0" />
  <path
     style="fill:none;stroke:#000000;stroke-width:1px;stroke-linecap:butt;stroke-linejoin:miter;stroke-opacity:1"
     d="M 351.45763,315.9322 353.62712,321.08475 356.0678,322.98305 360.40678,325.42373 366.37288,327.32203 370.98305,335.18644 375.86441,344.13559 379.66102,359.86441 383.72881,373.15254 387.25424,385.35593 389.42373,393.22034 390.23729,398.64407 396.47458,399.18644 401.35593,395.11864 406.77966,386.71186 410.57627,377.76271 V 357.69492 L 405.42373,343.32203 401.62712,333.83051 392.13559,325.9661 378.84746,319.72881 368.81356,315.38983 357.69492,313.76271 Z"
     id="path4089"
     inkscape:connector-curvature="0" />
</svg>
