<?xml version="1.0" encoding="UTF-8" standalone="no"?>
<!-- Created with Inkscape (http://www.inkscape.org/) -->

<svg
   xmlns:dc="http://purl.org/dc/elements/1.1/"
   xmlns:cc="http://creativecommons.org/ns#"
   xmlns:rdf="http://www.w3.org/1999/02/22-rdf-syntax-ns#"
   xmlns:svg="http://www.w3.org/2000/svg"
   xmlns="http://www.w3.org/2000/svg"
   xmlns:sodipodi="http://sodipodi.sourceforge.net/DTD/sodipodi-0.dtd"
   xmlns:inkscape="http://www.inkscape.org/namespaces/inkscape"
   version="1.1"
   id="svg3817"
   width="513"
   height="512"
   viewBox="0 0 513 512"
   sodipodi:docname="收.svg"
   inkscape:version="0.92.4 (5da689c313, 2019-01-14)">
  <metadata
     id="metadata3823">
    <rdf:RDF>
      <cc:Work
         rdf:about="">
        <dc:format>image/svg+xml</dc:format>
        <dc:type
           rdf:resource="http://purl.org/dc/dcmitype/StillImage" />
        <dc:title></dc:title>
      </cc:Work>
    </rdf:RDF>
  </metadata>
  <defs
     id="defs3821" />
  <sodipodi:namedview
     pagecolor="#ffffff"
     bordercolor="#666666"
     borderopacity="1"
     objecttolerance="10"
     gridtolerance="10"
     guidetolerance="10"
     inkscape:pageopacity="0"
     inkscape:pageshadow="2"
     inkscape:window-width="1920"
     inkscape:window-height="1017"
     id="namedview3819"
     showgrid="false"
     inkscape:zoom="1.84375"
     inkscape:cx="254.18584"
     inkscape:cy="280.24892"
     inkscape:window-x="-8"
     inkscape:window-y="-8"
     inkscape:window-maximized="1"
     inkscape:current-layer="svg3817" />
  <path
     style="fill:none;stroke:#000000;stroke-width:1px;stroke-linecap:butt;stroke-linejoin:miter;stroke-opacity:1"
     d="M 106.84746,78.101694 111.72881,85.152542 117.69492,88.406779 121.49153,90.576271 124.74576,97.084745 124.20339,104.13559 123.66102,109.55932 123.11864,118.77966 122.57627,124.20339 V 129.62712 L 123.11864,134.50847 121.49153,143.72881 V 148.61017 L 120.40678,158.91525 119.86441,168.67797 V 177.8983 187.11864 L 118.77966,193.62712 119.86441,206.64407 117.69492,233.22034 116.61017,245.15254 116.0678,257.62712 V 269.01695 L 116.61017,277.69492 C 116.61017,277.69492 117.69492,289.08475 117.15254,291.25424 116.61017,293.42373 115.52542,310.77966 115.52542,310.77966 L 113.89831,323.25424 117.15254,329.22034 116.61017,335.18644 115.52542,344.40678 114.98305,352 113.35593,357.9661 V 362.84746 367.18644 L 112.27119,375.86441 110.64407,381.83051 108.47458,386.16949 107.38983,394.84746 V 403.52542 L 108.47458,410.0339 111.72881,418.16949 114.44068,425.22034 117.15254,428.47458 119.86441,432.27119 122.57627,434.98305 126.91525,431.72881 130.71186,424.67797 131.79661,415.45763 V 400.27119 L 128,372.0678 128.54237,355.25424 127.45763,337.8983 V 322.71186 L 126.37288,297.76271 128,268.47458 127.45763,213.15254 125.83051,181.15254 123.66102,168.13559 126.37288,157.83051 128,143.72881 129.08475,131.25424 132.33898,124.74576 141.01695,116.61017 145.35593,105.22034 148.0678,99.254237 V 94.915254 L 142.64407,88.406779 137.22034,81.898305 131.79661,77.016949 124.20339,75.932203 116.61017,75.38983 Z"
     id="path3827"
     inkscape:connector-curvature="0" />
  <path
     style="fill:none;stroke:#000000;stroke-width:1px;stroke-linecap:butt;stroke-linejoin:miter;stroke-opacity:1"
     d="M 28.745763,178.98305 26.576271,189.83051 27.661017,195.79661 33.084746,199.59322 39.050847,205.55932 42.305085,210.44068 47.728814,215.32203 47.186441,224 49.355932,231.05085 V 242.44068 L 50.440678,250.0339 50.983051,257.62712 54.237288,269.01695 52.61017,274.98305 49.355932,277.15254 41.220339,283.66102 33.627119,289.62712 24.40678,295.59322 21.152542,296.67797 15.728814,295.59322 H 14.644068 L 12.474576,294.50847 9.7627119,292.88136 7.5932203,303.18644 V 310.77966 320 L 10.847458,326.50847 17.355932,335.72881 21.694915,339.52542 29.288136,342.23729 38.508475,339.52542 44.474576,336.27119 50.983051,332.47458 52.61017,327.59322 55.322034,321.08475 61.830509,311.86441 67.79661,302.10169 72.135593,296.13559 75.389831,286.37288 79.186441,276.0678 81.898305,270.64407 85.152542,265.22034 90.033898,261.42373 97.084746,252.74576 97.627119,244.0678 96.542373,240.27119 92.20339,239.18644 87.322034,245.69491 82.983051,249.49153 80.271187,253.83051 78.644068,256.54237 75.389831,259.79661 74.847458,261.42373 71.59322,261.9661 69.423729,261.42373 68.881356,257.62712 67.79661,252.20339 69.423729,245.69491 71.59322,233.22034 71.050848,225.62712 V 218.0339 L 70.508475,207.72881 71.050848,199.59322 67.79661,194.71186 60.745763,187.66102 53.152542,182.23729 45.016949,178.44068 40.135593,176.81356 H 35.254237 Z"
     id="path3829"
     inkscape:connector-curvature="0" />
  <path
     style="fill:none;stroke:#000000;stroke-width:1px;stroke-linecap:butt;stroke-linejoin:miter;stroke-opacity:1"
     d="M 258.16949,43.932203 257.08475,52.067796 259.79661,58.576271 260.88136,64.542372 261.9661,68.881355 V 73.762711 L 263.05085,79.728813 259.25424,86.779661 257.08475,97.084745 254.91525,105.76271 252.74576,111.18644 248.40678,119.86441 247.32203,128.54237 244.61017,136.13559 241.89831,141.01695 239.18644,149.15254 235.38983,158.91525 232.67797,163.79661 226.16949,171.38983 221.28814,180.61017 218.0339,186.57627 212.61017,190.91525 205.55932,196.88136 202.30508,202.84746 197.9661,203.38983 193.08475,201.76271 187.11864,196.33898 180.0678,194.16949 176.27119,190.91525 167.59322,188.20339 164.33898,184.94915 159.45763,186.57627 158.91525,194.16949 162.71186,200.13559 170.30508,202.30508 176.27119,206.64407 182.23729,212.61017 184.94915,213.15254 180.61017,218.0339 178.98305,224 186.0339,224.54237 190.91525,224 196.33898,221.28814 199.59322,226.71186 207.72881,240.81356 214.23729,247.32203 222.37288,255.45763 226.71186,260.33898 232.13559,266.30508 235.38983,269.55932 241.89831,277.69492 244.61017,280.40678 251.11864,287.45763 256,293.9661 259.25424,297.76271 263.59322,303.18644 267.38983,305.8983 263.05085,309.15254 256.54237,314.57627 248.40678,323.25424 245.69492,328.13559 240.27119,331.9322 235.9322,333.55932 227.79661,338.44068 220.74576,345.49153 212.0678,349.83051 204.47458,350.91525 192.54237,357.42373 183.32203,360.67797 176.27119,362.30508 167.59322,363.9322 163.25424,365.55932 159.45763,364.47458 154.57627,362.84746 150.77966,365.01695 V 367.72881 L 159.45763,372.0678 H 163.79661 L 168.67797,373.15254 170.30508,371.52542 176.27119,370.44068 H 181.69492 L 195.25424,369.35593 200.13559,365.55932 207.18644,364.47458 215.32203,360.67797 221.83051,357.9661 226.16949,356.88136 232.67797,352 239.18644,347.66102 247.86441,343.32203 253.83051,336.81356 260.33898,329.76271 267.38983,324.33898 274.98305,318.37288 278.23729,314.57627 283.66102,318.37288 288.54237,323.79661 296.13559,329.22034 299.9322,334.10169 305.89831,337.8983 314.0339,343.86441 321.08475,348.20339 325.42373,353.62712 329.22034,355.79661 333.55932,357.9661 340.0678,363.38983 346.57627,366.64407 352.54237,369.8983 361.76271,373.15254 365.01695,376.94915 369.35593,379.66102 372.61017,380.74576 378.57627,384 387.25424,380.74576 397.55932,378.0339 400.27119,373.69492 408.40678,370.44068 422.50848,367.72881 427.9322,365.01695 432.81356,363.9322 H 439.32203 444.74576 452.33898 L 463.72881,363.38983 477.28814,360.13559 V 356.88136 351.45763 H 470.77966 L 460.47458,347.11864 450.71186,344.94915 440.40678,342.77966 428.47458,336.81356 417.08475,332.47458 405.15254,328.67797 398.1017,327.59322 390.50847,325.9661 386.16949,322.71186 371.52542,318.91525 366.64407,314.57627 359.59322,312.94915 H 357.42373 L 352,316.74576 338.98305,311.86441 324.88136,304.81356 297.76271,290.16949 298.84746,284.20339 304.27119,279.32203 308.0678,270.64407 311.32203,261.42373 316.20339,254.91525 321.62712,245.15254 325.9661,234.84746 328.67797,229.42373 329.22034,218.57627 321.08475,203.38983 310.77966,195.79661 300.47458,195.25424 292.33898,196.88136 287.45763,199.05085 292.88136,203.38983 299.38983,210.44068 302.64407,220.74576 V 227.25424 L 301.01695,235.38983 298.84746,243.52542 295.59322,251.11864 292.33898,261.42373 287.45763,267.38983 282.57627,272.81356 278.23729,273.35593 272.27119,270.64407 261.9661,263.05085 257.62712,259.79661 248.40678,253.83051 238.64407,242.98305 231.59322,237.55932 224.54237,228.88136 220.74576,223.45763 215.86441,219.66102 212.61017,216.40678 209.89831,212.61017 216.94915,210.44068 224.54237,199.59322 248.40678,168.67797 267.9322,130.71186 277.15254,99.79661 278.77966,92.203389 282.0339,86.237288 280.94915,80.271186 280.40678,77.559322 279.86441,73.220339 278.77966,70.508474 276.61017,67.254237 273.89831,62.915254 271.18644,58.576271 270.1017,55.864406 266.30509,51.525423 263.59322,47.728813 Z"
     id="path3831"
     inkscape:connector-curvature="0" />
  <path
     style="fill:none;stroke:#000000;stroke-width:1px;stroke-linecap:butt;stroke-linejoin:miter;stroke-opacity:1"
     d="M 271.18644,170.84746 266.84746,171.9322 272.27119,176.81356 277.69492,177.8983 287.45763,177.35593 297.76271,173.55932 316.74576,169.76271 342.77966,163.25424 355.79661,161.08475 366.1017,157.83051 H 373.69492 L 389.9661,151.86441 399.18644,151.32203 410.57627,149.69491 419.79661,145.35593 421.9661,141.55932 418.16949,135.59322 409.49153,132.33898 405.15254,129.62712 397.55932,130.16949 387.25424,131.79661 382.37288,133.42373 380.74576,136.67797 378.0339,139.9322 374.77966,142.10169 367.18644,143.72881 357.42373,147.52542 346.57627,150.77966 336.81356,153.49153 328.67797,156.20339 321.08475,158.37288 312.94915,162.16949 307.52542,163.25424 301.01695,164.33898 296.67797,165.42373 H 290.16949 L 279.32203,169.22034 Z"
     id="path3833"
     inkscape:connector-curvature="0" />
</svg>
