<?xml version="1.0" encoding="UTF-8" standalone="no"?>
<!-- Created with Inkscape (http://www.inkscape.org/) -->

<svg
   xmlns:dc="http://purl.org/dc/elements/1.1/"
   xmlns:cc="http://creativecommons.org/ns#"
   xmlns:rdf="http://www.w3.org/1999/02/22-rdf-syntax-ns#"
   xmlns:svg="http://www.w3.org/2000/svg"
   xmlns="http://www.w3.org/2000/svg"
   xmlns:sodipodi="http://sodipodi.sourceforge.net/DTD/sodipodi-0.dtd"
   xmlns:inkscape="http://www.inkscape.org/namespaces/inkscape"
   version="1.1"
   id="svg3921"
   width="513"
   height="512"
   viewBox="0 0 513 512"
   sodipodi:docname="暑.svg"
   inkscape:version="0.92.4 (5da689c313, 2019-01-14)">
  <metadata
     id="metadata3927">
    <rdf:RDF>
      <cc:Work
         rdf:about="">
        <dc:format>image/svg+xml</dc:format>
        <dc:type
           rdf:resource="http://purl.org/dc/dcmitype/StillImage" />
        <dc:title></dc:title>
      </cc:Work>
    </rdf:RDF>
  </metadata>
  <defs
     id="defs3925" />
  <sodipodi:namedview
     pagecolor="#ffffff"
     bordercolor="#666666"
     borderopacity="1"
     objecttolerance="10"
     gridtolerance="10"
     guidetolerance="10"
     inkscape:pageopacity="0"
     inkscape:pageshadow="2"
     inkscape:window-width="1920"
     inkscape:window-height="1017"
     id="namedview3923"
     showgrid="false"
     inkscape:zoom="1.84375"
     inkscape:cx="287.71504"
     inkscape:cy="228.02473"
     inkscape:window-x="-8"
     inkscape:window-y="-8"
     inkscape:window-maximized="1"
     inkscape:current-layer="svg3921" />
  <path
     style="fill:none;stroke:#000000;stroke-width:1px;stroke-linecap:butt;stroke-linejoin:miter;stroke-opacity:1"
     d="M 142.64407,28.203389 136.13559,43.38983 134.50847,48.271186 136.67797,51.525423 141.01695,58.576271 147.52542,64.542372 155.66102,68.881355 160,79.18644 V 91.118644 L 162.71186,105.22034 165.9661,123.66102 169.22034,136.67797 171.38983,143.72881 170.84746,148.0678 163.25424,146.44068 151.86441,145.8983 144.27119,148.0678 H 138.84746 L 136.67797,149.15254 135.59322,153.49153 137.76271,158.91525 141.55932,164.88136 145.35593,171.38983 152.40678,176.81356 157.28814,180.0678 164.88136,176.81356 173.01695,169.76271 184.40678,163.79661 198.50847,162.16949 222.37288,151.32203 241.35593,146.98305 248.94915,144.81356 251.11864,150.77966 251.66102,156.74576 254.37288,161.08475 255.45763,166.50847 258.71186,168.13559 C 258.71186,168.13559 265.76271,169.22034 267.38983,169.76271 269.01695,170.30508 270.1017,169.76271 270.1017,169.76271 L 270.64407,163.25424 269.01695,156.20339 268.47458,146.98305 269.55932,136.13559 271.72881,126.91525 274.98305,118.23729 286.91525,54.779661 289.62712,48.813559 291.25424,40.135593 288.54237,35.254237 286.91525,27.661016 283.66102,22.237288 276.61017,21.152542 270.1017,17.898305 264.13559,17.355932 250.0339,17.898305 221.28814,20.067796 208.81356,22.779661 201.22034,26.033898 195.25424,27.661016 184.94915,31.999999 181.15254,36.338983 V 42.305084 L 186.0339,47.18644 193.08475,54.237288 201.22034,53.694915 217.49153,46.101694 228.88136,39.59322 235.38983,36.881355 252.20339,36.338983 265.22034,34.169491 271.18644,35.79661 267.9322,44.474576 264.67797,61.288135 261.9661,73.762711 260.33898,85.152542 257.08475,99.254237 257.62712,110.64407 C 257.62712,110.64407 257.62712,116.0678 257.08475,118.77966 256.54237,121.49153 254.91525,128 254.91525,128 L 253.83051,130.16949 H 245.69492 239.18644 L 229.9661,131.79661 215.86441,134.50847 196.33898,137.22034 186.57627,140.47458 181.15254,138.84746 182.23729,129.62712 181.15254,115.52542 181.69492,101.9661 177.35593,86.779661 175.18644,74.305084 V 68.338983 L 174.64407,64.542372 170.84746,58.576271 166.50847,52.067796 161.62712,42.847457 160,37.966101 155.11864,34.711864 151.86441,31.999999 149.69492,29.830508 Z"
     id="path3931"
     inkscape:connector-curvature="0" />
  <path
     style="fill:none;stroke:#000000;stroke-width:1px;stroke-linecap:butt;stroke-linejoin:miter;stroke-opacity:1"
     d="M 196.33898,97.627118 196.88136,103.59322 202.30508,104.13559 205.55932,104.67797 213.15254,103.59322 222.91525,99.79661 230.50847,96.542372 238.64407,94.372881 240.81356,89.491525 242.44068,84.067796 237.55932,83.525423 232.67797,82.98305 H 226.71186 L 220.74576,85.694915 213.15254,88.406779 206.64407,91.118644 201.76271,92.745762 198.50847,94.915254 Z"
     id="path3933"
     inkscape:connector-curvature="0" />
  <path
     style="fill:none;stroke:#000000;stroke-width:1px;stroke-linecap:butt;stroke-linejoin:miter;stroke-opacity:1"
     d="M 238.64407,100.88136 237.01695,106.84746 235.9322,110.10169 245.15254,105.76271 248.40678,97.627118 244.61017,94.915254 Z"
     id="path3935"
     inkscape:connector-curvature="0" />
  <path
     style="fill:none;stroke:#000000;stroke-width:1px;stroke-linecap:butt;stroke-linejoin:miter;stroke-opacity:1"
     d="M 188.20339,175.18644 188.74576,180.61017 189.83051,184.94915 192.54237,187.66102 194.71186,192 196.33898,197.42373"
     id="path3937"
     inkscape:connector-curvature="0" />
  <path
     style="fill:none;stroke:#000000;stroke-width:1px;stroke-linecap:butt;stroke-linejoin:miter;stroke-opacity:1"
     d="M 196.33898,197.42373 189.83051,200.13559 182.77966,201.22034 175.72881,202.84746 169.22034,204.47458 162.71186,207.18644 157.83051,207.72881 151.86441,209.35593 147.52542,210.98305 H 138.30508 L 132.33898,212.0678 129.08475,210.98305 125.28814,209.35593 122.0339,208.81356 H 118.77966 L 114.44068,212.0678 113.35593,216.40678 112.27119,223.45763 111.18644,229.9661 112.27119,238.64407 116.0678,245.15254 122.57627,253.83051 131.25424,256 138.30508,256.54237 145.35593,251.66102 150.23729,246.23729 160,240.81356 175.72881,233.22034 203.9322,221.28814 199.05085,239.18644 V 254.91525 L 202.84746,265.22034 V 274.44068 L 204.47458,279.86441 V 282.57627 H 210.98305 L 219.66102,280.40678 221.83051,271.72881 223.45763,263.05085 226.71186,254.91525 225.08475,244.0678 225.62712,236.47458 228.88136,218.57627 V 212.61017 L 234.84746,210.98305 242.98305,209.35593 254.91525,206.64407 265.76271,205.01695 276.61017,202.84746 284.74576,198.50847 293.9661,190.91525 291.79661,185.49153 286.91525,182.23729 282.0339,178.98305 270.1017,179.52542 258.71186,183.32203 245.69492,187.11864 237.01695,188.20339 229.9661,190.91525 226.71186,191.45763 225.08475,187.11864"
     id="path3939"
     inkscape:connector-curvature="0" />
  <path
     style="fill:none;stroke:#000000;stroke-width:1px;stroke-linecap:butt;stroke-linejoin:miter;stroke-opacity:1"
     d="M 188.20339,175.18644 198.50847,173.55932 201.76271,175.18644 207.72881,178.98305 218.0339,182.77966 226.71186,191.45763"
     id="path3941"
     inkscape:connector-curvature="0" />
  <path
     style="fill:none;stroke:#000000;stroke-width:1px;stroke-linecap:butt;stroke-linejoin:miter;stroke-opacity:1"
     d="M 305.89831,135.59322 307.52542,140.47458 311.32203,143.72881 314.0339,147.52542 312.94915,154.57627 309.15254,164.33898 304.81356,171.9322 297.22034,178.44068 291.79661,185.49153 274.44068,212.0678 262.50847,228.88136 245.69492,254.37288 232.13559,276.61017 220.74576,289.08475 210.98305,298.30508 201.76271,308.61017 196.33898,314.57627 193.62712,316.74576 170.30508,344.94915 150.23729,362.30508 142.1017,371.52542 130.16949,382.37288 120.40678,388.88136 100.88136,405.69492 88.40678,414.91525 79.728814,423.05085 67.79661,433.89831 56.949153,440.94915 39.59322,453.9661 29.288136,459.9322 24.949153,462.64407 18.983051,464.81356 10.305085,464.27119 20.61017,469.69492 28.20339,472.40678 37.966102,464.27119 52.067797,458.30508 64.542373,451.79661 77.016949,445.28814 91.118644,435.52542 103.05085,426.30508 114.98305,413.83051 125.28814,402.98305 133.42373,397.55932 139.38983,386.71186 143.18644,375.86441 151.32203,366.64407 158.91525,360.67797 196.88136,328.67797 216.94915,306.44068 228.33898,291.79661 245.69492,272.81356 260.88136,257.08475 271.18644,241.35593 285.28814,224.54237 302.64407,200.67797 313.49153,182.23729 328.67797,165.42373 339.52542,150.77966 347.11864,136.67797 338.98305,131.25424 329.76271,126.37288 317.28814,127.45763 Z"
     id="path3943"
     inkscape:connector-curvature="0" />
  <path
     style="fill:none;stroke:#000000;stroke-width:1px;stroke-linecap:butt;stroke-linejoin:miter;stroke-opacity:1"
     d="M 1.6271186,299.38983 0.54237288,317.83051 1.0847458,325.42373 6.5084746,331.38983 11.932203,335.72881 17.355932,342.23729 H 27.118644 L 37.966102,339.52542 47.728814,331.38983 54.237288,325.9661 56.40678,320 66.711864,316.20339 75.932203,312.40678 91.118644,309.69492 142.64407,289.08475 155.66102,285.83051 162.16949,282.57627 172.47458,278.77966 186.0339,273.8983 196.33898,271.72881 229.42373,265.76271 286.37288,256.54237 327.59322,256 365.01695,257.08475 392.67797,265.76271 410.57627,270.10169 C 410.57627,270.10169 421.9661,282.57627 424.13559,283.11864 426.30509,283.66102 443.11864,293.42373 443.11864,293.42373 L 455.59322,299.38983 469.15254,302.10169 484.33898,292.33898 482.16949,283.11864 478.91525,275.52542 475.66102,268.47458 468.61017,260.88136 462.1017,257.08475 408.94915,235.38983 402.44068,233.76271 399.18644,237.55932 396.47458,239.72881 368.27119,244.0678 335.18644,246.23729 297.76271,250.0339 267.38983,251.66102 234.84746,256 186.0339,266.84746 32.542373,301.55932 23.864407,306.44068 16.813559,304.81356 13.016949,303.72881 8.6779661,301.55932 2.1694915,301.01695 1.0847458,325.42373"
     id="path3945"
     inkscape:connector-curvature="0" />
  <path
     style="fill:none;stroke:#000000;stroke-width:1px;stroke-linecap:butt;stroke-linejoin:miter;stroke-opacity:1"
     d="M 167.59322,317.28814 170.30508,327.05085 174.64407,331.38983 178.44068,338.98305 181.69492,349.83051 184.94915,367.18644 193.08475,444.74576 198.50847,453.9661 207.72881,460.47458 218.0339,454.50847 273.89831,448.54237 281.49153,450.16949 284.20339,453.42373 289.62712,461.55932 293.9661,471.32203 297.22034,478.37288 302.64407,480.54237 307.52542,473.49153 303.72881,454.50847 302.64407,432.27119 305.35593,407.86441 306.98305,375.32203 310.77966,342.77966 V 336.27119 L 314.57627,329.76271 316.74576,322.71186 308.61017,307.52542 301.01695,298.84746 295.05085,293.9661 279.32203,297.22034 262.50847,302.64407 242.44068,308.0678 229.9661,314.0339 225.08475,315.11864 229.42373,323.79661 241.89831,329.76271 249.49153,332.47458 H 256 L 263.05085,327.05085 273.89831,321.08475 285.83051,316.74576 292.88136,318.91525 V 331.9322 L 289.62712,354.16949 289.08475,385.08475 V 413.83051 L 288.54237,433.89831 285.83051,437.15254 272.81356,431.18644 H 259.25424 L 243.52542,432.81356 216.40678,441.49153 213.15254,424.13559 211.52542,405.69492 V 396.47458 394.84746 H 221.83051 L 243.52542,388.33898 254.91525,382.91525 259.79661,375.86441 256.54237,369.8983 248.40678,367.18644 234.84746,373.15254 224.54237,376.40678 212.0678,379.11864 208.27119,362.30508 213.69492,350.37288 214.23729,341.69492 209.35593,331.9322 196.88136,328.67797 181.69492,317.28814 Z"
     id="path3947"
     inkscape:connector-curvature="0" />
</svg>
